<svg width="33" height="33" viewBox="0 0 33 33" fill="none" xmlns="http://www.w3.org/2000/svg">
<rect width="33" height="33" rx="8" fill="#E6FAFF"/>
<path d="M11.5413 17.9173C11.3406 17.9173 11.1725 17.8493 11.037 17.7133C10.9015 17.5773 10.8335 17.4092 10.833 17.209C10.8325 17.0088 10.9005 16.8407 11.037 16.7047C11.1735 16.5687 11.3416 16.5007 11.5413 16.5007H21.458C21.6587 16.5007 21.8271 16.5687 21.9631 16.7047C22.0991 16.8407 22.1668 17.0088 22.1663 17.209C22.1659 17.4092 22.0979 17.5776 21.9623 17.714C21.8268 17.8505 21.6587 17.9183 21.458 17.9173H11.5413ZM11.5413 15.7923C11.3406 15.7923 11.1725 15.7243 11.037 15.5883C10.9015 15.4523 10.8335 15.2842 10.833 15.084C10.8325 14.8838 10.9005 14.7157 11.037 14.5797C11.1735 14.4437 11.3416 14.3757 11.5413 14.3757H21.458C21.6587 14.3757 21.8271 14.4437 21.9631 14.5797C22.0991 14.7157 22.1668 14.8838 22.1663 15.084C22.1659 15.2842 22.0979 15.4526 21.9623 15.589C21.8268 15.7255 21.6587 15.7933 21.458 15.7923H11.5413ZM16.4997 23.584C16.299 23.584 16.1309 23.516 15.9953 23.38C15.8598 23.244 15.7918 23.0759 15.7913 22.8757V21.3173L15.1538 21.9548C15.024 22.0847 14.8587 22.1496 14.658 22.1496C14.4573 22.1496 14.292 22.0847 14.1622 21.9548C14.0323 21.825 13.9674 21.6597 13.9674 21.459C13.9674 21.2583 14.0323 21.093 14.1622 20.9632L16.0038 19.1215C16.0747 19.0507 16.1514 19.0006 16.2341 18.9713C16.3167 18.942 16.4052 18.9272 16.4997 18.9267C16.5941 18.9262 16.6827 18.9411 16.7653 18.9713C16.8479 19.0015 16.9247 19.0516 16.9955 19.1215L18.8372 20.9632C18.967 21.093 19.0348 21.2555 19.0405 21.4505C19.0461 21.6455 18.9784 21.8136 18.8372 21.9548C18.7073 22.0847 18.5451 22.1527 18.3506 22.1588C18.156 22.165 17.9876 22.1029 17.8455 21.9725L17.208 21.3527V22.8757C17.208 23.0763 17.14 23.2447 17.004 23.3807C16.868 23.5167 16.6999 23.5845 16.4997 23.584ZM16.4997 13.3663C16.4052 13.3663 16.3167 13.3514 16.2341 13.3217C16.1514 13.2919 16.0747 13.2418 16.0038 13.1715L14.1622 11.3298C14.0323 11.2 13.9674 11.0347 13.9674 10.834C13.9674 10.6333 14.0323 10.468 14.1622 10.3382C14.292 10.2083 14.4573 10.1434 14.658 10.1434C14.8587 10.1434 15.024 10.2083 15.1538 10.3382L15.7913 10.9757V9.41732C15.7913 9.21663 15.8593 9.04851 15.9953 8.91299C16.1313 8.77746 16.2995 8.70946 16.4997 8.70899C16.6999 8.70851 16.8682 8.77651 17.0047 8.91299C17.1412 9.04946 17.209 9.21757 17.208 9.41732V10.9757L17.8455 10.3382C17.9754 10.2083 18.1406 10.1434 18.3413 10.1434C18.542 10.1434 18.7073 10.2083 18.8372 10.3382C18.967 10.468 19.032 10.6333 19.032 10.834C19.032 11.0347 18.967 11.2 18.8372 11.3298L16.9955 13.1715C16.9247 13.2423 16.8479 13.2926 16.7653 13.3224C16.6827 13.3521 16.5941 13.3668 16.4997 13.3663Z" fill="#006980"/>
</svg>
