<svg width="69" height="53" viewBox="0 0 69 53" fill="none" xmlns="http://www.w3.org/2000/svg">
<path fill-rule="evenodd" clip-rule="evenodd" d="M18.5011 10.1502C18.5464 9.60586 18.7245 9.08089 19.0196 8.62127C19.3148 8.16164 19.7181 7.78135 20.1943 7.5137C20.6705 7.24604 21.205 7.09916 21.7511 7.08591C22.2972 7.07267 22.8382 7.19346 23.3268 7.43772C23.7141 7.65595 24.1417 7.7932 24.5837 7.84114C25.0256 7.88908 25.4727 7.84671 25.8978 7.7166C26.3229 7.58649 26.7171 7.37135 27.0566 7.08425C27.396 6.79715 27.6735 6.44407 27.8723 6.04644C28.0711 5.64882 28.1871 5.21494 28.2131 4.77114C28.2391 4.32734 28.1747 3.88288 28.0238 3.46474C27.8728 3.0466 27.6384 2.6635 27.3349 2.33869C27.0314 2.01388 26.665 1.75413 26.258 1.57522C24.8107 0.852047 23.2082 0.494444 21.5907 0.533674C19.9732 0.572905 18.3899 1.00778 16.9793 1.80027C15.5687 2.59276 14.3737 3.71874 13.4988 5.07976C12.6239 6.44079 12.0958 7.99541 11.9605 9.60772L11.4749 15.444H7.2924C6.42215 15.444 5.58756 15.7897 4.9722 16.405C4.35685 17.0204 4.01115 17.855 4.01115 18.7252C4.01115 19.5955 4.35685 20.4301 4.9722 21.0454C5.58756 21.6608 6.42215 22.0065 7.2924 22.0065H10.9236L9.20865 42.6127C9.16334 43.1571 8.98532 43.682 8.69015 44.1417C8.39498 44.6013 7.99166 44.9816 7.51548 45.2492C7.03931 45.5169 6.50479 45.6638 5.95871 45.677C5.41262 45.6903 4.87161 45.5695 4.38302 45.3252C3.61208 44.9863 2.74033 44.9568 1.94822 45.2428C1.15611 45.5288 0.504284 46.1084 0.12766 46.8616C-0.248963 47.6149 -0.32155 48.4841 -0.0750742 49.2893C0.171401 50.0946 0.718067 50.7743 1.45177 51.1877C2.89913 51.9109 4.50161 52.2685 6.11911 52.2293C7.7366 52.19 9.31987 51.7552 10.7305 50.9627C12.1411 50.1702 13.3361 49.0442 14.2109 47.6832C15.0858 46.3222 15.614 44.7675 15.7493 43.1552L17.5124 22.0065H22.6049C23.0358 22.0065 23.4625 21.9216 23.8606 21.7567C24.2587 21.5918 24.6204 21.3501 24.9251 21.0454C25.2298 20.7407 25.4715 20.379 25.6364 19.9809C25.8013 19.5828 25.8861 19.1561 25.8861 18.7252C25.8861 18.2943 25.8013 17.8676 25.6364 17.4695C25.4715 17.0714 25.2298 16.7097 24.9251 16.405C24.6204 16.1003 24.2587 15.8586 23.8606 15.6937C23.4625 15.5288 23.0358 15.444 22.6049 15.444H18.0549L18.5011 10.1502ZM44.8124 19.9065C44.2484 19.2618 43.4546 18.8632 42.6006 18.7959C41.7467 18.7286 40.9003 18.9979 40.2422 19.5462C39.5841 20.0946 39.1666 20.8786 39.0788 21.7307C38.991 22.5828 39.24 23.4354 39.7724 24.1065L43.4911 28.569L39.7724 33.0315C39.24 33.7025 38.991 34.5551 39.0788 35.4072C39.1666 36.2593 39.5841 37.0433 40.2422 37.5917C40.9003 38.1401 41.7467 38.4094 42.6006 38.3421C43.4546 38.2748 44.2484 37.8762 44.8124 37.2315L47.7611 33.6965L50.7099 37.2315C51.2739 37.8762 52.0677 38.2748 52.9216 38.3421C53.7756 38.4094 54.622 38.1401 55.2801 37.5917C55.9381 37.0433 56.3557 36.2593 56.4434 35.4072C56.5312 34.5551 56.2823 33.7025 55.7499 33.0315L52.0311 28.569L55.7499 24.1065C56.2823 23.4354 56.5312 22.5828 56.4434 21.7307C56.3557 20.8786 55.9381 20.0946 55.2801 19.5462C54.622 18.9979 53.7756 18.7286 52.9216 18.7959C52.0677 18.8632 51.2739 19.2618 50.7099 19.9065L47.7611 23.4415L44.8124 19.9065ZM34.7236 11.2877C35.535 11.6008 36.1889 12.2232 36.5416 13.0181C36.8944 13.813 36.9171 14.7154 36.6049 15.5271L35.9705 17.1808C33.1518 24.5098 33.1518 32.6238 35.9705 39.9527L36.6049 41.6065C36.9176 42.4187 36.8948 43.3219 36.5416 44.1173C36.1884 44.9128 35.5337 45.5353 34.7215 45.848C33.9092 46.1607 33.0061 46.138 32.2106 45.7848C31.4152 45.4316 30.7926 44.7768 30.4799 43.9646L29.8455 42.3108C26.4435 33.4654 26.4435 23.6725 29.8455 14.8271L30.4799 13.1733C30.6345 12.7707 30.8669 12.4025 31.1639 12.0897C31.4609 11.777 31.8167 11.5258 32.2108 11.3507C32.605 11.1756 33.0298 11.0799 33.461 11.0691C33.8921 11.0583 34.3212 11.1326 34.7236 11.2877ZM60.803 11.2877C61.2052 11.1324 61.634 11.0579 62.065 11.0684C62.4959 11.079 62.9206 11.1743 63.3147 11.349C63.7088 11.5237 64.0646 11.7744 64.3618 12.0866C64.659 12.3989 64.8918 12.7667 65.0468 13.169L65.6811 14.8271C69.0831 23.6725 69.0831 33.4654 65.6811 42.3108L65.0424 43.9646C64.8927 44.3733 64.6631 44.7481 64.3672 45.0672C64.0712 45.3863 63.7147 45.6434 63.3184 45.8234C62.9221 46.0034 62.494 46.1027 62.059 46.1157C61.6239 46.1286 61.1906 46.0549 60.7844 45.8987C60.3781 45.7426 60.0069 45.5072 59.6925 45.2063C59.3781 44.9053 59.1267 44.5448 58.9529 44.1458C58.7792 43.7467 58.6866 43.3171 58.6805 42.8819C58.6744 42.4467 58.7549 42.0146 58.9174 41.6108L59.5561 39.9527C62.3748 32.6238 62.3748 24.5098 59.5561 17.1808L58.9174 15.5271C58.7622 15.1247 58.6879 14.6956 58.6987 14.2644C58.7095 13.8332 58.8052 13.4084 58.9804 13.0143C59.1555 12.6201 59.4066 12.2644 59.7194 11.9674C60.0321 11.6704 60.4004 11.4379 60.803 11.2833" fill="#397EF6"/>
</svg>
