<svg width="33" height="33" viewBox="0 0 33 33" fill="none" xmlns="http://www.w3.org/2000/svg">
<rect width="33" height="33" rx="8" fill="#6FBAFD" fill-opacity="0.2"/>
<g clip-path="url(#clip0_621_7317)">
<mask id="mask0_621_7317" style="mask-type:luminance" maskUnits="userSpaceOnUse" x="8" y="8" width="17" height="17">
<path d="M8 8H25V25H8V8Z" fill="white"/>
</mask>
<g mask="url(#mask0_621_7317)">
<path fill-rule="evenodd" clip-rule="evenodd" d="M12.5814 12.5588C12.5924 12.4266 12.6357 12.2991 12.7073 12.1875C12.779 12.0759 12.877 11.9835 12.9926 11.9185C13.1083 11.8535 13.2381 11.8178 13.3707 11.8146C13.5033 11.8114 13.6347 11.8407 13.7534 11.9001C13.8474 11.9531 13.9513 11.9864 14.0586 11.998C14.1659 12.0097 14.2745 11.9994 14.3778 11.9678C14.481 11.9362 14.5767 11.8839 14.6592 11.8142C14.7416 11.7445 14.809 11.6587 14.8573 11.5622C14.9056 11.4656 14.9337 11.3602 14.94 11.2525C14.9464 11.1447 14.9307 11.0367 14.8941 10.9352C14.8574 10.8336 14.8005 10.7406 14.7268 10.6617C14.653 10.5828 14.5641 10.5198 14.4652 10.4763C14.1137 10.3007 13.7246 10.2138 13.3317 10.2234C12.9389 10.2329 12.5544 10.3385 12.2118 10.531C11.8693 10.7234 11.579 10.9969 11.3666 11.3274C11.1541 11.6579 11.0258 12.0355 10.993 12.4271L10.875 13.8444H9.85929C9.64795 13.8444 9.44526 13.9284 9.29582 14.0778C9.14637 14.2273 9.06242 14.43 9.06242 14.6413C9.06242 14.8527 9.14637 15.0553 9.29582 15.2048C9.44526 15.3542 9.64795 15.4382 9.85929 15.4382H10.7412L10.3247 20.4426C10.3137 20.5748 10.2704 20.7023 10.1987 20.8139C10.1271 20.9255 10.0291 21.0179 9.91347 21.0829C9.79783 21.1479 9.66802 21.1835 9.5354 21.1868C9.40278 21.19 9.27139 21.1606 9.15273 21.1013C8.9655 21.019 8.75379 21.0118 8.56142 21.0813C8.36905 21.1507 8.21075 21.2915 8.11929 21.4744C8.02782 21.6574 8.01019 21.8685 8.07005 22.064C8.12991 22.2596 8.26267 22.4247 8.44086 22.5251C8.79236 22.7007 9.18153 22.7875 9.57435 22.778C9.96717 22.7685 10.3517 22.6629 10.6943 22.4704C11.0368 22.2779 11.327 22.0045 11.5395 21.674C11.752 21.3434 11.8803 20.9659 11.9131 20.5743L12.3413 15.4382H13.578C13.6827 15.4382 13.7863 15.4176 13.883 15.3775C13.9797 15.3375 14.0675 15.2788 14.1415 15.2048C14.2155 15.1308 14.2742 15.0429 14.3143 14.9463C14.3543 14.8496 14.3749 14.746 14.3749 14.6413C14.3749 14.5367 14.3543 14.433 14.3143 14.3364C14.2742 14.2397 14.2155 14.1518 14.1415 14.0778C14.0675 14.0038 13.9797 13.9451 13.883 13.9051C13.7863 13.865 13.6827 13.8444 13.578 13.8444H12.473L12.5814 12.5588ZM18.9713 14.9282C18.8343 14.7716 18.6415 14.6748 18.4342 14.6585C18.2268 14.6421 18.0212 14.7075 17.8614 14.8407C17.7016 14.9739 17.6002 15.1643 17.5789 15.3712C17.5575 15.5782 17.618 15.7852 17.7473 15.9482L18.6504 17.0319L17.7473 18.1157C17.618 18.2787 17.5575 18.4857 17.5789 18.6927C17.6002 18.8996 17.7016 19.09 17.8614 19.2232C18.0212 19.3563 18.2268 19.4218 18.4342 19.4054C18.6415 19.3891 18.8343 19.2923 18.9713 19.1357L19.6874 18.2772L20.4035 19.1357C20.5405 19.2923 20.7333 19.3891 20.9407 19.4054C21.1481 19.4218 21.3536 19.3563 21.5134 19.2232C21.6733 19.09 21.7747 18.8996 21.796 18.6927C21.8173 18.4857 21.7568 18.2787 21.6275 18.1157L20.7244 17.0319L21.6275 15.9482C21.7568 15.7852 21.8173 15.5782 21.796 15.3712C21.7747 15.1643 21.6733 14.9739 21.5134 14.8407C21.3536 14.7075 21.1481 14.6421 20.9407 14.6585C20.7333 14.6748 20.5405 14.7716 20.4035 14.9282L19.6874 15.7867L18.9713 14.9282ZM16.5212 12.8351C16.7182 12.9111 16.877 13.0622 16.9627 13.2553C17.0483 13.4483 17.0539 13.6675 16.978 13.8646L16.824 14.2662C16.1394 16.0461 16.1394 18.0167 16.824 19.7966L16.978 20.1982C17.054 20.3954 17.0485 20.6148 16.9627 20.808C16.8769 21.0011 16.7179 21.1523 16.5206 21.2283C16.3234 21.3042 16.104 21.2987 15.9109 21.2129C15.7177 21.1271 15.5665 20.9681 15.4905 20.7709L15.3365 20.3692C14.5103 18.2211 14.5103 15.8428 15.3365 13.6946L15.4905 13.293C15.5281 13.1952 15.5845 13.1058 15.6567 13.0298C15.7288 12.9539 15.8152 12.8929 15.9109 12.8504C16.0066 12.8078 16.1098 12.7846 16.2145 12.782C16.3192 12.7793 16.4234 12.7974 16.5212 12.8351ZM22.8547 12.8351C22.9524 12.7973 23.0565 12.7793 23.1612 12.7818C23.2659 12.7844 23.369 12.8075 23.4647 12.8499C23.5604 12.8924 23.6468 12.9532 23.719 13.0291C23.7912 13.1049 23.8477 13.1942 23.8854 13.2919L24.0394 13.6946C24.8656 15.8428 24.8656 18.2211 24.0394 20.3692L23.8843 20.7709C23.8479 20.8701 23.7922 20.9611 23.7203 21.0386C23.6484 21.1161 23.5619 21.1786 23.4656 21.2223C23.3694 21.266 23.2654 21.2901 23.1597 21.2933C23.0541 21.2964 22.9489 21.2785 22.8502 21.2406C22.7515 21.2027 22.6614 21.1455 22.585 21.0724C22.5087 20.9993 22.4476 20.9118 22.4054 20.8149C22.3632 20.718 22.3407 20.6136 22.3393 20.5079C22.3378 20.4022 22.3573 20.2973 22.3968 20.1992L22.5519 19.7966C23.2365 18.0167 23.2365 16.0461 22.5519 14.2662L22.3968 13.8646C22.3591 13.7669 22.3411 13.6627 22.3437 13.558C22.3463 13.4533 22.3696 13.3501 22.4121 13.2544C22.4546 13.1586 22.5156 13.0722 22.5916 13.0001C22.6675 12.928 22.7569 12.8715 22.8547 12.834" fill="#397EF6"/>
</g>
</g>
<defs>
<clipPath id="clip0_621_7317">
<rect width="17" height="17" fill="white" transform="translate(8 8)"/>
</clipPath>
</defs>
</svg>
