<svg viewBox="0 -2.5 48 48" version="1.1" xmlns="http://www.w3.org/2000/svg" xmlns:xlink="http://www.w3.org/1999/xlink" fill="#000000"><g id="SVGRepo_bgCarrier" stroke-width="0"></g><g id="SVGRepo_tracerCarrier" stroke-linecap="round" stroke-linejoin="round"></g><g id="SVGRepo_iconCarrier"> <title>firefox-color</title> <desc>Created with Sketch.</desc> <defs> </defs> <g id="Icons" stroke="none" stroke-width="1" fill="none" fill-rule="evenodd"> <g id="Color-" transform="translate(-301.000000, -1045.000000)" fill="#FF8000"> <path d="M317.687745,1052.7291 C317.875434,1051.14046 318.943782,1049.07983 320.955235,1048.13538 C317.933104,1047.67735 315.478934,1049.07994 314.256567,1050.88304 C312.316998,1050.46821 311.125272,1050.44546 309.174751,1050.80671 C307.937006,1049.87681 306.481397,1047.75773 306.595338,1045.54038 C304.253478,1048.27477 303.770916,1050.33667 304.059615,1052.79817 C295.046,1068.78088 307.172968,1088 324.458413,1088 C339.988016,1087.99988 349,1076.22702 349,1064.16348 C349,1056.02799 345.285016,1048.96607 341.491975,1047.43922 C342.907157,1048.98525 344.514921,1053.01228 344.206882,1055.79898 C341.14549,1047.89736 333.501504,1044.84353 330.925586,1045.00614 C339.393376,1048.27904 341.419858,1059.42054 340.668636,1062.7088 C339.932443,1058.85292 337.583244,1055.53174 336.177848,1054.65381 C344.378727,1073.69855 324.572937,1079.54993 318.529841,1072.94037 C320.088207,1073.341 323.164396,1073.14409 325.468974,1071.61424 C327.625009,1070.18301 327.827844,1070.09905 329.213084,1069.99245 C330.858479,1069.86565 329.113939,1066.64495 325.519654,1067.18981 C324.040744,1067.41409 321.6037,1069.13796 318.606152,1068.0018 C314.989265,1066.63074 315.10309,1061.73663 318.837996,1063.20909 C319.646422,1062.16936 319.049685,1060.204 319.049685,1060.204 C320.134809,1059.21901 321.504671,1058.52494 322.339077,1058.03712 C322.886299,1057.71722 324.328627,1056.83155 324.246957,1055.10941 C323.953132,1054.88167 323.478259,1054.59064 322.40863,1054.6515 C318.240677,1054.91343 317.961997,1053.42064 317.687745,1052.7291 L317.687745,1052.7291 Z" id="firefox"> </path> </g> </g> </g></svg>
