<svg viewBox="0 0 5940 5940" xmlns="http://www.w3.org/2000/svg" xmlns:xlink="http://www.w3.org/1999/xlink" fill="#000000"><g id="SVGRepo_bgCarrier" stroke-width="0"></g><g id="SVGRepo_tracerCarrier" stroke-linecap="round" stroke-linejoin="round"></g><g id="SVGRepo_iconCarrier"><linearGradient id="b" x1="50%" x2="50%" y1="0%" y2="100%"><stop offset="0%" stop-color="#34aadc"></stop><stop offset="100%" stop-color="#007aff"></stop></linearGradient><path id="a" d="M2354 4728L738 3458a611 611 0 01-253-480c0-180 90-352 253-480l1616-1272a1003 1003 0 01616-199c233 0 450 72 616 200l1616 1270a611 611 0 01253 480c0 182-90 353-253 480L3586 4727a996 996 0 01-616 201c-233 0-450-70-616-200z"></path><path id="c" d="M2354 3928L738 2658a611 611 0 01-253-480c0-180 90-352 253-480L2354 426a1003 1003 0 01616-199c233 0 450 72 616 200l1616 1270a611 611 0 01253 480c0 182-90 353-253 480L3586 3927a996 996 0 01-616 201c-233 0-450-70-616-200z"></path><path fill="#ff9d00" d="M5200 3280a590 590 0 010 973L3590 5517a1060 1060 0 01-1240 0L740 4255a590 590 0 011-974l1610-1264c342-266 898-266 1240 0l1609 1263z"></path><use fill="#fc0" xlink:href="#a"></use><use fill="url(#b)" xlink:href="#c"></use><path d="M2976 3395c825 0 1494-547 1494-1222 0-673-670-1223-1494-1223-826 0-1496 550-1496 1223 0 675 670 1222 1495 1222zm0 126c-910 0-1650-603-1650-1348 0-744 740-1347 1650-1347s1648 604 1648 1347c0 745-738 1348-1648 1348z"></path><path fill="#8cc8f6" d="M3086 2692c82-10 163-34 237-70l470 194-246-370a430 430 0 000-546l246-370-443 183-13 195a330 330 0 01-12 538 514 514 0 01-160 85l-80 160zm-220-1036c-137 18-240 70-240 70l-470-194 246 370a431 431 0 000 545l-246 370 454-187 10-183a330 330 0 013-546c45-40 146-82 160-85l80-160z"></path><path fill-rule="evenodd" d="M2750 2133l-63 1110 507-1030 72-1107-516 1027zm-7 897l406-824-356-65-50 890z"></path></g></svg>
