<svg width="20" height="16" viewBox="0 0 20 16" fill="none" xmlns="http://www.w3.org/2000/svg">
	<g transform="translate(1,0)">
		<path d="M5.04688 0.171875L6.07812 1.20312L3.32812 3.95312L2.8125 4.38281L2.29688 3.95312L0.921875 2.57812L1.95312 1.54688L2.8125 2.44922L5.04688 0.171875ZM8.3125 1.375H17.25V2.75H8.3125V1.375ZM5.04688 5.67188L6.07812 6.70312L3.32812 9.45312L2.8125 9.88281L2.29688 9.45312L0.921875 8.07812L1.95312 7.04688L2.8125 7.94922L5.04688 5.67188ZM8.3125 6.875H17.25V8.25H8.3125V6.875ZM5.04688 11.1719L6.07812 12.2031L3.32812 14.9531L2.8125 15.3828L2.29688 14.9531L0.921875 13.5781L1.95312 12.5469L2.8125 13.4492L5.04688 11.1719ZM8.3125 12.375H17.25V13.75H8.3125V12.375Z" fill="#202224" />
	</g>
</svg>
	