<?xml version="1.0" encoding="iso-8859-1"?>
<!-- Generator: Adobe Illustrator 19.0.0, SVG Export Plug-In . SVG Version: 6.00 Build 0)  -->
<svg version="1.1" id="Layer_1" xmlns="http://www.w3.org/2000/svg" xmlns:xlink="http://www.w3.org/1999/xlink" x="0px" y="0px"
	 viewBox="0 0 512.009 512.009" style="enable-background:new 0 0 512.009 512.009;" xml:space="preserve">
<g>
	<g>
		<g>
			<path d="M256.009,42.671c-0.002,0-0.005,0-0.007,0c-0.001,0-0.001,0-0.002,0c-0.001,0-0.002,0-0.003,0
				c-70.671,0.003-134.648,28.637-180.967,74.935c-0.016,0.016-0.034,0.029-0.05,0.045c-0.017,0.017-0.03,0.035-0.047,0.052
				C28.688,163.976,0.072,227.867,0.011,298.445C0.011,298.521,0,298.595,0,298.671c0,0.073,0.01,0.143,0.011,0.215
				c0.05,60.201,20.962,117.239,58.515,162.704c4.053,4.907,10.084,7.748,16.448,7.748h95.693h170.667h95.688
				c6.364,0,12.395-2.841,16.448-7.748c37.607-45.53,58.539-102.65,58.539-162.919C512.009,157.289,397.391,42.671,256.009,42.671z
				 M197.707,426.671c7.376-12.754,21.165-21.333,36.96-21.333h42.667c15.795,0,29.584,8.579,36.96,21.333H197.707z M426.68,426.671
				h-66.702c-9.472-36.807-42.88-64-82.645-64h-42.667c-39.765,0-73.173,27.193-82.645,64H85.316
				c-23.281-30.977-37.712-67.661-41.583-106.667h62.934c11.782,0,21.333-9.551,21.333-21.333c0-11.782-9.551-21.333-21.333-21.333
				H43.734c4.259-42.905,21.23-82.066,47.091-113.671l14.32,14.32c8.331,8.331,21.839,8.331,30.17,0
				c8.331-8.331,8.331-21.839,0-30.17l-14.321-14.321c31.605-25.864,70.765-42.837,113.672-47.098v62.941
				c0,11.782,9.551,21.333,21.333,21.333c11.782,0,21.333-9.551,21.333-21.333V86.396c42.906,4.259,82.068,21.232,113.676,47.096
				l-14.325,14.325c-8.331,8.331-8.331,21.839,0,30.17c8.331,8.331,21.839,8.331,30.17,0l14.326-14.326
				c25.867,31.607,42.842,70.771,47.103,113.677h-62.95c-11.782,0-21.333,9.551-21.333,21.333c0,11.782,9.551,21.333,21.333,21.333
				h62.95C464.409,359.001,449.97,395.686,426.68,426.671z"/>
			<polygon points="259.659,341.338 319.989,220.655 199.328,281.007 			"/>
		</g>
	</g>
</g>
<g>
</g>
<g>
</g>
<g>
</g>
<g>
</g>
<g>
</g>
<g>
</g>
<g>
</g>
<g>
</g>
<g>
</g>
<g>
</g>
<g>
</g>
<g>
</g>
<g>
</g>
<g>
</g>
<g>
</g>
</svg>
