<svg width="22" height="16" viewBox="0 0 22 16" fill="none" xmlns="http://www.w3.org/2000/svg">
	<g transform="translate(2,-1.5)">
		<path d="M7.75 0.25C11.8838 0.25 15.25 3.61621 15.25 7.75C15.25 9.5459 14.6201 11.1924 13.5625 12.4844L18.5781 17.4219L17.5 18.5L12.4844 13.5625C11.1924 14.6201 9.5459 15.25 7.75 15.25C3.61621 15.25 0.25 11.8838 0.25 7.75C0.25 3.61621 3.61621 0.25 7.75 0.25ZM7.75 1.75C4.42773 1.75 1.75 4.42773 1.75 7.75C1.75 11.0723 4.42773 13.75 7.75 13.75C11.0723 13.75 13.75 11.0723 13.75 7.75C13.75 4.42773 11.0723 1.75 7.75 1.75Z" fill="#202224" />
	</g>
</svg>
	