<svg width="20" height="16" viewBox="0 0 20 16" fill="none" xmlns="http://www.w3.org/2000/svg">
	<g transform="translate(3,0)">
		<path d="M3.48047 1.41797C4.42578 0.472656 5.55729 0 6.875 0C8.19271 0 9.32422 0.472656 10.2695 1.41797C11.2148 2.36328 11.6875 3.49479 11.6875 4.8125C11.6875 5.61458 11.487 6.3737 11.0859 7.08984C10.7135 7.80599 10.1979 8.37891 9.53906 8.80859C10.7995 9.35286 11.8164 10.1979 12.5898 11.3438C13.3633 12.4609 13.75 13.7214 13.75 15.125H12.375C12.375 13.6068 11.8307 12.3177 10.7422 11.2578C9.68229 10.1693 8.39323 9.625 6.875 9.625C5.35677 9.625 4.05339 10.1693 2.96484 11.2578C1.90495 12.3177 1.375 13.6068 1.375 15.125H0C0 13.7214 0.386719 12.4609 1.16016 11.3438C1.93359 10.1979 2.95052 9.35286 4.21094 8.80859C3.55208 8.37891 3.02214 7.80599 2.62109 7.08984C2.2487 6.3737 2.0625 5.61458 2.0625 4.8125C2.0625 3.49479 2.53516 2.36328 3.48047 1.41797ZM9.28125 2.40625C8.6224 1.71875 7.82031 1.375 6.875 1.375C5.92969 1.375 5.11328 1.71875 4.42578 2.40625C3.76693 3.0651 3.4375 3.86719 3.4375 4.8125C3.4375 5.75781 3.76693 6.57422 4.42578 7.26172C5.11328 7.92057 5.92969 8.25 6.875 8.25C7.82031 8.25 8.6224 7.92057 9.28125 7.26172C9.96875 6.57422 10.3125 5.75781 10.3125 4.8125C10.3125 3.86719 9.96875 3.0651 9.28125 2.40625Z" fill="#202224" />
	</g>
</svg>
	