<!DOCTYPE svg PUBLIC "-//W3C//DTD SVG 1.1//EN" "http://www.w3.org/Graphics/SVG/1.1/DTD/svg11.dtd">
<!-- Uploaded to: SVG Repo, www.svgrepo.com, Transformed by: SVG Repo Mixer Tools -->
<svg fill="#ffffff" height="800px" width="800px" version="1.1" id="Capa_1" xmlns="http://www.w3.org/2000/svg" xmlns:xlink="http://www.w3.org/1999/xlink" viewBox="0 0 493.583 493.583" xml:space="preserve" stroke="#ffffff">
<g id="SVGRepo_bgCarrier" stroke-width="0"/>
<g id="SVGRepo_tracerCarrier" stroke-linecap="round" stroke-linejoin="round"/>
<g id="SVGRepo_iconCarrier"> <g> <path d="M474.332,170.706c-3.889-49.328-26.734-94.184-64.346-126.313C376.486,15.759,333.787,0,289.761,0 c-54.305,0-105.654,23.649-140.869,64.89c-32.146,37.601-47.715,85.476-43.828,134.797c1.543,19.635,6.199,38.496,13.479,56.184 l-39.986,46.82c-9.451,11.051-8.133,27.647,2.906,37.098l4.742,4.049l-55.156,64.555c-18.525,21.684-15.953,54.283,5.73,72.809 c21.674,18.525,54.277,15.973,72.799-5.701l55.154-64.537l4.725,4.043c5.322,4.536,12.213,6.766,19.168,6.222 c6.955-0.549,13.414-3.825,17.947-9.144l40.102-46.914c13.975,3.357,28.357,5.241,42.926,5.241 c54.289,0,105.656-23.65,140.904-64.895C462.634,267.892,478.185,220.026,474.332,170.706z M392.974,273.448 c-25.869,30.253-63.527,47.605-103.375,47.605c-32.262,0-63.57-11.57-88.139-32.586c-27.602-23.551-44.359-56.455-47.201-92.635 c-2.842-36.185,8.578-71.305,32.146-98.872c25.85-30.253,63.508-47.606,103.355-47.606c32.264,0,63.59,11.566,88.176,32.57 c27.584,23.568,44.342,56.472,47.166,92.65C427.962,210.743,416.542,245.858,392.974,273.448z"/> <path d="M289.699,149.575c-19.664,0-35.654,15.988-35.654,35.617c0,19.637,15.99,35.621,35.654,35.621 c19.635,0,35.602-15.984,35.602-35.621C325.3,165.564,309.333,149.575,289.699,149.575z"/> <path d="M382.269,202.673l-12.916-7.451c0.422-3.328,1.027-6.586,1.027-10.029c0-3.436-0.605-6.695-1.027-10.022l12.916-7.468 c3.217-1.85,5.592-4.934,6.557-8.533c0.965-3.598,0.467-7.439-1.416-10.668l-17.092-29.595c-3.854-6.718-12.467-9.03-19.215-5.159 l-12.789,7.424c-5.43-4.113-11.166-7.76-17.48-10.41V96.267c0-7.775-6.295-14.054-14.07-14.054h-34.158 c-7.775,0-14.06,6.278-14.06,14.054v14.494c-6.348,2.65-12.066,6.297-17.463,10.41l-12.836-7.424 c-3.229-1.859-7.088-2.373-10.686-1.396c-3.6,0.964-6.65,3.31-8.533,6.556l-17.074,29.595c-3.889,6.717-1.578,15.323,5.141,19.201 l12.916,7.468c-0.416,3.327-1.012,6.587-1.012,10.022c0,3.443,0.596,6.701,1.012,10.029l-12.916,7.451 c-6.719,3.877-9.029,12.483-5.141,19.219l17.074,29.595c1.883,3.229,4.934,5.591,8.533,6.557c3.598,0.958,7.457,0.46,10.686-1.398 l12.836-7.423c5.396,4.112,11.115,7.758,17.463,10.426v14.479c0,7.773,6.285,14.054,14.06,14.054h34.158 c7.775,0,14.07-6.28,14.07-14.054v-14.479c6.332-2.668,12.051-6.313,17.48-10.426l12.789,7.423c3.248,1.858,7.1,2.357,10.699,1.398 c3.6-0.966,6.684-3.328,8.516-6.557l17.092-29.595C391.304,215.173,388.988,206.561,382.269,202.673z M289.699,237.265 c-28.728,0-52.105-23.356-52.105-52.072c0-28.709,23.377-52.07,52.105-52.07c28.709,0,52.053,23.361,52.053,52.07 C341.751,213.908,318.408,237.265,289.699,237.265z"/> </g> </g>
</svg>