<svg width="94" height="94" viewBox="0 0 94 94" fill="none" xmlns="http://www.w3.org/2000/svg">
<path d="M75.9597 83.2291H26.784C25.636 83.233 24.4985 83.01 23.4369 82.5729C22.3753 82.1359 21.4105 81.4933 20.598 80.6823C19.7855 79.8712 19.1412 78.9076 18.7023 77.8468C18.2633 76.786 18.0382 75.6489 18.04 74.5008V19.4991C18.0382 18.351 18.2633 17.214 18.7023 16.1532C19.1412 15.0923 19.7855 14.1287 20.598 13.3177C21.4105 12.5066 22.3753 11.8641 23.4369 11.427C24.4985 10.9899 25.636 10.7669 26.784 10.7708H75.9597V83.2291Z" stroke="#84DCB0" stroke-width="3" stroke-linecap="round" stroke-linejoin="round"/>
<path d="M75.9597 65.0853H26.784C25.636 65.0814 24.4985 65.3044 23.4369 65.7415C22.3753 66.1785 21.4105 66.8211 20.598 67.6321C19.7855 68.4432 19.1412 69.4068 18.7023 70.4676C18.2633 71.5284 18.0382 72.6655 18.04 73.8135" stroke="#84DCB0" stroke-width="3" stroke-linecap="round" stroke-linejoin="round"/>
<path d="M51.8591 26.6452C51.8591 26.353 51.7463 26.0728 51.5456 25.8662C51.3448 25.6595 51.0725 25.5435 50.7886 25.5435C50.5047 25.5435 50.2324 25.6595 50.0316 25.8662C49.8308 26.0728 49.7181 26.353 49.7181 26.6452V33.5423L43.9158 30.0828C43.6701 29.939 43.379 29.901 43.1062 29.9773C42.8334 30.0535 42.6009 30.2377 42.4596 30.4897C42.3182 30.7416 42.2795 31.0409 42.3517 31.3222C42.424 31.6035 42.6014 31.8439 42.8453 31.991L48.6475 35.4506L42.8453 38.9102C42.6014 39.0573 42.424 39.2978 42.3517 39.5791C42.2795 39.8603 42.3182 40.1596 42.4596 40.4116C42.6009 40.6635 42.8334 40.8477 43.1062 40.924C43.379 41.0002 43.6701 40.9623 43.9158 40.8185L49.7181 37.3589V44.256C49.7181 44.5482 49.8308 44.8285 50.0316 45.0351C50.2324 45.2417 50.5047 45.3578 50.7886 45.3578C51.0725 45.3578 51.3448 45.2417 51.5456 45.0351C51.7463 44.8285 51.8591 44.5482 51.8591 44.256V37.3589L57.6614 40.8185C57.9071 40.9623 58.1981 41.0002 58.471 40.924C58.7438 40.8477 58.9762 40.6635 59.1176 40.4116C59.2589 40.1596 59.2977 39.8603 59.2254 39.5791C59.1532 39.2978 58.9758 39.0573 58.7319 38.9102L52.9296 35.4506L58.7319 31.991C58.9758 31.8439 59.1532 31.6035 59.2254 31.3222C59.2977 31.0409 59.2589 30.7416 59.1176 30.4897C58.9762 30.2377 58.7438 30.0535 58.471 29.9773C58.1981 29.901 57.9071 29.939 57.6614 30.0828L51.8591 33.5423V26.6452ZM34.902 48.9011C34.7393 49.3065 34.7393 49.82 34.7393 50.8468C34.7393 51.8737 34.7393 52.3871 34.902 52.7926C35.1182 53.3324 35.5357 53.7621 36.0603 53.9847C36.4542 54.1522 36.9531 54.1522 37.9508 54.1522C38.9486 54.1522 39.4474 54.1522 39.8414 53.9847C40.3658 53.761 40.7824 53.3323 40.9997 52.7926C41.1624 52.3871 41.1624 51.8737 41.1624 50.8468C41.1624 49.82 41.1624 49.3065 40.9997 48.9011C40.7824 48.3614 40.3658 47.9326 39.8414 47.709C39.4474 47.5415 38.9486 47.5415 37.9508 47.5415C36.9531 47.5415 36.4542 47.5415 36.0603 47.709C35.5359 47.9326 35.1193 48.3614 34.902 48.9011Z" fill="#A5A9D5"/>
</svg>
