<svg width="125" height="125" viewBox="0 0 125 125" fill="none" xmlns="http://www.w3.org/2000/svg">
<path d="M15.625 15.625L109.375 109.375M33.8542 78.125C37.3075 78.125 40.6194 79.4968 43.0613 81.9387C45.5032 84.3806 46.875 87.6925 46.875 91.1458C46.875 94.5992 45.5032 97.9111 43.0613 100.353C40.6194 102.795 37.3075 104.167 33.8542 104.167C30.4008 104.167 27.0889 102.795 24.647 100.353C22.2052 97.9111 20.8333 94.5992 20.8333 91.1458C20.8333 87.6925 22.2052 84.3806 24.647 81.9387C27.0889 79.4968 30.4008 78.125 33.8542 78.125Z" stroke="#84DCB0" stroke-width="3" stroke-linecap="round" stroke-linejoin="round"/>
<path d="M88.5415 41.0156L104.167 32.2292M88.5415 41.0156V58.5938M88.5415 41.0156L72.9165 32.2292M88.5415 41.0156L104.167 49.8073M88.5415 41.0156V23.4375M88.5415 41.0156L72.9165 49.8073" stroke="#5960B2" stroke-opacity="0.54" stroke-width="3" stroke-linecap="round" stroke-linejoin="round"/>
</svg>
