<svg width="16" height="16" viewBox="0 0 16 16" fill="none" xmlns="http://www.w3.org/2000/svg">
  <path d="M11 6H14C14.5515 6 15 5.5515 15 5V2C15 1.449 14.5515 1 14 1H11C10.4485 1 10 1.449 10 2V3H5.5C4.1215 3 3 4.1215 3 5.5H2C1.4485 5.5 1 5.949 1 6.5V9.5C1 10.0515 1.4485 10.5 2 10.5H3C3 11.8785 4.1215 13 5.5 13H10V14C10 14.5515 10.4485 15 11 15H14C14.5515 15 15 14.5515 15 14V11C15 10.449 14.5515 10 14 10H11C10.4485 10 10 10.449 10 11V12H5.5C4.673 12 4 11.327 4 10.5H5C5.5515 10.5 6 10.0515 6 9.5V6.5C6 5.949 5.5515 5.5 5 5.5H4C4 4.673 4.673 4 5.5 4H10V5C10 5.5515 10.4485 6 11 6ZM11 11H14V14H11V11ZM5 6.5V9.5H2L1.9995 6.5H5ZM11 2H14V5H11V2Z" fill="#475467"/>
</svg>
