<svg width="213" height="213" viewBox="0 0 213 213" fill="none" xmlns="http://www.w3.org/2000/svg">
<path d="M7.76945 113.787C3.4785 109.486 3.48631 102.521 7.78689 98.2305L98.4511 7.76923C102.752 3.47828 109.717 3.48608 114.007 7.78666L204.416 98.3977C208.707 102.698 208.699 109.663 204.398 113.954L113.734 204.415C109.433 208.706 102.469 208.698 98.1777 204.398L7.76945 113.787Z" fill="#C8F8E0"/>
<path d="M106 71C115.283 71 124.185 74.6875 130.749 81.2513C137.313 87.815 141 96.7174 141 106C141 115.283 137.313 124.185 130.749 130.749C124.185 137.313 115.283 141 106 141C96.7174 141 87.815 137.313 81.2513 130.749C74.6875 124.185 71 115.283 71 106C71 96.7174 74.6875 87.815 81.2513 81.2513C87.815 74.6875 96.7174 71 106 71ZM107.855 85.96C103.785 85.96 100.595 87.115 98.23 89.425C95.81 91.735 94.655 94.925 94.655 98.995H100.925C100.925 96.685 101.365 94.87 102.3 93.605C103.345 92.065 105.05 91.35 107.47 91.35C109.34 91.35 110.825 91.845 111.87 92.89C112.86 93.935 113.41 95.365 113.41 97.18C113.41 98.555 112.915 99.875 111.925 101.085L111.265 101.855C107.69 105.045 105.545 107.355 104.83 108.84C104.06 110.325 103.73 112.14 103.73 114.23V115H110.055V114.23C110.055 112.91 110.33 111.755 110.88 110.655C111.375 109.665 112.09 108.73 113.08 107.905C115.72 105.595 117.315 104.11 117.81 103.56C119.13 101.8 119.845 99.545 119.845 96.795C119.845 93.44 118.745 90.8 116.545 88.875C114.345 86.895 111.43 85.96 107.855 85.96ZM106.865 117.695C105.744 117.665 104.656 118.08 103.84 118.85C103.437 119.229 103.121 119.691 102.912 120.203C102.703 120.716 102.607 121.267 102.63 121.82C102.63 123.03 103.015 124.02 103.84 124.79C104.65 125.576 105.737 126.011 106.865 126C108.075 126 109.065 125.615 109.89 124.845C110.301 124.458 110.627 123.988 110.844 123.467C111.062 122.946 111.168 122.385 111.155 121.82C111.166 121.269 111.064 120.721 110.856 120.21C110.648 119.7 110.338 119.237 109.945 118.85C109.108 118.079 108.003 117.664 106.865 117.695Z" fill="#2D8C5E"/>
</svg>
