<svg width="200" height="200" viewBox="0 0 200 200" fill="none" xmlns="http://www.w3.org/2000/svg">
<rect width="200" height="200" rx="11" fill="#ABE0F3"/>
<path d="M64.6177 149.375C60.4615 149.375 57.0903 148.267 54.5042 146.05C51.9181 143.833 50.625 140.878 50.625 137.183C50.625 134.228 51.4101 131.849 52.9802 130.046C54.5504 128.243 56.5361 127.343 58.9375 127.347C61.2466 127.347 63.2102 128.132 64.8283 129.702C66.4465 131.272 67.2537 133.166 67.25 135.382C67.25 135.844 67.2279 136.26 67.1835 136.629C67.1392 136.999 67.069 137.414 66.9729 137.876C67.4348 137.784 67.8282 137.529 68.1533 137.111C68.4784 136.694 68.7315 136.117 68.9125 135.382L77.5021 88.4167H67.25C65.6799 88.4167 64.3647 87.8865 63.3044 86.8262C62.2441 85.7659 61.7121 84.4488 61.7084 82.875C61.7047 81.3012 62.2367 79.9859 63.3044 78.9293C64.3721 77.8727 65.6873 77.3407 67.25 77.3333H79.5802L82.4896 61.5396C83.1361 58.0299 84.8688 55.1667 87.6877 52.95C90.5066 50.7333 93.8537 49.625 97.7292 49.625C101.793 49.625 105.118 50.8257 107.704 53.2271C110.29 55.6285 111.583 58.6302 111.583 62.2323C111.583 65.0031 110.798 67.29 109.228 69.0929C107.658 70.8958 105.672 71.7954 103.271 71.7917C100.962 71.7917 99.0001 71.0066 97.3856 69.4365C95.7711 67.8663 94.9621 65.9267 94.9584 63.6177C94.9584 63.1559 94.9824 62.7403 95.0304 62.3708C95.0784 62.0014 95.1468 61.5858 95.2355 61.124C94.6813 61.3087 94.2657 61.5858 93.9886 61.9552C93.7115 62.3247 93.4806 62.8788 93.2959 63.6177L90.9407 77.3333H111.583C113.154 77.3333 114.469 77.8653 115.529 78.9293C116.589 79.9933 117.121 81.3086 117.125 82.875C117.125 84.2604 116.685 85.4611 115.806 86.4771C114.927 87.4931 113.843 88.0934 112.553 88.2781L119.896 96.5906L127.239 88.2781C125.946 88.0934 124.861 87.4931 123.986 86.4771C123.11 85.4611 122.67 84.2604 122.667 82.875C122.667 81.3049 123.199 79.9896 124.263 78.9293C125.327 77.869 126.642 77.337 128.208 77.3333H144.833C146.404 77.3333 147.721 77.8653 148.785 78.9293C149.849 79.9933 150.379 81.3086 150.375 82.875C150.371 84.4414 149.839 85.7585 148.779 86.8262C147.719 87.8939 146.404 88.4241 144.833 88.4167H141.785L127.239 105.042L141.785 121.667H144.833C146.404 121.667 147.721 122.199 148.785 123.263C149.849 124.327 150.379 125.642 150.375 127.208C150.371 128.775 149.839 130.092 148.779 131.16C147.719 132.227 146.404 132.757 144.833 132.75H128.208C126.638 132.75 125.323 132.218 124.263 131.154C123.202 130.09 122.67 128.775 122.667 127.208C122.667 125.823 123.106 124.622 123.986 123.606C124.865 122.59 125.949 121.99 127.239 121.805L119.896 113.354L112.553 121.805C113.846 121.99 114.932 122.59 115.812 123.606C116.691 124.622 117.129 125.823 117.125 127.208C117.125 128.778 116.595 130.096 115.535 131.16C114.474 132.224 113.157 132.754 111.583 132.75H94.9584C93.3882 132.75 92.073 132.218 91.0127 131.154C89.9524 130.09 89.4204 128.775 89.4167 127.208C89.413 125.642 89.945 124.327 91.0127 123.263C92.0804 122.199 93.3956 121.667 94.9584 121.667H98.0063L112.553 105.042L98.0063 88.4167H88.8625L79.9959 136.075C79.257 140.231 77.5483 143.488 74.8698 145.845C72.1914 148.202 68.774 149.379 64.6177 149.375Z" fill="#015D94"/>
</svg>
