<svg fill="#000000" height="200px" width="200px" id="Layer_1" data-name="Layer 1" xmlns="http://www.w3.org/2000/svg" viewBox="0 0 16 16"><g id="SVGRepo_bgCarrier" stroke-width="0"></g><g id="SVGRepo_tracerCarrier" stroke-linecap="round" stroke-linejoin="round"></g><g id="SVGRepo_iconCarrier"> <path class="cls-1" d="M14,12.64286H12.42783L11.53,11.35963l-.92255,1.28323H9.06694l1.658-2.1458L9.09321,8.35714h1.57185l.88315,1.25743.888-1.25743h1.54526L12.34582,10.468ZM9.54391,4.66728h-.233a3.14114,3.14114,0,0,0-.3941-.1A2.45549,2.45549,0,0,0,8.43425,4.517a1.32065,1.32065,0,0,0-.83205.24136,1.33374,1.33374,0,0,0-.40519.895l-.12838.93686H8.91525V7.87217H6.81193l-.376,2.46227a3.57768,3.57768,0,0,1-.462,1.35663,2.58275,2.58275,0,0,1-.78363.80807,3.01506,3.01506,0,0,1-.93874.38729A4.82252,4.82252,0,0,1,3.18422,13q-.27486,0-.6288-.0301A3.52864,3.52864,0,0,1,2,12.89211v-1.815h.11988a.56039.56039,0,0,0,.42384.24432,2.53806,2.53806,0,0,0,.50015.05111,1.30416,1.30416,0,0,0,.8978-.28905,1.584,1.584,0,0,0,.42384-.98524l.32972-2.226H3.25732V6.59022H5.04953l.17882-1.16181a2.9424,2.9424,0,0,1,.44376-1.2449,2.5157,2.5157,0,0,1,.75994-.73361,2.64333,2.64333,0,0,1,.94035-.35569A5.61075,5.61075,0,0,1,8.35686,3q.294,0,.588.02488.294.0254.59907.07569Z"></path> </g></svg>