<svg width="166" height="166" viewBox="0 0 166 166" fill="none" xmlns="http://www.w3.org/2000/svg">
<path d="M131.44 35.1002C126.69 42.7202 116.74 45.1102 109.06 40.5502C109.02 40.5302 108.98 40.5002 108.94 40.4802C108.81 40.4002 108.68 40.3202 108.55 40.2402C85.3698 26.0602 55.05 33.1502 40.57 56.1802C45.1 48.5102 42.71 38.5802 35.1 33.8402C27.41 29.0402 17.3 31.3602 12.46 39.0102C12.48 38.9702 12.51 38.9402 12.53 38.9002C36.64 0.260193 87.4398 -11.5698 126.13 12.3902C126.15 12.3902 126.16 12.4102 126.18 12.4202C126.18 12.4202 126.19 12.4202 126.2 12.4302C133.9 17.2502 136.25 27.4002 131.44 35.1102V35.1002Z" fill="#6B76E3"/>
<path d="M33.8395 130.17C29.0395 137.86 31.3595 147.97 39.0095 152.81C38.9695 152.79 38.9395 152.76 38.8995 152.74C0.419548 128.73 -11.4805 78.2204 12.1095 39.6004C12.2095 39.4304 12.3095 39.2604 12.4195 39.0904C12.4395 39.0604 12.4495 39.0304 12.4695 39.0004C17.3095 31.3504 27.4195 29.0304 35.1095 33.8304C42.7095 38.5704 45.1095 48.5004 40.5795 56.1704C40.5795 56.1804 40.5795 56.1904 40.5595 56.2004C40.5395 56.2404 40.5095 56.2804 40.4895 56.3204C40.4095 56.4504 40.3295 56.5804 40.2495 56.7104C40.2495 56.7304 40.2295 56.7404 40.2195 56.7604C26.0895 79.9504 33.1895 110.24 56.2295 124.7C48.5595 120.14 38.6095 122.54 33.8595 130.15L33.8395 130.17Z" fill="#F45B49"/>
<path d="M152.859 126.201C152.819 126.261 152.789 126.321 152.749 126.381C128.739 164.861 78.2288 176.761 39.6092 153.171C39.4392 153.071 39.2692 152.971 39.0992 152.861C39.0692 152.841 39.0392 152.831 39.0092 152.811C31.3592 147.971 29.0392 137.861 33.8392 130.171C38.5892 122.561 48.5392 120.161 56.2092 124.721C56.2492 124.741 56.2892 124.771 56.3292 124.791C56.4592 124.871 56.5892 124.951 56.7192 125.031C56.7192 125.031 56.7392 125.031 56.7392 125.051C79.9288 139.211 110.249 132.111 124.719 109.061C120.159 116.731 122.549 126.691 130.159 131.441C137.869 136.251 148.029 133.911 152.849 126.201H152.859Z" fill="#5ACA7A"/>
<path d="M152.89 126.13C152.89 126.13 152.87 126.16 152.86 126.18C152.86 126.18 152.86 126.19 152.85 126.2C148.03 133.9 137.88 136.25 130.16 131.44C122.55 126.69 120.16 116.74 124.72 109.06C124.74 109.02 124.77 108.98 124.79 108.94C124.87 108.81 124.95 108.68 125.03 108.55C139.21 85.3504 132.12 55.0204 109.05 40.5504C116.72 45.1104 126.68 42.7204 131.43 35.1004C136.24 27.3904 133.9 17.2404 126.19 12.4204C126.25 12.4604 126.31 12.4904 126.37 12.5304C165.01 36.6404 176.84 87.4404 152.88 126.13H152.89Z" fill="#45A4F3"/>
<path d="M89.0197 119.48L74.4497 72.8804L65.5999 106.04L56.4899 87.2004C56.3399 86.8804 56.0099 86.6804 55.6599 86.6804H38.0399C36.2499 86.6804 34.7599 85.2704 34.7199 83.4804C34.7199 83.4404 34.7199 83.3904 34.7199 83.3504C34.6999 81.5304 36.2199 80.0704 38.0399 80.0704H55.6599C58.5499 80.0704 61.1799 81.7204 62.4399 84.3204L63.8099 87.1504L73.9497 49.1401L89.0097 97.3004L100.3 61.0301L107.79 78.5804C107.98 79.0304 108.43 79.3304 108.92 79.3304H127.74C129.53 79.3304 131.03 80.7604 131.02 82.5504C131.02 82.6104 131.02 82.6704 131.02 82.7304C131 84.5104 129.52 85.9404 127.73 85.9404H107.65C105.27 85.9404 103.13 84.5204 102.19 82.3404L101.25 80.1504L88.9997 119.48H89.0197Z" fill="#121212"/>
</svg>
