<?xml version="1.0" encoding="iso-8859-1"?>
<!-- Uploaded to: SVG Repo, www.svgrepo.com, Generator: SVG Repo Mixer Tools -->
<!DOCTYPE svg PUBLIC "-//W3C//DTD SVG 1.1//EN" "http://www.w3.org/Graphics/SVG/1.1/DTD/svg11.dtd">
<svg fill="#000000" height="800px" width="800px" version="1.1" id="Capa_1" xmlns="http://www.w3.org/2000/svg" xmlns:xlink="http://www.w3.org/1999/xlink" 
	 viewBox="0 0 380 380" xml:space="preserve">
<g>
	<path d="M215.77,216.23h-23.969v-56.906c0-3.314-2.686-6-6-6c-3.313,0-6,2.686-6,6v62.906c0,3.313,2.687,6,6,6h29.969
		c3.313,0,6-2.687,6-6C221.77,218.917,219.083,216.23,215.77,216.23z"/>
	<path d="M72.102,185.826c-10.658-3.229-14.999-5.188-14.999-11.676c0-5.867,7.579-7.949,14.07-7.949
		c4.704,0,10.122,1.458,13.482,3.629c2.783,1.797,6.497,0.999,8.296-1.784c1.798-2.783,0.999-6.497-1.784-8.295
		c-5.299-3.423-12.96-5.55-19.994-5.55c-15.594,0-26.07,8.017-26.07,19.949c0,16.037,13.595,20.154,23.521,23.16
		c10.963,3.32,14.144,5.094,14.099,10.498c0,5.536-7.288,7.5-13.529,7.5c-5.879,0-12.265-2.573-15.891-6.404
		c-2.277-2.407-6.077-2.511-8.481-0.233c-2.407,2.278-2.512,6.075-0.233,8.482c5.929,6.264,15.357,10.155,24.605,10.155
		c15.27,0,25.529-7.836,25.529-19.45C94.848,192.715,81.701,188.733,72.102,185.826z"/>
	<path d="M133.042,154.148c-19.883,0-36.059,15.8-36.059,35.221c0,19.467,16.176,35.305,36.059,35.305
		c3.588,0,7.052-0.522,10.325-1.482l3.266,3.851c1.187,1.399,2.877,2.119,4.579,2.119c1.371,0,2.75-0.468,3.878-1.424
		c2.527-2.144,2.839-5.93,0.695-8.457l-1.308-1.542c8.865-6.438,14.623-16.757,14.623-28.369
		C169.101,169.948,152.925,154.148,133.042,154.148z M146.686,208.55l-4.873-5.746c-2.142-2.526-5.928-2.837-8.457-0.695
		c-2.527,2.144-2.839,5.93-0.695,8.457l1.754,2.068c-0.455,0.025-0.911,0.04-1.372,0.04c-13.266,0-24.059-10.455-24.059-23.305
		c0-12.804,10.793-23.221,24.059-23.221c13.266,0,24.059,10.417,24.059,23.221C157.101,197.314,152.971,204.341,146.686,208.55z"/>
	<path d="M368.317,46.487H11.684C5.24,46.487,0,51.73,0,58.173v263.656c0,6.442,5.24,11.684,11.684,11.684h356.634
		c6.442,0,11.683-5.242,11.683-11.684V58.173C380,51.73,374.76,46.487,368.317,46.487z M320.868,79.771
		c6.844,0,12.387,5.547,12.387,12.387c0,6.842-5.543,12.387-12.387,12.387c-6.839,0-12.385-5.545-12.385-12.387
		C308.483,85.318,314.029,79.771,320.868,79.771z M283.715,79.771c6.839,0,12.386,5.547,12.386,12.387
		c0,6.842-5.547,12.387-12.386,12.387c-6.839,0-12.387-5.545-12.387-12.387C271.328,85.318,276.876,79.771,283.715,79.771z
		 M246.561,79.771c6.839,0,12.381,5.547,12.381,12.387c0,6.842-5.542,12.387-12.381,12.387c-6.844,0-12.387-5.545-12.387-12.387
		C234.175,85.318,239.718,79.771,246.561,79.771z M21.27,314.01V141.424H358.73v66.774c-1.537-2.202-3.678-4.02-6.327-5.143
		l-20.614-8.726c-1.834-0.778-3.771-1.172-5.754-1.172c-5.956,0-11.304,3.54-13.623,9.02l-1.252,2.959
		c-9.228,0.129-18.383,2.255-26.729,6.193l-2.426-2.107c-1.175-1.018-2.498-1.841-3.932-2.447c-1.841-0.779-3.783-1.174-5.772-1.174
		c-4.276,0-8.341,1.858-11.154,5.099l-14.671,16.915c-2.584,2.986-3.855,6.794-3.581,10.735c0.285,3.941,2.085,7.535,5.065,10.115
		l2.417,2.098c-2.755,8.849-3.562,18.179-2.365,27.344l-2.748,1.654c-6.982,4.2-9.242,13.302-5.039,20.293L249.344,315H22.26
		C21.714,315,21.27,314.556,21.27,314.01z M280.949,258.768c5.162-12.192,17.054-20.07,30.295-20.07
		c4.411,0,8.722,0.878,12.813,2.61c16.697,7.072,24.529,26.408,17.461,43.105c-5.166,12.191-17.058,20.068-30.294,20.068
		c0,0-0.001,0-0.002,0c-4.41,0-8.721-0.878-12.811-2.611c-8.089-3.424-14.36-9.793-17.658-17.935
		C277.455,275.794,277.524,266.856,280.949,258.768z"/>
</g>
</svg>