<svg width="241" height="242" viewBox="0 0 241 242" fill="none" xmlns="http://www.w3.org/2000/svg">
<path d="M7.76946 128.787C3.47851 124.486 3.48631 117.521 7.78689 113.231L112.556 8.69606C116.856 4.40511 123.821 4.41291 128.112 8.71349L232.647 113.482C236.938 117.783 236.93 124.748 232.629 129.039L127.86 233.573C123.56 237.864 116.595 237.856 112.304 233.556L7.76946 128.787Z" fill="#C8F8E0"/>
<path d="M120 86C129.283 86 138.185 89.6875 144.749 96.2513C151.313 102.815 155 111.717 155 121C155 130.283 151.313 139.185 144.749 145.749C138.185 152.313 129.283 156 120 156C110.717 156 101.815 152.313 95.2513 145.749C88.6875 139.185 85 130.283 85 121C85 111.717 88.6875 102.815 95.2513 96.2513C101.815 89.6875 110.717 86 120 86ZM121.855 100.96C117.785 100.96 114.595 102.115 112.23 104.425C109.81 106.735 108.655 109.925 108.655 113.995H114.925C114.925 111.685 115.365 109.87 116.3 108.605C117.345 107.065 119.05 106.35 121.47 106.35C123.34 106.35 124.825 106.845 125.87 107.89C126.86 108.935 127.41 110.365 127.41 112.18C127.41 113.555 126.915 114.875 125.925 116.085L125.265 116.855C121.69 120.045 119.545 122.355 118.83 123.84C118.06 125.325 117.73 127.14 117.73 129.23V130H124.055V129.23C124.055 127.91 124.33 126.755 124.88 125.655C125.375 124.665 126.09 123.73 127.08 122.905C129.72 120.595 131.315 119.11 131.81 118.56C133.13 116.8 133.845 114.545 133.845 111.795C133.845 108.44 132.745 105.8 130.545 103.875C128.345 101.895 125.43 100.96 121.855 100.96ZM120.865 132.695C119.744 132.665 118.656 133.08 117.84 133.85C117.437 134.229 117.121 134.691 116.912 135.203C116.703 135.716 116.607 136.267 116.63 136.82C116.63 138.03 117.015 139.02 117.84 139.79C118.65 140.576 119.737 141.011 120.865 141C122.075 141 123.065 140.615 123.89 139.845C124.301 139.458 124.627 138.988 124.844 138.467C125.062 137.946 125.168 137.385 125.155 136.82C125.166 136.269 125.064 135.721 124.856 135.21C124.648 134.7 124.338 134.237 123.945 133.85C123.108 133.079 122.003 132.664 120.865 132.695Z" fill="#2D8C5E"/>
</svg>
