<svg width="200" height="200" viewBox="0 0 200 200" fill="none" xmlns="http://www.w3.org/2000/svg">
<rect width="200" height="200" rx="11" fill="#FFE4BF"/>
<path d="M102.501 85.7979L93.1261 76.4677C98.5328 71.0341 105.163 66.9756 112.462 64.6323L115.719 77.4019C109.862 79.5235 105.852 82.4968 102.501 85.7979ZM136.505 93.7524L162.787 67.3449L136.38 41.0626L136.427 60.953C131.092 61.0974 126.285 61.504 122.138 62.2383L125.395 75.0079C128.556 74.5394 132.309 74.2011 136.458 74.1254L136.505 93.7524ZM136.661 159.615L162.943 133.207L136.536 106.925L136.583 126.618C112.344 126.017 105.278 118.262 97.8161 109.981C94.9103 106.694 91.7409 103.343 87.5847 100.455C90.8067 98.2078 93.3692 95.6331 95.734 92.993L86.4253 83.7285C80.8416 89.867 76.3066 93.8953 64.0563 93.9244L31.1252 94.0027L31.1564 107.175L64.0876 107.097C77.3917 107.065 81.618 111.731 88.0235 118.829C96.2121 127.899 106.381 139.072 136.614 139.79L136.661 159.615Z" fill="#E58500"/>
</svg>
