<svg width="20" height="20" viewBox="0 0 20 20" fill="none" xmlns="http://www.w3.org/2000/svg">
<path d="M10 2.1665C14.3071 2.1665 17.8338 5.69247 17.834 9.99951C17.834 14.3067 14.3072 17.8335 10 17.8335C5.69296 17.8333 2.16699 14.3066 2.16699 9.99951C2.16717 5.69258 5.69307 2.16668 10 2.1665ZM10 2.8335C6.04912 2.83367 2.83416 6.04863 2.83398 9.99951C2.83398 13.9505 6.04901 17.1663 10 17.1665C13.9511 17.1665 17.167 13.9507 17.167 9.99951C17.1668 6.04852 13.951 2.8335 10 2.8335ZM9.91699 6.3335V10.4497L10.1602 10.5952L13.4756 12.5845L13.3359 12.811L9.66699 10.5542V6.3335H9.91699Z" fill="black" stroke="#5960B2"/>
</svg>
