<svg width="18" height="18" viewBox="0 0 18 18" fill="none" xmlns="http://www.w3.org/2000/svg">
<path d="M9.00033 0.666504C4.41699 0.666504 0.666992 4.4165 0.666992 8.99984C0.666992 13.5832 4.41699 17.3332 9.00033 17.3332C13.5837 17.3332 17.3337 13.5832 17.3337 8.99984C17.3337 4.4165 13.5837 0.666504 9.00033 0.666504ZM9.00033 15.6665C5.32533 15.6665 2.33366 12.6748 2.33366 8.99984C2.33366 5.32484 5.32533 2.33317 9.00033 2.33317C12.6753 2.33317 15.667 5.32484 15.667 8.99984C15.667 12.6748 12.6753 15.6665 9.00033 15.6665ZM9.41699 4.83317H8.16699V9.83317L12.5003 12.4998L13.167 11.4165L9.41699 9.1665V4.83317Z" fill="#475467"/>
</svg>
