<svg width="200" height="200" viewBox="0 0 200 200" fill="none" xmlns="http://www.w3.org/2000/svg">
<rect width="200" height="200" rx="11" fill="#FFE4BF"/>
<path fill-rule="evenodd" clip-rule="evenodd" d="M132.466 87.9048C123.481 91.8509 112.531 93.8239 99.6158 93.8239L99.61 93.8181C86.6908 93.8181 75.7213 91.847 66.7018 87.9048C57.6745 83.9742 53.1628 79.1903 53.1667 73.5531C53.1705 67.9158 57.6822 63.1281 66.7018 59.1897C75.7213 55.2514 86.6908 53.2822 99.61 53.2822C112.529 53.2822 123.481 55.2514 132.466 59.1897C141.455 63.1396 145.949 67.9274 145.949 73.5531C145.949 79.1787 141.455 83.9626 132.466 87.9048ZM113.84 101.608C108.979 102.357 104.199 102.731 99.5 102.731C94.801 102.724 90.021 102.349 85.1598 101.608C80.2987 100.867 75.7484 99.7642 71.5089 98.3009C67.2694 96.8375 63.5241 95.0228 60.273 92.8567C57.022 90.6906 54.6532 88.1905 53.1667 85.3565V102.511C54.2036 104.483 55.6697 106.295 57.5651 107.947C59.2619 107.334 61.0919 107 63 107H70C77.3854 107 83.6021 112.004 85.4448 118.806C90.2078 119.526 94.8929 119.884 99.5 119.881C104.199 119.877 108.979 119.504 113.84 118.763C118.701 118.021 123.269 116.917 127.543 115.45C131.817 113.983 135.582 112.168 138.837 110.006C142.092 107.844 144.461 105.344 145.943 102.506V85.3565C144.461 88.1867 142.092 90.6848 138.837 92.8509C135.582 95.017 131.817 96.8317 127.543 98.2951C123.269 99.7584 118.701 100.863 113.84 101.608ZM74.5008 142.358C80.9035 140.485 85.6431 134.717 85.9807 127.792C90.5594 128.453 95.0658 128.787 99.5 128.794C104.199 128.794 108.979 128.419 113.84 127.67C118.701 126.925 123.269 125.821 127.543 124.358C131.817 122.894 135.582 121.079 138.837 118.913C142.092 116.747 144.461 114.249 145.943 111.419V128.458C144.461 131.296 142.092 133.796 138.837 135.958C135.582 138.12 131.817 139.935 127.543 141.402C123.269 142.87 118.701 143.974 113.84 144.715C108.979 145.457 104.199 145.829 99.5 145.833C94.801 145.837 90.021 145.464 85.1598 144.715C81.4232 144.139 77.8702 143.354 74.5008 142.358Z" fill="#FFA62B"/>
<path fill-rule="evenodd" clip-rule="evenodd" d="M57.9571 116.957C61.985 112.931 63.9975 110.917 66.5 110.917C69.0025 110.917 71.015 112.929 75.0429 116.957C79.0694 120.985 81.0833 122.998 81.0833 125.5C81.0833 128.003 79.0708 130.015 75.0429 134.043C71.015 138.07 69.0025 140.084 66.5 140.084C63.9975 140.084 61.985 138.071 57.9571 134.043C53.9306 130.015 51.9167 128.003 51.9167 125.5C51.9167 122.998 53.9292 120.985 57.9571 116.957ZM69.1921 120.326C69.0872 120.228 68.9641 120.151 68.8296 120.101C68.6951 120.05 68.552 120.026 68.4084 120.031C68.2648 120.036 68.1235 120.069 67.9926 120.128C67.8617 120.187 67.7438 120.272 67.6455 120.376C67.5473 120.481 67.4706 120.604 67.42 120.739C67.3694 120.873 67.3457 121.017 67.3504 121.16C67.355 121.304 67.388 121.445 67.4472 121.576C67.5065 121.707 67.591 121.825 67.6958 121.923L69.5669 123.677H64.556C63.7467 123.677 62.5465 123.896 61.5125 124.593C60.4217 125.33 59.5729 126.572 59.5729 128.417C59.5729 128.707 59.6881 128.985 59.8933 129.19C60.0984 129.396 60.3766 129.511 60.6667 129.511C60.9567 129.511 61.2349 129.396 61.4401 129.19C61.6452 128.985 61.7604 128.707 61.7604 128.417C61.7604 127.345 62.2081 126.765 62.7375 126.407C63.2813 126.061 63.9111 125.873 64.556 125.865H69.5669L67.6958 127.619C67.4892 127.819 67.3694 128.092 67.3623 128.379C67.3552 128.666 67.4614 128.945 67.6579 129.154C67.8544 129.364 68.1255 129.488 68.4126 129.499C68.6997 129.51 68.9797 129.408 69.1921 129.215L73.0815 125.569C73.1905 125.467 73.2774 125.343 73.3368 125.206C73.3963 125.069 73.4269 124.921 73.4269 124.771C73.4269 124.622 73.3963 124.474 73.3368 124.337C73.2774 124.199 73.1905 124.076 73.0815 123.973L69.1921 120.326Z" fill="#FFA62B"/>
</svg>
