<svg width="200" height="200" viewBox="0 0 200 200" fill="none" xmlns="http://www.w3.org/2000/svg">
<path d="M0 11C0 4.92487 4.92487 0 11 0H189C195.075 0 200 4.92487 200 11V189C200 195.075 195.075 200 189 200H11C4.92487 200 0 195.075 0 189V11Z" fill="#D6D6D6"/>
<path d="M136.547 136.547C131.509 136.547 127.412 132.443 127.412 127.406C127.412 122.374 131.509 118.27 136.547 118.27C141.585 118.27 145.682 122.374 145.682 127.406C145.682 132.443 141.585 136.547 136.547 136.547ZM136.547 112.182C132.508 112.182 128.849 113.787 126.124 116.363L113.432 106.133L33.0064 106.088L33 112.182L111.28 112.221L122.593 121.35C121.781 123.205 121.318 125.254 121.318 127.406C121.318 135.806 128.153 142.635 136.547 142.635C144.942 142.635 151.77 135.806 151.77 127.406C151.77 119.011 144.942 112.182 136.547 112.182ZM109.135 39.0944C114.173 39.0944 118.277 43.1917 118.277 48.2296C118.277 53.2675 114.173 57.3648 109.135 57.3648C104.104 57.3648 100 53.2675 100 48.2296C100 43.1917 104.104 39.0944 109.135 39.0944ZM98.1124 58.6726C100.889 61.6038 104.793 63.4528 109.135 63.4528C117.536 63.4528 124.365 56.6239 124.365 48.2296C124.365 39.8353 117.536 33 109.135 33C100.741 33 93.912 39.8353 93.912 48.2296C93.912 50.0786 94.2921 51.8244 94.8977 53.4672L87.1025 57.3648H33V63.4528H88.5391L98.1124 58.6726ZM87.8176 159.649L76.8979 148.723L87.8176 137.803L98.7438 148.723L87.8176 159.649ZM89.9758 131.348C88.7839 130.156 86.8577 130.156 85.6659 131.348L80.2092 136.805L73.8507 130.453H33V136.547H71.3317L75.8993 141.115L70.4427 146.571C69.2509 147.763 69.2509 149.69 70.4427 150.881L85.6659 166.105C86.2586 166.697 87.0381 167 87.8176 167C88.5971 167 89.3766 166.697 89.9758 166.105L105.199 150.881C106.391 149.69 106.391 147.763 105.199 146.571L89.9758 131.348ZM142.635 93.912V75.6352H160.912V93.912H142.635ZM163.953 69.5472H139.594C137.907 69.5472 136.547 70.913 136.547 72.5944V81.7296H33V87.8176H136.547V96.9528C136.547 98.6342 137.907 100 139.594 100H163.953C165.641 100 167 98.6342 167 96.9528V72.5944C167 70.913 165.641 69.5472 163.953 69.5472Z" fill="#414142"/>
</svg>
