<svg width="200" height="200" viewBox="0 0 200 200" fill="none" xmlns="http://www.w3.org/2000/svg">
<path d="M0 11C0 4.92487 4.92487 0 11 0H189C195.075 0 200 4.92487 200 11V189C200 195.075 195.075 200 189 200H11C4.92487 200 0 195.075 0 189V11Z" fill="#D6D6D6"/>
<path d="M99.6158 93.8239C112.531 93.8239 123.481 91.8509 132.466 87.9048C141.455 83.9626 145.949 79.1787 145.949 73.5531C145.949 67.9274 141.455 63.1396 132.466 59.1897C123.481 55.2514 112.529 53.2822 99.61 53.2822C86.6908 53.2822 75.7213 55.2514 66.7018 59.1897C57.6822 63.1281 53.1705 67.9158 53.1667 73.5531C53.1628 79.1903 57.6745 83.9742 66.7018 87.9048C75.7213 91.847 86.6908 93.8181 99.61 93.8181M99.5 102.731C104.199 102.731 108.979 102.357 113.84 101.608C118.701 100.863 123.269 99.7584 127.543 98.2951C131.817 96.8317 135.582 95.017 138.837 92.8509C142.092 90.6848 144.461 88.1867 145.943 85.3565V102.506C144.461 105.344 142.092 107.844 138.837 110.006C135.582 112.168 131.817 113.983 127.543 115.45C123.269 116.917 118.701 118.021 113.84 118.763C108.979 119.504 104.199 119.877 99.5 119.881C94.801 119.884 90.021 119.512 85.1598 118.763C80.2987 118.014 75.7484 116.909 71.5089 115.45C67.2694 113.99 63.5241 112.176 60.273 110.006C57.022 107.836 54.6532 105.338 53.1667 102.511V85.3565C54.6532 88.1905 57.022 90.6906 60.273 92.8567C63.5241 95.0228 67.2694 96.8375 71.5089 98.3009C75.7484 99.7642 80.2987 100.867 85.1598 101.608C90.021 102.349 94.801 102.724 99.5 102.731ZM99.5 128.794C104.199 128.794 108.979 128.419 113.84 127.67C118.701 126.925 123.269 125.821 127.543 124.358C131.817 122.894 135.582 121.079 138.837 118.913C142.092 116.747 144.461 114.249 145.943 111.419V128.458C144.461 131.296 142.092 133.796 138.837 135.958C135.582 138.12 131.817 139.935 127.543 141.402C123.269 142.87 118.701 143.974 113.84 144.715C108.979 145.457 104.199 145.829 99.5 145.833C94.801 145.837 90.021 145.464 85.1598 144.715C80.2987 143.966 75.7484 142.862 71.5089 141.402C67.2694 139.943 63.5241 138.128 60.273 135.958C57.022 133.788 54.6532 131.288 53.1667 128.458V111.419C54.6532 114.253 57.022 116.753 60.273 118.919C63.5241 121.085 67.2694 122.9 71.5089 124.363C75.7484 125.827 80.2987 126.929 85.1598 127.67C90.021 128.412 94.801 128.786 99.5 128.794Z" fill="#494949"/>
</svg>
