<svg width="638" height="638" viewBox="0 0 638 638" fill="none" xmlns="http://www.w3.org/2000/svg">
<path d="M526.901 318.824C526.901 325.247 526.583 331.613 526.033 337.92H407.454L398.401 319.547L333.993 448.159L280.69 294.404L244.364 414.451L195.804 337.92H112.163C111.613 331.613 111.295 325.247 111.295 318.824C111.295 312.401 111.613 306.006 112.163 299.699H216.888L232.043 323.598L278.376 170.711L340.413 350.102L398.691 233.642L431.083 299.699H525.946C526.525 306.006 526.901 312.487 526.901 318.824Z" fill="#444444"/>
<path d="M354.788 51.3578C354.603 62.3172 351.09 72.961 344.716 81.8757C338.341 90.7904 329.407 97.5542 319.099 101.269C290.535 101.269 262.251 106.898 235.862 117.834C209.472 128.771 185.495 144.8 165.299 165.008C145.102 185.215 129.083 209.205 118.154 235.607C107.226 262.009 101.603 290.305 101.607 318.881C97.9087 308.408 91.0551 299.34 81.9906 292.926C72.9261 286.513 62.0966 283.068 50.994 283.068C39.8913 283.068 29.0618 286.513 19.9973 292.926C10.9328 299.34 4.07928 308.408 0.380871 318.881C0.369473 277.004 8.60535 235.536 24.618 196.844C40.6307 158.152 64.1064 122.996 93.704 93.383C123.302 63.7702 158.441 40.2814 197.115 24.2585C235.789 8.23553 277.24 -0.00759784 319.099 5.25476e-06C329.638 3.7992 338.735 10.7836 345.13 19.9855C351.524 29.1874 354.9 40.1512 354.788 51.3578Z" fill="url(#paint0_linear_401_3133)"/>
<path d="M637.76 318.823C634.061 329.296 627.208 338.364 618.143 344.778C609.079 351.192 598.249 354.636 587.147 354.636C576.044 354.636 565.214 351.192 556.15 344.778C547.085 338.364 540.232 329.296 536.533 318.823C536.518 261.134 513.606 205.812 472.833 165.016C432.061 124.221 376.765 101.292 319.1 101.269C329.568 97.5689 338.632 90.7125 345.044 81.6442C351.455 72.5759 354.897 61.7418 354.897 50.6345C354.897 39.5271 351.455 28.6931 345.044 19.6247C338.632 10.5564 329.568 3.69997 319.1 0C360.949 -1.7244e-07 402.389 8.24682 441.052 24.2696C479.716 40.2923 514.846 63.7771 544.437 93.383C574.027 122.989 597.499 158.136 613.511 196.817C629.524 235.498 637.763 276.956 637.76 318.823Z" fill="url(#paint1_linear_401_3133)"/>
<path d="M637.759 318.824C637.763 360.689 629.523 402.146 613.51 440.825C597.497 479.505 574.025 514.65 544.434 544.254C514.843 573.857 479.712 597.339 441.049 613.359C402.386 629.379 360.947 637.622 319.099 637.618C308.63 633.918 299.566 627.062 293.155 617.993C286.743 608.925 283.301 598.091 283.301 586.984C283.301 575.876 286.743 565.042 293.155 555.974C299.566 546.906 308.63 540.049 319.099 536.349C347.662 536.353 375.947 530.728 402.338 519.795C428.729 508.862 452.708 492.836 472.907 472.631C493.106 452.426 509.129 428.438 520.061 402.038C530.993 375.638 536.619 347.342 536.619 318.766C540.318 329.239 547.171 338.307 556.236 344.721C565.3 351.134 576.13 354.579 587.232 354.579C598.335 354.579 609.165 351.134 618.229 344.721C627.294 338.307 634.147 329.239 637.845 318.766L637.759 318.824Z" fill="url(#paint2_linear_401_3133)"/>
<path d="M319.1 637.618C234.586 637.618 153.533 604.031 93.7728 544.246C34.0125 484.46 0.439453 403.373 0.439453 318.824C4.13786 308.351 10.9914 299.283 20.0559 292.869C29.1204 286.455 39.9499 283.011 51.0526 283.011C62.1552 283.011 72.9847 286.455 82.0492 292.869C91.1137 299.283 97.9672 308.351 101.666 318.824C101.666 376.53 124.58 431.874 165.367 472.678C185.563 492.883 209.54 508.91 235.927 519.845C262.314 530.779 290.596 536.407 319.157 536.407C308.689 540.107 299.625 546.964 293.213 556.032C286.802 565.1 283.36 575.934 283.36 587.042C283.36 598.149 286.802 608.983 293.213 618.051C299.625 627.12 308.689 633.976 319.157 637.676L319.1 637.618Z" fill="url(#paint3_linear_401_3133)"/>
<defs>
<linearGradient id="paint0_linear_401_3133" x1="0.438715" y1="159.397" x2="354.788" y2="159.397" gradientUnits="userSpaceOnUse">
<stop stop-color="#D1C6E0"/>
<stop offset="0.35" stop-color="#9274B2"/>
<stop offset="0.71" stop-color="#652F8D"/>
<stop offset="1" stop-color="#2B1143"/>
</linearGradient>
<linearGradient id="paint1_linear_401_3133" x1="319.1" y1="177.25" x2="637.76" y2="177.25" gradientUnits="userSpaceOnUse">
<stop offset="0.01" stop-color="#82C2DF"/>
<stop offset="0.3" stop-color="#3CAFD9"/>
<stop offset="0.59" stop-color="#0379B8"/>
<stop offset="0.7" stop-color="#006DAC"/>
<stop offset="0.73" stop-color="#006AA9"/>
<stop offset="0.91" stop-color="#334C84"/>
<stop offset="1" stop-color="#3A447A"/>
</linearGradient>
<linearGradient id="paint2_linear_401_3133" x1="283.409" y1="478.221" x2="637.759" y2="478.221" gradientUnits="userSpaceOnUse">
<stop stop-color="#712C71"/>
<stop offset="0.12" stop-color="#8F286E"/>
<stop offset="0.38" stop-color="#DB1D65"/>
<stop offset="0.43" stop-color="#EA1B63"/>
<stop offset="0.98" stop-color="#F79E1E"/>
</linearGradient>
<linearGradient id="paint3_linear_401_3133" x1="0.439453" y1="460.369" x2="319.1" y2="460.369" gradientUnits="userSpaceOnUse">
<stop stop-color="#931B1E"/>
<stop offset="0.32" stop-color="#ED4725"/>
<stop offset="0.38" stop-color="#EE5F26"/>
<stop offset="0.53" stop-color="#F08F27"/>
<stop offset="0.74" stop-color="#F5C321"/>
<stop offset="0.88" stop-color="#F8D718"/>
<stop offset="1" stop-color="#F6DF65"/>
</linearGradient>
</defs>
</svg>
