<svg width="32" height="32" viewBox="0 0 32 32" fill="none" xmlns="http://www.w3.org/2000/svg">
<rect width="32" height="32" rx="8" fill="#FDD7D7"/>
<path d="M9 15.6405C9.959 15.6405 10.055 15.113 10.055 14.6815C10.047 14.3123 10.0149 13.944 9.959 13.579C9.9056 13.2137 9.87355 12.8455 9.863 12.4765C9.863 11.2765 10.678 10.7505 11.781 10.7505H12.0685V11.469H11.829C11.062 11.469 10.774 11.8525 10.774 12.5715C10.7839 12.893 10.816 13.2134 10.87 13.5305C10.9262 13.8634 10.9583 14.1999 10.966 14.5375C10.966 15.4005 10.6305 15.784 10.007 15.976V16.026C10.5825 16.17 10.966 16.6015 10.966 17.4645C10.9583 17.802 10.9262 18.1386 10.87 18.4715C10.8143 18.7883 10.7822 19.1089 10.774 19.4305C10.774 20.1495 11.0615 20.5805 11.829 20.5805H12.0685V21.3H11.781C10.6785 21.3 9.863 20.8205 9.863 19.478C9.87355 19.1089 9.9056 18.7408 9.959 18.3755C10.0143 18.0263 10.0463 17.6739 10.055 17.3205C10.055 16.889 9.911 16.3615 9 16.3615V15.6405Z" fill="#C41718"/>
<path d="M12.7395 17.031L12.1165 18.9H11.3L13.315 12.9555H14.226L16.2395 18.9H15.4725L14.85 17.031H12.7395ZM14.7055 16.4555L14.13 14.7295C13.9899 14.375 13.8933 14.0048 13.8425 13.627C13.7465 13.9625 13.6505 14.346 13.555 14.682L12.9795 16.4075H14.7055V16.4555ZM16.959 17.9895C17.384 18.2297 17.8616 18.3614 18.3495 18.373C19.1165 18.373 19.596 17.9415 19.596 17.366C19.596 16.7905 19.2605 16.503 18.4935 16.166C17.5345 15.8305 16.9115 15.303 16.9115 14.488C16.9115 13.577 17.6785 12.858 18.8295 12.858C19.2788 12.839 19.7251 12.9381 20.124 13.1455L19.932 13.769C19.5704 13.6073 19.1782 13.5256 18.782 13.5295C17.967 13.5295 17.6795 14.009 17.6795 14.4405C17.6795 15.016 18.063 15.2555 18.8795 15.5905C19.8865 15.974 20.4135 16.4535 20.4135 17.3165C20.4135 18.2275 19.7425 19.0425 18.352 19.0425C17.8151 19.0592 17.284 18.9265 16.818 18.659L16.959 17.9895Z" fill="#C41718"/>
<path d="M23 16.3115C22.041 16.3115 21.945 16.887 21.945 17.2705C21.9537 17.6239 21.9857 17.9763 22.041 18.3255C22.0984 18.6903 22.1305 19.0587 22.137 19.428C22.137 20.7705 21.322 21.25 20.219 21.25H19.9315V20.531H20.171C20.89 20.531 21.226 20.0995 21.226 19.381C21.2178 19.0593 21.1857 18.7388 21.13 18.422C21.0738 18.089 21.0417 17.7525 21.034 17.415C21.034 16.552 21.4175 16.1205 21.993 15.9765V15.9265C21.4175 15.7825 21.034 15.351 21.034 14.488C21.0417 14.1504 21.0738 13.8139 21.13 13.481C21.1857 13.1641 21.2178 12.8436 21.226 12.522C21.226 11.803 20.9385 11.4195 20.171 11.372H19.9315V10.7H20.219C21.3215 10.7 22.137 11.2275 22.137 12.426C22.129 12.7951 22.0969 13.1634 22.041 13.5285C21.9851 13.8935 21.953 14.2618 21.945 14.631C21.945 15.1105 22.089 15.59 23 15.59V16.3115Z" fill="#C41718"/>
</svg>
