<svg width="32" height="32" viewBox="0 0 32 32" fill="none" xmlns="http://www.w3.org/2000/svg">
<rect width="32" height="32" rx="8" fill="#FFFCE6"/>
<path d="M18.0647 11.9359C17.4585 11.3296 16.6861 10.9166 15.8452 10.7494C15.0043 10.5822 14.1327 10.6682 13.3406 10.9965C12.5486 11.3248 11.8718 11.8807 11.3958 12.5938C10.9198 13.3069 10.6661 14.1452 10.6667 15.0026L10.6673 15.6693H9.334V15.0026C9.33365 14.0989 9.54945 13.2082 9.96339 12.4048C10.3773 11.6015 10.9774 10.9088 11.7135 10.3846C12.4497 9.86035 13.3005 9.51978 14.195 9.3913C15.0896 9.26282 16.0019 9.35015 16.8558 9.64601C17.7097 9.94186 18.4805 10.4377 19.1038 11.092C19.7271 11.7464 20.1849 12.5403 20.4389 13.4076C20.6929 14.2749 20.7358 15.1904 20.564 16.0776C20.3922 16.9648 20.0107 17.7981 19.4513 18.5079L23.014 22.0713L22.0713 23.0139L18.5087 19.4506C17.5094 20.2394 16.2731 20.6679 15 20.6666H14.3333V19.3333H15C15.857 19.3332 16.6948 19.079 17.4073 18.6029C18.1199 18.1267 18.6753 17.45 19.0032 16.6582C19.3312 15.8664 19.417 14.9952 19.2498 14.1546C19.0826 13.3141 18.67 12.542 18.064 11.9359M9.11466 16.8379L11 18.7239L12.886 16.8379L13.8287 17.7813L11.9433 19.6666L13.8287 21.5519L12.886 22.4953L11 20.6093L9.11466 22.4953L8.172 21.5519L10.0573 19.6666L8.172 17.7813L9.11466 16.8379Z" fill="#AD972B"/>
</svg>
