<svg width="33" height="33" viewBox="0 0 33 33" fill="none" xmlns="http://www.w3.org/2000/svg">
<rect width="33" height="33" rx="8" fill="#E6FAFF"/>
<g clip-path="url(#clip0_320_6269)">
<path d="M16.4791 21.024C16.6829 21.024 16.8269 20.91 16.8269 20.7063C16.8269 20.6163 16.8029 20.5683 16.7369 20.4423C16.0054 19.3094 15.5917 18.0086 15.5917 16.5997C15.5917 15.2389 15.9814 13.878 16.7369 12.7391C16.8026 12.6134 16.8269 12.5654 16.8269 12.4754C16.8269 12.2834 16.6829 12.1577 16.4791 12.1577C16.2811 12.1577 16.1191 12.2474 15.9277 12.5114C15.0283 13.6563 14.5729 15.0829 14.5729 16.5937C14.5729 18.1046 15.0103 19.4891 15.9274 20.6703C16.1194 20.934 16.2814 21.024 16.4791 21.024ZM22.5994 21.024C22.7971 21.024 22.9531 20.934 23.1451 20.6703C24.0623 19.4891 24.5 18.1046 24.5 16.5937C24.5 15.0831 24.0503 13.6566 23.1451 12.5114C22.9534 12.2474 22.7974 12.1577 22.5997 12.1577C22.396 12.1577 22.252 12.2834 22.252 12.4754C22.252 12.5654 22.27 12.6131 22.336 12.7391C23.0974 13.878 23.4869 15.2391 23.4869 16.5997C23.4869 18.0083 23.0674 19.3094 22.342 20.4426C22.27 20.5683 22.252 20.6163 22.252 20.7063C22.252 20.898 22.3957 21.024 22.5994 21.024ZM9.30943 21.012C10.4843 21.012 11.0297 20.5083 11.3114 19.1594L11.9949 15.8803H13.08C13.4277 15.8803 13.6494 15.6946 13.6494 15.3946C13.6494 15.1371 13.4817 14.9751 13.206 14.9751H12.1929L12.3606 14.16C12.5166 13.3986 12.7563 13.0869 13.4217 13.0869C13.5177 13.0869 13.6134 13.0809 13.6794 13.0749C13.9794 13.0449 14.1109 12.9069 14.1109 12.6491C14.1109 12.3134 13.8294 12.1634 13.2537 12.1634C12.1089 12.1634 11.5214 12.7331 11.2577 14.016L11.0537 14.9751H10.3103C9.96286 14.9751 9.73486 15.1609 9.73486 15.4609C9.73486 15.7186 9.90886 15.8803 10.1846 15.8803H10.8617L10.2029 19.0157C10.0343 19.8009 9.78857 20.0886 9.14743 20.0886C9.06343 20.0886 8.98571 20.0946 8.92571 20.1006C8.65 20.1366 8.5 20.2863 8.5 20.5383C8.5 20.862 8.77571 21.012 9.30943 21.012ZM17.732 19.4351C17.9297 19.4351 18.0617 19.3694 18.2114 19.1534L19.5243 17.2831H19.5483L20.8911 19.1834C21.0411 19.3934 21.1849 19.4351 21.3289 19.4351C21.6166 19.4351 21.8086 19.2314 21.8086 18.9857C21.8086 18.8717 21.7726 18.764 21.6943 18.662L20.16 16.5757L21.6943 14.5197C21.7726 14.4177 21.8086 14.3097 21.8086 14.184C21.8086 13.926 21.5926 13.7463 21.3529 13.7463C21.1371 13.7463 21.0111 13.8543 20.8971 14.028L19.6323 15.8803H19.6023L18.3314 14.022C18.2174 13.848 18.0737 13.7463 17.8457 13.7463C17.57 13.7463 17.36 13.968 17.36 14.2077C17.36 14.3817 17.4083 14.4897 17.4923 14.5914L18.9489 16.5457L17.4023 18.6857C17.3123 18.8 17.2943 18.9017 17.2943 19.0217C17.2943 19.2554 17.4923 19.4351 17.732 19.4351Z" fill="black"/>
</g>
<defs>
<clipPath id="clip0_320_6269">
<rect width="16" height="16" fill="white" transform="translate(8.5 8.5)"/>
</clipPath>
</defs>
</svg>
