<svg width="32" height="32" viewBox="0 0 32 32" fill="none" xmlns="http://www.w3.org/2000/svg">
<rect width="32" height="32" rx="8" fill="#FDD7D7"/>
<path d="M9.43644 22C9.02696 22 8.68533 21.868 8.41156 21.604C8.13778 21.34 8.00059 21.0103 8 20.6149V18.8029H8.88889V20.6157C8.88889 20.7477 8.94578 20.8689 9.05956 20.9791C9.17333 21.0894 9.29867 21.1443 9.43556 21.1437H22.5644C22.7007 21.1437 22.8261 21.0889 22.9404 20.9791C23.0548 20.8694 23.1117 20.7483 23.1111 20.6157V11.3851C23.1111 11.2531 23.0542 11.132 22.9404 11.0217C22.8267 10.9114 22.7013 10.8566 22.5644 10.8571H9.43556C9.29926 10.8571 9.17393 10.912 9.05956 11.0217C8.94519 11.1314 8.8883 11.2526 8.88889 11.3851V13.1971H8V11.3851C8 10.9903 8.13719 10.6609 8.41156 10.3969C8.68593 10.1329 9.02726 10.0006 9.43556 10H22.5644C22.9733 10 23.3147 10.1323 23.5884 10.3969C23.8622 10.6614 23.9994 10.9909 24 11.3851V20.6157C24 21.01 23.8628 21.3394 23.5884 21.604C23.3141 21.8686 22.9727 22.0006 22.5644 22H9.43644ZM15.8978 18.934L15.2684 18.3169L17.2329 16.4286H8V15.5714H17.2329L15.2684 13.6823L15.8978 13.066L18.9404 16L15.8978 18.934Z" fill="#D62020"/>
</svg>
