<svg width="24" height="24" viewBox="0 0 24 24" fill="none" xmlns="http://www.w3.org/2000/svg">
<path fill-rule="evenodd" clip-rule="evenodd" d="M9.65407 11.1628V12.8372C9.65407 13.3368 9.85253 13.8159 10.2058 14.1692C10.5591 14.5225 11.0382 14.7209 11.5378 14.7209H13.2122C13.7118 14.7209 14.1909 14.5225 14.5442 14.1692C14.8975 13.8159 15.0959 13.3368 15.0959 12.8372V11.1628C15.0959 10.6632 14.8975 10.1841 14.5442 9.8308C14.1909 9.47753 13.7118 9.27907 13.2122 9.27907H11.5378C11.0382 9.27907 10.5591 9.47753 10.2058 9.8308C9.85253 10.1841 9.65407 10.6632 9.65407 11.1628ZM3.375 4.88372V6.55814C3.375 7.05773 3.57346 7.53686 3.92673 7.89013C4.28 8.2434 4.75913 8.44186 5.25872 8.44186H6.93314C7.43273 8.44186 7.91186 8.2434 8.26513 7.89013C8.6184 7.53686 8.81686 7.05773 8.81686 6.55814V4.88372C8.81686 4.38413 8.6184 3.905 8.26513 3.55173C7.91186 3.19846 7.43273 3 6.93314 3H5.25872C4.75913 3 4.28 3.19846 3.92673 3.55173C3.57346 3.905 3.375 4.38413 3.375 4.88372ZM15.9331 17.4419V19.1163C15.9331 19.6159 16.1316 20.095 16.4849 20.4483C16.8381 20.8015 17.3173 21 17.8169 21H19.4913C19.9909 21 20.47 20.8015 20.8233 20.4483C21.1765 20.095 21.375 19.6159 21.375 19.1163V17.4419C21.375 16.9423 21.1765 16.4631 20.8233 16.1099C20.47 15.7566 19.9909 15.5581 19.4913 15.5581H17.8169C17.3173 15.5581 16.8381 15.7566 16.4849 16.1099C16.1316 16.4631 15.9331 16.9423 15.9331 17.4419Z" fill="#DB2777"/>
<path fill-rule="evenodd" clip-rule="evenodd" d="M8.18895 6.34883H19.0727C19.3501 6.34927 19.616 6.45967 19.8122 6.65584C20.0083 6.852 20.1187 7.11793 20.1192 7.39534V10.3256C20.1187 10.603 20.0083 10.8689 19.8122 11.0651C19.616 11.2612 19.3501 11.3716 19.0727 11.3721H16.561C16.3945 11.3721 16.2348 11.4382 16.117 11.556C15.9993 11.6738 15.9331 11.8335 15.9331 12C15.9331 12.1665 15.9993 12.3262 16.117 12.444C16.2348 12.5617 16.3945 12.6279 16.561 12.6279H19.0727C19.683 12.6279 20.269 12.3851 20.701 11.9539C21.1324 11.5218 21.3747 10.9362 21.375 10.3256V7.39534C21.375 6.78502 21.1322 6.19897 20.701 5.76697C20.2689 5.33564 19.6833 5.09327 19.0727 5.09302H8.18895C8.02242 5.09302 7.86271 5.15917 7.74496 5.27693C7.6272 5.39468 7.56105 5.55439 7.56105 5.72092C7.56105 5.88746 7.6272 6.04717 7.74496 6.16492C7.86271 6.28268 8.02242 6.34883 8.18895 6.34883ZM13.2122 17.6512H5.67733C5.39991 17.6507 5.13398 17.5403 4.93782 17.3442C4.74166 17.148 4.63126 16.8821 4.63081 16.6046V13.6744C4.63126 13.397 4.74166 13.1311 4.93782 12.9349C5.13398 12.7387 5.39991 12.6283 5.67733 12.6279H10.282C10.4485 12.6279 10.6082 12.5617 10.726 12.444C10.8437 12.3262 10.9099 12.1665 10.9099 12C10.9099 11.8335 10.8437 11.6738 10.726 11.556C10.6082 11.4382 10.4485 11.3721 10.282 11.3721H5.67733C5.067 11.3721 4.48095 11.6149 4.04895 12.046C3.61762 12.4782 3.37526 13.0638 3.375 13.6744V16.6046C3.375 17.215 3.61779 17.801 4.04895 18.233C4.48114 18.6644 5.06672 18.9067 5.67733 18.907H13.2122C13.3787 18.907 13.5385 18.8408 13.6562 18.7231C13.774 18.6053 13.8401 18.4456 13.8401 18.2791C13.8401 18.1125 13.774 17.9528 13.6562 17.8351C13.5385 17.7173 13.3787 17.6512 13.2122 17.6512Z" fill="#DB2777"/>
<path fill-rule="evenodd" clip-rule="evenodd" d="M18.6793 13.2307L17.4494 12L18.6793 10.7693C18.7375 10.711 18.7838 10.6418 18.8153 10.5657C18.8468 10.4896 18.8631 10.408 18.8631 10.3256C18.8631 10.2432 18.8468 10.1616 18.8153 10.0854C18.7838 10.0093 18.7375 9.94013 18.6793 9.88185C18.621 9.82358 18.5518 9.77736 18.4757 9.74583C18.3995 9.71429 18.3179 9.69806 18.2355 9.69806C18.1531 9.69806 18.0715 9.71429 17.9954 9.74583C17.9193 9.77736 17.8501 9.82358 17.7918 9.88185L16.1174 11.5563C16.0591 11.6145 16.0128 11.6837 15.9812 11.7598C15.9497 11.836 15.9334 11.9176 15.9334 12C15.9334 12.0824 15.9497 12.164 15.9812 12.2402C16.0128 12.3163 16.0591 12.3855 16.1174 12.4437L17.7918 14.1181C17.8501 14.1764 17.9193 14.2226 17.9954 14.2542C18.0715 14.2857 18.1531 14.3019 18.2355 14.3019C18.3179 14.3019 18.3995 14.2857 18.4757 14.2542C18.5518 14.2226 18.621 14.1764 18.6793 14.1181C18.7375 14.0599 18.7838 13.9907 18.8153 13.9146C18.8468 13.8384 18.8631 13.7568 18.8631 13.6744C18.8631 13.592 18.8468 13.5104 18.8153 13.4343C18.7838 13.3581 18.7375 13.289 18.6793 13.2307ZM12.8188 20.3972L14.4932 18.7228C14.5515 18.6645 14.5978 18.5954 14.6294 18.5192C14.6609 18.4431 14.6772 18.3615 14.6772 18.2791C14.6772 18.1966 14.6609 18.115 14.6294 18.0389C14.5978 17.9628 14.5515 17.8936 14.4932 17.8353L12.8188 16.1609C12.7011 16.0432 12.5415 15.9771 12.3751 15.9771C12.2086 15.9771 12.049 16.0432 11.9314 16.1609C11.8137 16.2786 11.7476 16.4382 11.7476 16.6046C11.7476 16.7711 11.8137 16.9307 11.9314 17.0484L13.1612 18.2791L11.9314 19.5098C11.8731 19.568 11.8269 19.6372 11.7953 19.7133C11.7638 19.7895 11.7476 19.8711 11.7476 19.9535C11.7476 20.0359 11.7638 20.1175 11.7953 20.1936C11.8269 20.2698 11.8731 20.3389 11.9314 20.3972C11.9896 20.4555 12.0588 20.5017 12.1349 20.5332C12.2111 20.5648 12.2927 20.581 12.3751 20.581C12.4575 20.581 12.5391 20.5648 12.6152 20.5332C12.6913 20.5017 12.7605 20.4555 12.8188 20.3972Z" fill="#DB2777"/>
</svg>
