<svg width="33" height="33" viewBox="0 0 33 33" fill="none" xmlns="http://www.w3.org/2000/svg">
<rect width="33" height="33" rx="8" fill="#E6FAFF"/>
<path d="M23.1562 19.8438V15.1562H20.5V19.8438H23.1562ZM23.8438 13.8438C24.0312 13.8438 24.1875 13.9062 24.3125 14.0312C24.4375 14.1562 24.5 14.3125 24.5 14.5V21.1562C24.5 21.3438 24.4375 21.5104 24.3125 21.6562C24.1875 21.7812 24.0312 21.8438 23.8438 21.8438H19.8438C19.6562 21.8438 19.4896 21.7812 19.3438 21.6562C19.2188 21.5104 19.1562 21.3438 19.1562 21.1562V14.5C19.1562 14.3125 19.2188 14.1562 19.3438 14.0312C19.4896 13.9062 19.6562 13.8438 19.8438 13.8438H23.8438ZM11.1562 12.5V19.8438H17.8438V21.8438H8.5V19.8438H9.84375V12.5C9.84375 12.1458 9.96875 11.8333 10.2188 11.5625C10.4896 11.2917 10.8021 11.1562 11.1562 11.1562H23.1562V12.5H11.1562Z" fill="#237AB3"/>
</svg>
