<svg width="32" height="32" viewBox="0 0 32 32" fill="none" xmlns="http://www.w3.org/2000/svg">
<rect width="32" height="32" rx="8" fill="#FFFCE6"/>
<path d="M16.9766 22.625V17.69C16.7251 17.6889 16.4743 17.6667 16.2266 17.6236V22.25H14.7266V17.0656C14.4566 16.9044 14.2053 16.7146 13.9766 16.5013V22.625C13.9766 22.7245 14.0161 22.8198 14.0864 22.8902C14.1567 22.9605 14.2521 23 14.3516 23H16.6016C16.701 23 16.7964 22.9605 16.8667 22.8902C16.9371 22.8198 16.9766 22.7245 16.9766 22.625ZM16.9766 15.5082C16.7207 15.5062 16.4671 15.4606 16.2266 15.3733V14.75H15.3131C15.1196 14.5309 14.9707 14.2761 14.8747 14H16.6016C16.701 14 16.7964 14.0395 16.8667 14.1098C16.9371 14.1802 16.9766 14.2755 16.9766 14.375V15.5082Z" fill="#917C13"/>
<path fill-rule="evenodd" clip-rule="evenodd" d="M17.2462 16.7778C16.9683 16.7771 16.6913 16.7502 16.4192 16.6973V16.6918C14.554 16.3251 13.1527 14.7696 13.1527 12.9064C13.1527 10.7702 14.9939 9.03889 17.2648 9.03889C19.5356 9.03889 21.3768 10.7706 21.3768 12.9064C21.3782 13.7055 21.1152 14.4852 20.6243 15.1374L20.6036 15.1643L22.9766 17.3957L22.3572 17.9779L20.0185 15.7787L19.9896 15.8028C19.2387 16.4299 18.2689 16.7755 17.2648 16.7739H17.2462V16.7778ZM20.5011 12.9064C20.5011 13.7137 20.1601 14.4879 19.5532 15.0587C18.9462 15.6295 18.1231 15.9502 17.2648 15.9502C16.4064 15.9502 15.5833 15.6295 14.9763 15.0587C14.3694 14.4879 14.0285 13.7137 14.0285 12.9064C14.0285 12.0991 14.3694 11.3249 14.9763 10.7541C15.5833 10.1832 16.4064 9.86256 17.2648 9.86256C18.1231 9.86256 18.9462 10.1832 19.5532 10.7541C20.1601 11.3249 20.5011 12.0991 20.5011 12.9064ZM9.39004 9C9.28038 9 9.17521 9.04097 9.09767 9.1139C9.02013 9.18683 8.97656 9.28575 8.97656 9.38889V22.6111C8.97656 22.7143 9.02013 22.8132 9.09767 22.8861C9.17521 22.959 9.28038 23 9.39004 23H11.8709C11.9806 23 12.0858 22.959 12.1633 22.8861C12.2408 22.8132 12.2844 22.7143 12.2844 22.6111V9.38889C12.2844 9.28575 12.2408 9.18683 12.1633 9.1139C12.0858 9.04097 11.9806 9 11.8709 9H9.39004ZM9.80352 22.2222V9.77778H11.4574V22.2222H9.80352ZM18.9001 19.1111C18.9001 19.008 18.9436 18.9091 19.0212 18.8361C19.0987 18.7632 19.2039 18.7222 19.3135 18.7222H21.7944C21.9041 18.7222 22.0093 18.7632 22.0868 18.8361C22.1643 18.9091 22.2079 19.008 22.2079 19.1111V22.6111C22.2079 22.7143 22.1643 22.8132 22.0868 22.8861C22.0093 22.959 21.9041 23 21.7944 23H19.3135C19.2039 23 19.0987 22.959 19.0212 22.8861C18.9436 22.8132 18.9001 22.7143 18.9001 22.6111V19.1111ZM19.727 19.5V22.2222H21.3809V19.5H19.727Z" fill="#917C13"/>
</svg>
