<svg width="32" height="32" viewBox="0 0 32 32" fill="none" xmlns="http://www.w3.org/2000/svg">
<rect width="32" height="32" rx="8" fill="#FFFCE6"/>
<path d="M17 21.6667V17.28C16.7766 17.279 16.5536 17.2593 16.3334 17.221V21.3333H15V16.725C14.76 16.5817 14.5367 16.413 14.3334 16.2233V21.6667C14.3334 21.7551 14.3685 21.8399 14.431 21.9024C14.4935 21.9649 14.5783 22 14.6667 22H16.6667C16.7551 22 16.8399 21.9649 16.9024 21.9024C16.9649 21.8399 17 21.7551 17 21.6667ZM17 15.3407C16.7726 15.3389 16.5472 15.2983 16.3334 15.2207V14.6667H15.5214C15.3494 14.4719 15.2171 14.2454 15.1317 14H16.6667C16.7551 14 16.8399 14.0351 16.9024 14.0976C16.9649 14.1601 17 14.2449 17 14.3333V15.3407Z" fill="black"/>
<path fill-rule="evenodd" clip-rule="evenodd" d="M17 16.6667C16.7761 16.6661 16.5527 16.643 16.3334 16.5977V16.593C14.8297 16.2787 13.7 14.9453 13.7 13.3483C13.7 11.5173 15.1844 10.0333 17.015 10.0333C18.8457 10.0333 20.33 11.5177 20.33 13.3483C20.3312 14.0333 20.1192 14.7016 19.7234 15.2607L19.7067 15.2837L21.6197 17.1963L21.1204 17.6953L19.235 15.8103L19.2117 15.831C18.6064 16.3685 17.8246 16.6647 17.015 16.6633H17V16.6667ZM19.624 13.3483C19.624 14.0403 19.3492 14.7039 18.8599 15.1932C18.3706 15.6825 17.707 15.9573 17.015 15.9573C16.3231 15.9573 15.6595 15.6825 15.1702 15.1932C14.6809 14.7039 14.406 14.0403 14.406 13.3483C14.406 12.6564 14.6809 11.9928 15.1702 11.5035C15.6595 11.0142 16.3231 10.7393 17.015 10.7393C17.707 10.7393 18.3706 11.0142 18.8599 11.5035C19.3492 11.9928 19.624 12.6564 19.624 13.3483ZM10.6667 10C10.5783 10 10.4935 10.0351 10.431 10.0976C10.3685 10.1601 10.3334 10.2449 10.3334 10.3333V21.6667C10.3334 21.7551 10.3685 21.8399 10.431 21.9024C10.4935 21.9649 10.5783 22 10.6667 22H12.6667C12.7551 22 12.8399 21.9649 12.9024 21.9024C12.9649 21.8399 13 21.7551 13 21.6667V10.3333C13 10.2449 12.9649 10.1601 12.9024 10.0976C12.8399 10.0351 12.7551 10 12.6667 10H10.6667ZM11 21.3333V10.6667H12.3334V21.3333H11ZM18.3334 18.6667C18.3334 18.5783 18.3685 18.4935 18.431 18.431C18.4935 18.3685 18.5783 18.3333 18.6667 18.3333H20.6667C20.7551 18.3333 20.8399 18.3685 20.9024 18.431C20.9649 18.4935 21 18.5783 21 18.6667V21.6667C21 21.7551 20.9649 21.8399 20.9024 21.9024C20.8399 21.9649 20.7551 22 20.6667 22H18.6667C18.5783 22 18.4935 21.9649 18.431 21.9024C18.3685 21.8399 18.3334 21.7551 18.3334 21.6667V18.6667ZM19 19V21.3333H20.3334V19H19Z" fill="black"/>
</svg>
