<svg id="Layer_1" xmlns="http://www.w3.org/2000/svg" xmlns:xlink="http://www.w3.org/1999/xlink" viewBox="0 0 8223.5 1745.7" width="8223.5" height="1745.7"><style>.st0{fill:#3d3d3d}.st1{fill:#ff8f1c}.st2{fill:#fff}</style><defs><path id="SVGID_1_" d="M7311.9 453.7h184.7v109.1h-184.7z"/></defs><use xlink:href="#SVGID_1_" overflow="visible" fill="#3d3d3d"/><clipPath id="SVGID_2_"><use xlink:href="#SVGID_1_" overflow="visible"/></clipPath><path class="st0" d="M2486.6 1116.9c-41.3-54.6-61.8-140.8-61.8-258.4 0-108.5 21.2-189.5 63.7-243.1 42.5-53.5 106.7-80.3 192.6-80.3 87.2 0 151.8 27 193.9 81.1 42.1 54 63.1 137.6 63.1 250.8 0 112.9-21.1 196.5-63.1 250.6-42.1 54.4-106.7 81.4-193.9 81.4-88.5 0-153.3-27.2-194.5-82.1m-163.5-625.3c-78.3 80.1-117.5 201.9-117.5 365.8 0 174.2 38.4 302.2 115.3 383.6 76.9 81.8 196.9 122.6 360.2 122.6 161.6 0 281.1-40.7 358.6-121.9 77.6-81.2 116.4-206.1 116.4-374.8 0-168.5-38.8-293.2-116.4-374.1-77.5-80.8-197-121.2-358.6-121.2-160.3.1-279.6 40.1-358 120M3460.8 795.1h127.1c70.5 0 119.9 14.5 148.5 43.8 28.5 29.2 42.8 79.3 42.8 150.2 0 73.4-15.6 126.1-46.7 157.6s-84 47.3-158.9 47.3h-112.8V795.1zM3276 644v953.1h184.8v-253.6h158.8c70 0 126.2-8.3 168.6-25 42.3-16.6 78.7-44.2 108.9-82.5 25.5-32 44.5-67.4 57.1-106 12.5-38.6 18.7-81.2 18.7-127.4 0-112.9-30.1-200.9-90.1-264-60.1-63.2-143.8-94.6-250.9-94.6H3276zM4310.1 644c-84.3 0-146.6 17.7-186.7 53.2-40.2 35.5-60.3 90.8-60.3 166.1 0 73.9 16.7 125.2 49.9 154.2 33.3 28.9 97.3 43.3 191.9 43.3h159.5c34.2 0 59.2 5.6 75.2 16.6 16 11.1 23.9 28.5 23.9 52.2 0 23.9-7.9 41.2-23.6 52-15.8 10.7-41 16.3-75.6 16.3h-389.7v145.6H4552c56.1 0 102.1-20.3 137.7-61 35.7-40.5 53.5-93.2 53.5-158 0-67.4-20.1-119-60.2-154.6-40.2-35.7-98.6-53.5-175.1-53.5h-167.3c-30.2 0-52.4-5-66.5-15.2-14-10.2-21-26.1-21-47.7 0-23.7 8-40.2 24.1-49.6 15.9-9.3 50.5-14 103.7-14H4707V644h-396.9zM5282.6 390.5c-153.1 0-266.2 40.2-339.4 120.6-73.2 80.4-109.9 204.7-109.9 372.9 0 86.8 12.2 161.6 36.7 224 24.4 62.5 61 113.1 109.8 152 37.2 29.8 77.1 51.2 119.6 64.2s103.7 19.3 183.2 19.3h431.2V778.1h-474v168.7h268.4v224.4h-225.6c-79 0-136.6-23.4-172.5-70-35.9-46.6-53.8-122.1-53.8-226.3 0-111.5 18-192.8 54.2-243.7 36.1-51 93.5-76.6 172.1-76.6h431.2v-164h-431.2zM6172.2 644c-115.3 0-203 29.6-262.7 88.8-59.6 59.2-89.4 146.3-89.4 261.4 0 115 29.6 201.9 89 260.9 59.4 58.9 147.2 88.4 263 88.4h269.7v-145.6H6196c-69.6 0-115.1-9.2-136.4-27.7-21.4-18.5-33-52.8-34.7-102.8h416.9V921.5H6025c1.7-49.8 14.1-84.1 37.3-103.1 23.2-19.2 68.2-28.6 135.2-28.6h244.4V644h-269.7zM6560 644v699.5h184.7V797.7h148.5c48.9 0 81.4 7.7 97.6 23.3 16.1 15.6 24.3 49.4 24.3 101.9v420.6h184.8V900.1c0-91.7-22.6-157.3-67.5-196.8-45-39.6-120-59.3-225-59.3H6560z"/><g><defs><path id="SVGID_3_" d="M7311.9 644h184.7v699.5h-184.7z"/></defs><use xlink:href="#SVGID_3_" overflow="visible" fill="#3d3d3d"/><clipPath id="SVGID_4_"><use xlink:href="#SVGID_3_" overflow="visible"/></clipPath></g><path class="st0" d="M7953.8 644c-115.4 0-203 29.6-262.6 88.8-59.6 59.2-89.4 146.3-89.4 261.4 0 115 29.7 201.9 89.2 260.9 59.3 58.9 147.1 88.4 262.9 88.4h269.7v-145.6h-245.7c-69.6 0-115-9.2-136.5-27.7-21.3-18.5-32.9-52.8-34.7-102.8h416.9V921.5h-416.9c1.8-49.8 14.1-84.1 37.4-103.1 23.1-19.2 68.2-28.6 135.1-28.6h244.5V644h-269.9z"/><g><path class="st1" d="M872.8 0C390.8 0 0 390.8 0 872.8c0 482.1 390.8 872.8 872.8 872.8 482.1 0 872.8-390.8 872.8-872.8.1-482-390.7-872.8-872.8-872.8z"/><path class="st2" d="M1200.4 417.2c9.7 202.9-153.6 297.5-153.6 297.5 8.3-184.5-127-276.3-162.1-280.5 239.2 28.4 184.6 213.7 184.6 213.7 81.6-103.6 75.1-196.3 73.8-230.9-9.3-115.4-71.3-197.6-216.3-247.4.1.1 262.7 18.8 273.6 247.6zM847.8 145c38.8-50.3 31.3-69 31.3-69 24.2 29.2 31.6 52.3 5.8 88.7-25.8 36.3 3 75.6 3 75.6-18.2-5-79.9-32.3-40.1-95.3z"/><path class="st2" d="M861.8 271.8h.9c25.9.3 46.1 35.8 45.4 79-.9 43.3-22.4 77.9-48.4 77.5-25.9-.4-46.1-35.7-45.4-79 .7-42.6 21.9-77.1 47.5-77.5zM820.9 838.7c-1.7-1-196.2-156.7-64.3-383.7 0 0-98.3 81.3-94.4 185.4-75.5-100.5-69.5-189.6-68.3-223.3 9.3-115.4 71.3-197.6 216.3-247.4 0 0-262.6 18.7-273.5 247.5-7.7 162.3 95.1 248.1 136.6 275.9 18.5 47.6 62.2 97.7 147.6 145.6zM285.6 1354.6c-76.6-121.8-173-333.4 117.4-363.1 217.4-22.3 317.7-111.6 329.4-134.9-55.6 165-271.9 157.2-394.7 216.3-109.8 52.8-52.1 281.7-52.1 281.7z"/><path class="st2" d="M407.8 1282.6c19-101.3 106-132.6 183.2-132.6 80.6 0 150.9 33.7 150.9 33.7-242.5-33.6-334.1 98.9-334.1 98.9zM614.4 1590.6l-84.7-35s184.8-25.9 347.1-157.5c0 0-84.1 153.3-262.4 192.5zM542.4 1332.4c65.1-80.3 193-134.9 340.2-134.9 143.5 0 268.7 51.9 335.2 129-85.6-50.7-203.1-82-332.9-82-134.7-.1-256.2 33.7-342.5 87.9zM1146.7 1589.3c-178.3-39.2-257.1-191.2-257.1-191.2 162.3 131.6 338.3 157.5 338.3 157.5l-81.2 33.7zM1466.5 1354.6s57.7-228.8-52.1-281.7c-122.7-59.1-339.1-51.2-394.7-216.3 11.7 23.3 112 112.6 329.4 134.9 290.3 29.7 193.9 241.3 117.4 363.1z"/></g></svg>