<svg height="15" viewBox="0 0 21 15" width="21" xmlns="http://www.w3.org/2000/svg" xmlns:xlink="http://www.w3.org/1999/xlink"><linearGradient id="a" x1="50%" x2="50%" y1="0%" y2="100%"><stop offset="0" stop-color="#fff"/><stop offset="1" stop-color="#f0f0f0"/></linearGradient><linearGradient id="b" x1="50%" x2="50%" y1="0%" y2="100%"><stop offset="0" stop-color="#dd172c"/><stop offset="1" stop-color="#c60b1f"/></linearGradient><linearGradient id="c" x1="50%" x2="50%" y1="0%" y2="100%"><stop offset="0" stop-color="#ffd133"/><stop offset="1" stop-color="#ffc500"/></linearGradient><g fill="none" fill-rule="evenodd"><path d="m0 0h21v15h-21z" fill="url(#a)"/><path d="m0 0h21v4h-21z" fill="url(#b)"/><path d="m0 11h21v4h-21z" fill="url(#b)"/><path d="m0 4h21v7h-21z" fill="url(#c)"/><path d="m5.5 7h1v.5h-1z" fill="#ffedb1"/><g fill="#a41517"><path d="m4.9150265 8.4595207c.02462415.2954898.2910658.5404793.5849735.5404793.29425164 0 .56044023-.24608006.5849735-.5404793l.12162673-1.4595207h-1.41320046zm-.62374408-1.46413172c-.02279965-.27359578.18943047-.49538898.46462988-.49538898h1.4881754c.27940765 0 .48793292.2157526.46462988.49538898l-.1254712 1.50565446c-.04597571.55170847-.5271112.99895656-1.08324638.99895656-.55228475 0-1.03688836-.44266033-1.08324638-.99895656z" fill-rule="nonzero"/><path d="m4.5 7.5h2v.5h-.5l-.5 1-.5-1h-.5z"/><path d="m3 6h1v3.5h-1z"/><path d="m7 6h1v3.5h-1z"/><path d="m4.5 5.5c0-.27614237.21403503-.5.50468445-.5h.9906311c.27872953 0 .50468445.23193359.50468445.5v.24765778c0 .13936476-.10752869.25234222-.24523926.25234222h-1.50952148c-.1354419 0-.24523926-.10701752-.24523926-.25234222z"/></g></g></svg>