<svg fill="none" height="24" viewBox="0 0 32 24" width="32" xmlns="http://www.w3.org/2000/svg" xmlns:xlink="http://www.w3.org/1999/xlink"><mask id="a" height="24" maskUnits="userSpaceOnUse" width="32" x="0" y="0"><path d="m0 0h32v24h-32z" fill="#fff"/></mask><mask id="b" height="24" maskUnits="userSpaceOnUse" width="32" x="0" y="0"><path clip-rule="evenodd" d="m0 0v24h32v-24z" fill="#fff" fill-rule="evenodd"/></mask><g mask="url(#a)"><path clip-rule="evenodd" d="m0 0v24h32v-24z" fill="#3d58db" fill-rule="evenodd"/><g mask="url(#b)"><path d="m0 5h-1v1 12 1h1 32 1v-1-12-1h-1z" fill="#c51918" stroke="#f7fcff" stroke-width="2"/><g clip-rule="evenodd" fill-rule="evenodd"><path d="m10 17c2.7614 0 5-2.2386 5-5 0-2.76142-2.2386-5-5-5-2.76142 0-5 2.23858-5 5 0 2.7614 2.23858 5 5 5z" fill="#f7fcff"/><path d="m9.99509 13.8698-2.71633 1.8902.95828-3.1675-2.63706-1.9992 3.30858-.0675 1.08653-3.12578 1.08651 3.12578 3.3086.0675-2.6371 1.9992.9583 3.1675z" fill="#c51918"/></g></g></g></svg>