<svg width="24" height="18" viewBox="0 0 24 18" fill="none" xmlns="http://www.w3.org/2000/svg">
	<rect width="24" height="17.1429" rx="0" fill="white" />
	<mask id="mask0_324_5402" style="mask-type:alpha" maskUnits="userSpaceOnUse" x="0" y="0" width="24" height="18">
		<rect width="24" height="17.1429" rx="0" fill="white" />
	</mask>
	<g mask="url(#mask0_324_5402)">
		<rect width="24" height="17.1429" fill="#E92434" />
		<path fill-rule="evenodd" clip-rule="evenodd" d="M16.3029 9.22989L15.2531 10.5027L15.3246 8.85434L13.7896 8.24921L15.3794 7.80784L15.4806 6.161L16.3917 7.53661L17.9892 7.12394L16.9624 8.41548L17.8486 9.80728L16.3029 9.22989Z" fill="white" />
		<path fill-rule="evenodd" clip-rule="evenodd" d="M14.9131 5.40968C14.1878 4.88449 13.2771 4.57183 12.2881 4.57183C9.92116 4.57183 8.00238 6.36269 8.00238 8.57183C8.00238 10.781 9.92116 12.5718 12.2881 12.5718C13.2767 12.5718 14.187 12.2594 14.9121 11.7347C13.9709 12.9397 12.5043 13.7144 10.8567 13.7144C8.0164 13.7144 5.71387 11.4119 5.71387 8.57157C5.71387 5.73125 8.0164 3.42871 10.8567 3.42871C12.5048 3.42871 13.9719 4.20396 14.9131 5.40968Z" fill="white" />
	</g>
</svg>
	