<svg width="24" height="18" viewBox="0 0 24 18" fill="none" xmlns="http://www.w3.org/2000/svg">
	<rect width="24" height="17.1429" rx="0" fill="white" />
	<mask id="mask0_324_5410" style="mask-type:alpha" maskUnits="userSpaceOnUse" x="0" y="0" width="24" height="18">
		<rect width="24" height="17.1429" rx="0" fill="white" />
	</mask>
	<g mask="url(#mask0_324_5410)">
		<rect width="24" height="17.1429" fill="#F1361D" />
		<path fill-rule="evenodd" clip-rule="evenodd" d="M8.63379 2.65824L9.46388 2.79976L10.0865 3.36675L10.228 2.53666L10.795 1.91408L9.96488 1.77256L9.3423 1.20557L9.20079 2.03566L8.63379 2.65824ZM10.8574 5.56146L11.5767 5.12367L12.4186 5.14315L11.9808 4.42382L12.0003 3.58197L11.2809 4.01976L10.4391 4.00029L10.8769 4.71961L10.8574 5.56146ZM9.88137 10.2612L9.17777 10.7238L9.16785 9.88179L8.70522 9.17818L9.54724 9.16826L10.2508 8.70564L10.2608 9.54765L10.7234 10.2513L9.88137 10.2612ZM10.4925 8.0847L11.3294 7.99193L12.0842 8.36536L11.9914 7.52841L12.3648 6.77367L11.5279 6.86644L10.7731 6.49301L10.8659 7.32996L10.4925 8.0847Z" fill="#FFDC42" />
		<path fill-rule="evenodd" clip-rule="evenodd" d="M5.7134 7.05136L3.69814 8.48799L4.4417 6.12742L2.45264 4.65473L4.92745 4.63244L5.7134 2.28564L6.49935 4.63244L8.97417 4.65473L6.9851 6.12742L7.72867 8.48799L5.7134 7.05136Z" fill="#FFDC42" />
	</g>
</svg>
	