<?xml version="1.0" encoding="UTF-8"?>
<svg xmlns="http://www.w3.org/2000/svg" width="80" height="80" viewBox="180 80 200 200" fill="none">
    <g clip-path="url(#clip1_406_192)">
      <path fill-rule="evenodd" clip-rule="evenodd" d="M174 84H346V256H174V84Z" fill="url(#paint0_linear_406_192)"></path>
      <path fill-rule="evenodd" clip-rule="evenodd" d="M292.577 184.321C292.577 175.916 285.694 169.078 277.232 169.078C268.771 169.078 261.89 175.916 261.89 184.321C261.89 192.726 268.771 199.564 277.232 199.564C285.694 199.564 292.577 192.726 292.577 184.321ZM296.9 184.321C296.9 195.094 288.078 203.858 277.232 203.858C266.389 203.858 257.567 195.094 257.567 184.321C257.567 173.548 266.389 164.785 277.232 164.785C288.078 164.785 296.9 173.548 296.9 184.321ZM315.046 213.768L299.977 200.286C298.761 201.988 297.354 203.542 295.791 204.932L310.838 218.412C312.122 219.563 314.119 219.455 315.279 218.18C316.433 216.905 316.33 214.923 315.046 213.768ZM277.232 207.722C290.224 207.722 300.792 197.224 300.792 184.321C300.792 171.416 290.224 160.92 277.232 160.92C264.243 160.92 253.675 171.416 253.675 184.321C253.675 197.224 264.243 207.722 277.232 207.722ZM318.491 221.055C317.017 222.676 314.979 223.5 312.936 223.5C311.155 223.5 309.37 222.873 307.946 221.602L292.301 207.587C287.95 210.378 282.787 212.016 277.232 212.016C261.859 212.016 249.352 199.592 249.352 184.321C249.352 169.05 261.859 156.626 277.232 156.626C292.608 156.626 305.115 169.05 305.115 184.321C305.115 188.703 304.058 192.834 302.225 196.52L317.94 210.58C320.991 213.322 321.238 218.017 318.491 221.055ZM219.953 146.944C219.953 148.06 220.022 149.172 220.154 150.248C220.229 150.86 220.039 151.472 219.629 151.933C219.302 152.3 218.863 152.543 218.384 152.625C213.069 153.988 204.323 158.114 204.323 170.493C204.323 179.841 209.512 185 213.867 187.683C215.354 188.615 217.113 189.111 218.969 189.13L245.032 189.154L245.028 193.448L218.946 193.424C216.268 193.396 213.726 192.671 211.576 191.325C207.26 188.665 200 182.413 200 170.493C200 156.124 209.89 150.813 215.695 148.936C215.652 148.275 215.63 147.609 215.63 146.944C215.63 135.205 223.646 123.03 234.275 118.626C246.707 113.452 259.878 116.018 269.502 125.484C272.484 128.416 274.937 131.978 276.82 136.098C279.348 134.017 282.465 132.869 285.75 132.869C292.206 132.869 299.472 137.736 300.766 148.38C306.811 149.765 319.584 154.604 319.584 170.659C319.584 177.069 317.561 182.363 313.57 186.395L310.488 183.383C313.656 180.184 315.262 175.903 315.262 170.659C315.262 156.616 303.427 153.123 298.335 152.275C297.756 152.178 297.244 151.852 296.913 151.371C296.591 150.907 296.468 150.338 296.565 149.786C295.858 141.07 290.645 137.163 285.75 137.163C282.662 137.163 279.765 138.657 277.803 141.263C277.325 141.894 276.549 142.216 275.754 142.101C274.97 141.985 274.31 141.448 274.04 140.707C272.27 135.836 269.72 131.74 266.461 128.536C258.12 120.333 246.716 118.109 235.942 122.59C226.975 126.304 219.953 137 219.953 146.944Z" fill="white"></path>
    </g>
  <defs>
    <linearGradient id="paint0_linear_406_192" x1="172.478" y1="257.522" x2="346" y2="84" gradientUnits="userSpaceOnUse">
      <stop stop-color="#B0084D"></stop>
      <stop offset="1" stop-color="#FF4F8B"></stop>
    </linearGradient>
  </defs>
</svg>
