<?xml version="1.0" encoding="UTF-8"?>
<svg width="256px" height="286px" viewBox="0 0 256 286" version="1.1" xmlns="http://www.w3.org/2000/svg" xmlns:xlink="http://www.w3.org/1999/xlink" preserveAspectRatio="xMidYMid">
		<g>
				<path d="M14.3443,80.1733 L203.5503,80.1733 C224.4013,80.1733 243.0203,70.6123 255.5133,55.6863 C229.4533,21.8353 188.5523,0.0003 142.5303,0.0003 C86.1783,0.0003 37.4763,32.7113 14.3443,80.1733" fill="#F0BF1A"></path>
				<path d="M187.5152,102.4438 L5.7552,102.4438 C2.0332,115.1648 0.0002,128.6068 0.0002,142.5298 C0.0002,156.4538 2.0332,169.8968 5.7552,182.6168 L187.5152,182.6168 C209.3402,182.6168 227.6022,164.8008 227.6022,142.5298 C227.6022,120.2598 209.7862,102.4438 187.5152,102.4438" fill="#07A5DE"></path>
				<path d="M255.9996,228.7548 C243.5856,214.1638 225.1166,204.8868 204.4406,204.8868 L14.3446,204.8868 C37.4766,252.3498 86.1786,285.0598 142.5296,285.0598 C188.8356,285.0598 229.9656,262.9628 255.9996,228.7548" fill="#3EBEB0"></path>
				<path d="M5.7555,102.4438 C2.0325,115.1648 0.0005,128.6068 0.0005,142.5298 C0.0005,156.4538 2.0325,169.8968 5.7555,182.6168 L124.7135,182.6168 C127.8315,170.5908 129.6125,157.2288 129.6125,142.5298 C129.6125,127.8318 127.8315,114.4698 124.7135,102.4438 L5.7555,102.4438 Z" fill="#231F20"></path>
				<path d="M70.8199,19.1528 C46.7669,33.4058 26.7239,54.7848 14.2529,80.1738 L119.3689,80.1738 C108.6789,55.6758 91.7539,35.1878 70.8199,19.1528" fill="#D7A229"></path>
				<path d="M75.274,268.1347 C95.762,251.6547 112.242,229.8297 122.487,204.8867 L14.253,204.8867 C27.615,231.6117 48.995,253.8817 75.274,268.1347" fill="#019B8F"></path>
		</g>
</svg>
