<svg width="30" height="25" viewBox="0 0 30 25" fill="none" xmlns="http://www.w3.org/2000/svg">
	<path d="M29.84 10.4485C29.6825 10.4485 29.4401 10.4485 29.3044 10.4485C28.33 10.4364 26.4612 10.5406 24.7669 12.0046C20.7215 15.5071 19.798 20.6626 12.8755 23.4452C7.10916 25.7624 0 23.5688 0 23.5688C0 23.5688 6.34322 23.1277 7.1843 18.2873C7.84116 14.5012 4.39687 11.8132 2.23479 8.39796C0.0363578 4.91973 -0.5284 2.0305 0.530824 0.782213C3.53398 -2.76388 11.8042 6.82245 15.9102 8.11437C19.9289 9.37719 22.6412 6.44433 25.9692 6.87578C27.0308 7.01151 27.5495 7.46962 27.8937 8.05377C28.01 8.2501 28.296 8.91908 28.5506 9.16632C28.8002 9.4087 29.1323 9.58807 29.4425 9.76986C29.8376 10.0025 30.2279 10.4485 29.84 10.4485Z" fill="url(#paint0_linear_718_1628)" />
	<path d="M10.8342 4.90302C9.84044 4.14678 8.81515 3.35418 7.80683 2.63187C7.57899 2.46947 7.35114 2.3095 7.12573 2.15437C4.42313 0.304973 1.91687 -0.853628 0.530426 0.782472C-0.528798 2.03076 0.0359598 4.91999 2.23682 8.39821C2.25863 8.43457 2.28287 8.46851 2.30469 8.50486C3.45117 10.2791 6.77669 14.436 14.6591 14.2591C15.1778 13.7089 15.9655 12.669 16.9835 11.5371C15.3329 8.86844 12.846 6.54154 10.8342 4.90302Z" fill="url(#paint1_linear_718_1628)" />
	<path d="M18.78 17.4455C18.8115 16.2627 18.5958 15.0968 18.1862 13.9697C17.1512 14.1249 15.9853 14.2315 14.6595 14.2606C13.6948 15.2859 11.4915 18.0248 7.84118 20.4923C2.98136 23.7791 0.00244141 23.5706 0.00244141 23.5706C0.00244141 23.5706 7.11402 25.7642 12.8779 23.447C14.9455 22.6156 16.4798 21.5734 17.7208 20.4244C17.9244 20.2305 18.7364 19.2174 18.78 17.4455Z" fill="url(#paint2_linear_718_1628)" />
	<path d="M16.9861 11.5371C15.9681 12.6666 15.1779 13.7089 14.6616 14.2591C15.9899 14.23 17.1558 14.1234 18.1883 13.9682C18.0671 13.6313 17.9265 13.2993 17.7714 12.972C17.5387 12.4848 17.2745 12.0049 16.9861 11.5371Z" fill="url(#paint3_linear_718_1628)" />
	<path d="M22.8951 7.24717C20.7669 7.89191 18.6412 8.97053 15.9095 8.11248C14.557 7.68831 12.7513 6.36246 10.834 4.90088C12.8458 6.5394 15.3327 8.86388 16.9857 11.535C18.4934 9.86493 20.5052 7.99856 22.8951 7.24717Z" fill="url(#paint4_linear_718_1628)" />
	<path d="M18.188 13.9672C18.5977 15.0943 18.8134 16.2602 18.7819 17.443C18.7358 19.2124 17.9238 20.2256 17.7202 20.4219C20.6313 17.729 21.9329 14.4593 24.7688 12.0039C25.2972 11.5482 25.8401 11.2234 26.3709 10.9932H26.3685C24.5094 11.7736 22.4928 13.3176 18.188 13.9672Z" fill="url(#paint5_linear_718_1628)" />
	<path d="M29.8395 10.4469C30.2273 10.4469 29.8371 10.0009 29.4444 9.77064C29.1342 9.58643 28.8021 9.40706 28.5525 9.1671C28.2955 8.91987 28.0095 8.24846 27.8956 8.05455C27.549 7.46798 27.0327 7.0123 25.9711 6.87656C24.9046 6.7384 23.9011 6.94685 22.8976 7.24983C20.5077 8.00123 18.4935 9.86759 16.9858 11.5376C17.2743 12.0054 17.5409 12.4829 17.7712 12.9701C17.9263 13.2998 18.0669 13.6318 18.1881 13.9663C22.4953 13.3167 24.5095 11.7727 26.3686 10.9923H26.371C27.5417 10.4833 28.6373 10.4372 29.3063 10.4469C29.442 10.4469 29.6844 10.4469 29.8395 10.4469Z" fill="url(#paint6_linear_718_1628)" />
	<path d="M7.84118 20.4913C11.4915 18.0238 13.6948 15.2849 14.6595 14.2596C6.77711 14.4365 3.45158 10.2796 2.3051 8.50537C4.4696 11.8721 7.83633 14.5432 7.18674 18.288C6.34566 23.1285 0.00244141 23.5696 0.00244141 23.5696C0.00244141 23.5696 2.98136 23.7781 7.84118 20.4913Z" fill="url(#paint7_linear_718_1628)" />
	<path d="M25.7508 9.30637C26.0989 9.30637 26.381 9.02639 26.381 8.68102C26.381 8.33564 26.0989 8.05566 25.7508 8.05566C25.4028 8.05566 25.1206 8.33564 25.1206 8.68102C25.1206 9.02639 25.4028 9.30637 25.7508 9.30637Z" fill="white" />
	<defs>
		<linearGradient id="paint0_linear_718_1628" x1="2.42385e-06" y1="12.2541" x2="30" y2="12.2541" gradientUnits="userSpaceOnUse">
			<stop stop-color="#2A59A2" />
			<stop offset="1" stop-color="#2A59A2" />
		</linearGradient>
		<linearGradient id="paint1_linear_718_1628" x1="-1.21173" y1="7.13228" x2="30.5193" y2="7.13228" gradientUnits="userSpaceOnUse">
			<stop stop-color="#91D3F2" />
			<stop offset="0.2664" stop-color="#6FB2DE" />
			<stop offset="0.5214" stop-color="#5598CE" />
			<stop offset="0.6729" stop-color="#4B8FC8" />
		</linearGradient>
		<linearGradient id="paint2_linear_718_1628" x1="0.00244383" y1="19.2398" x2="30.2214" y2="19.2398" gradientUnits="userSpaceOnUse">
			<stop stop-color="#2C9EC7" />
			<stop offset="0.4037" stop-color="#2C63A5" />
			<stop offset="1" stop-color="#395DA1" />
		</linearGradient>
		<linearGradient id="paint3_linear_718_1628" x1="0.00166312" y1="12.8981" x2="30.2207" y2="12.8981" gradientUnits="userSpaceOnUse">
			<stop stop-color="#4FAAC4" />
			<stop offset="0.00155453" stop-color="#2F75B1" />
			<stop offset="1" stop-color="#356EAC" />
		</linearGradient>
		<linearGradient id="paint4_linear_718_1628" x1="10.834" y1="8.21792" x2="30.3941" y2="8.21792" gradientUnits="userSpaceOnUse">
			<stop stop-color="#4FAAC4" />
			<stop offset="0.00155453" stop-color="#2F81B6" />
			<stop offset="1" stop-color="#3B5EA9" />
		</linearGradient>
		<linearGradient id="paint5_linear_718_1628" x1="10.8333" y1="15.7076" x2="30.3934" y2="15.7076" gradientUnits="userSpaceOnUse">
			<stop stop-color="#4FAAC4" />
			<stop offset="0.00155453" stop-color="#1E3773" />
			<stop offset="1" stop-color="#203370" />
		</linearGradient>
		<linearGradient id="paint6_linear_718_1628" x1="23.4927" y1="17.3404" x2="23.4927" y2="6.61446" gradientUnits="userSpaceOnUse">
			<stop stop-color="#4FAAC4" />
			<stop offset="0.00155453" stop-color="#2C5A9A" />
			<stop offset="1" stop-color="#374580" />
		</linearGradient>
		<linearGradient id="paint7_linear_718_1628" x1="-3.26019" y1="16.0388" x2="18.9989" y2="16.0388" gradientUnits="userSpaceOnUse">
			<stop offset="0.1115" stop-color="#38B1DA" />
			<stop offset="1" stop-color="#326FB5" />
		</linearGradient>
	</defs>
</svg>
	