<svg width="200" height="161" viewBox="0 0 200 161" fill="none" xmlns="http://www.w3.org/2000/svg">
<path d="M133.009 44.39L150.394 27.004L151.553 19.684C119.873 -9.12301 69.513 -5.856 40.953 26.5C33.021 35.486 27.136 46.69 23.998 58.26L30.224 57.382L64.994 51.649L67.678 48.904C83.144 31.918 109.295 29.632 127.153 44.084L133.009 44.39Z" fill="#EA4335"/>
<path d="M175.16 57.7491C171.164 43.0335 162.96 29.8044 151.553 19.6851L127.153 44.0851C132.238 48.2401 136.314 53.4957 139.072 59.4554C141.829 65.4151 143.198 71.9233 143.074 78.4891V82.8201C155.067 82.8201 164.79 92.5421 164.79 104.535C164.79 116.529 155.067 126.008 143.074 126.008H99.581L95.311 130.644V156.691L99.581 160.778H143.074C174.269 161.021 199.755 136.173 199.998 104.978C200.071 95.6685 197.841 86.4853 193.508 78.2455C189.175 70.0056 182.872 62.9647 175.16 57.7491Z" fill="#4285F4"/>
<path d="M56.149 160.778H99.581V126.008H56.149C53.0743 126.007 50.0361 125.341 47.243 124.056L41.082 125.947L23.575 143.332L22.05 149.249C31.868 156.662 43.846 160.831 56.149 160.778Z" fill="#34A853"/>
<path d="M56.149 47.9889C24.953 48.1749 -0.185023 73.6149 -2.30032e-05 104.81C0.0513169 113.407 2.06416 121.878 5.88516 129.579C9.70616 137.28 15.2345 144.007 22.049 149.248L47.242 124.055C36.312 119.117 31.455 106.253 36.393 95.3239C41.331 84.3939 54.195 79.5369 65.123 84.4739C69.9394 86.6499 73.797 90.5075 75.973 95.3239L101.166 70.1309C95.8784 63.2179 89.0632 57.6219 81.2535 53.7805C73.4438 49.9391 64.8513 47.9566 56.148 47.9879L56.149 47.9889Z" fill="#FBBC05"/>
</svg>
