<svg width="32" height="32" viewBox="0 0 32 32" fill="none" xmlns="http://www.w3.org/2000/svg">
<path d="M15.0222 6.81243C13.376 7.05777 12.0498 7.88977 11.136 9.25155C10.7947 9.75999 10.4853 10.4675 10.3467 11.0613L10.304 11.2604L9.8311 11.2853C9.34044 11.3102 9.07021 11.3564 8.66133 11.4844C7.66933 11.7973 6.7271 12.5867 6.24355 13.504C6.12977 13.728 6.09777 13.7635 6.03021 13.7493C5.9911 13.7387 5.81688 13.6889 5.64621 13.6427C4.8711 13.4187 3.95021 13.44 3.18221 13.696C2.13688 14.048 1.21955 14.8267 0.732436 15.7795C0.0568803 17.088 0.0959914 18.6204 0.828436 19.8933C1.4151 20.9102 2.36088 21.6178 3.53066 21.9093C3.82933 21.984 3.93599 21.9911 4.77866 21.9911H5.69599L5.78133 21.7671C5.9591 21.2871 6.4711 20.6969 7.00799 20.352C7.37421 20.1138 7.89688 19.8649 8.33777 19.712C8.55466 19.6409 8.73599 19.5733 8.7431 19.5698C8.75021 19.5627 8.69333 19.4809 8.6151 19.3884C8.09599 18.7591 7.85777 18.1191 7.85777 17.344C7.85777 16.7751 7.95021 16.3733 8.20266 15.8755C8.51199 15.264 9.1271 14.688 9.75999 14.4249C10.2293 14.2329 10.3609 14.208 11.0044 14.2044C11.5698 14.2044 11.6302 14.2115 11.904 14.3004C14.1084 15.0222 14.8693 17.664 13.3724 19.392L13.2231 19.5627L13.6071 19.6978C14.0622 19.8578 14.1902 19.9111 14.5315 20.0818L14.7911 20.2098L14.9049 20.0995C15.2818 19.7404 16.2204 19.232 16.96 18.9867C17.2018 18.9084 17.408 18.8373 17.4151 18.8267C17.4222 18.8195 17.3511 18.72 17.2551 18.6062C16.8355 18.1191 16.5831 17.6107 16.4231 16.9244C16.3591 16.6649 16.3591 15.7227 16.4231 15.4667C16.5333 15.0151 16.6684 14.6738 16.8889 14.2933C17.2764 13.632 17.9591 13.0524 18.7022 12.7573C19.1431 12.5831 19.3671 12.5404 19.9502 12.5227C20.5724 12.5049 20.8498 12.5475 21.3511 12.7395C22.2151 13.0667 22.9475 13.7315 23.3707 14.5671C23.8755 15.5627 23.8684 16.8355 23.3564 17.8595C23.2249 18.1155 22.912 18.5742 22.7769 18.6987C22.7271 18.7484 22.6844 18.7982 22.6844 18.8124C22.6844 18.8267 22.7911 18.8729 22.9262 18.9155C24.4693 19.4062 25.5822 20.2062 26.0693 21.1733C26.1724 21.3724 26.3111 21.8169 26.3111 21.9378V22.016L27.264 22.0018C28.2595 21.984 28.2915 21.9804 28.8889 21.7884C30.176 21.3689 31.264 20.2098 31.6053 18.8907C31.7298 18.4035 31.7511 18.2471 31.7511 17.7671C31.7511 16.5867 31.3671 15.6302 30.5493 14.784C29.952 14.1653 29.4969 13.9093 28.4267 13.5787C28.3698 13.5609 28.1138 13.5289 27.8578 13.504C27.4595 13.472 27.3351 13.472 26.9689 13.5253C26.3573 13.6142 26.4 13.6142 26.3893 13.4933C26.24 11.8293 25.2764 10.4107 23.8222 9.71377C23.4773 9.55021 23.328 9.49688 22.88 9.3831C22.6027 9.31199 22.4675 9.30132 21.8489 9.30132C21.2729 9.30132 21.0951 9.31199 20.9067 9.36532C20.5511 9.46132 20.5582 9.46488 20.3804 9.20888C19.9964 8.65066 19.52 8.16355 18.9689 7.76888C17.8738 6.98666 16.3307 6.61332 15.0222 6.81243Z" fill="#062B48"/>
</svg>
