<svg width="26" height="25" viewBox="0 0 26 25" fill="none" xmlns="http://www.w3.org/2000/svg">
	<path d="M23.7256 5.5607C23.5775 5.08714 23.2199 4.70197 22.7735 4.46624L13.7069 0.147331C13.4678 0.0294662 13.2012 0 12.9621 0C12.723 0 12.4564 0 12.2194 0.0589325L3.15075 4.40731C2.7043 4.61357 2.37845 4.99874 2.25785 5.50177L0.0298176 15.2319C-0.0590496 15.735 0.05944 16.238 0.35778 16.6526L6.63138 24.3707C6.98897 24.7264 7.49466 24.9621 7.99824 24.9916H17.9873C18.5227 25.0505 19.0284 24.8148 19.3542 24.3707L25.6278 16.6526C25.9261 16.238 26.0446 15.735 25.9854 15.2319L23.7256 5.5607Z" fill="#326DE6" />
	<path d="M22.3416 14.6176C22.312 14.6176 22.2824 14.6176 22.2824 14.5881C22.2824 14.5586 22.2231 14.5586 22.1639 14.5586C22.0454 14.5292 21.9269 14.5292 21.8063 14.5292C21.7471 14.5292 21.6878 14.5292 21.6286 14.4997H21.5989C21.271 14.4702 20.9155 14.4113 20.5876 14.3229C20.4987 14.2934 20.4098 14.205 20.3802 14.1166C20.4098 14.1166 20.3802 14.1166 20.3802 14.1166L20.1432 14.0577C20.2617 13.199 20.2025 12.3129 20.0247 11.4542C19.8174 10.5954 19.4598 9.76827 18.9837 9.02951L19.1614 8.85271V8.82324C19.1614 8.73484 19.1911 8.61698 19.2503 8.55805C19.5169 8.32232 19.7856 8.14342 20.0819 7.96662C20.1411 7.93715 20.2003 7.90769 20.2596 7.87822C20.3781 7.81929 20.467 7.76035 20.5876 7.70142C20.6172 7.67196 20.6468 7.67196 20.6764 7.64249C20.706 7.61302 20.6764 7.61302 20.6764 7.58356C20.943 7.37729 21.0044 7.02159 20.7949 6.7564C20.706 6.63853 20.5283 6.55013 20.3781 6.55013C20.23 6.55013 20.0797 6.60907 19.9613 6.69746L19.9316 6.72693C19.902 6.7564 19.8724 6.78586 19.8428 6.78586C19.7539 6.87426 19.665 6.96266 19.6058 7.05106C19.5762 7.10999 19.5169 7.13946 19.4873 7.16893C19.2799 7.40465 19.0112 7.64249 18.7446 7.81929C18.6854 7.84875 18.6261 7.87822 18.5669 7.87822C18.5373 7.87822 18.478 7.87822 18.4484 7.84875H18.4188L18.1818 7.99608C17.9448 7.76035 17.6761 7.52252 17.4391 7.28679C16.3389 6.42806 14.972 5.89767 13.5734 5.74823L13.5438 5.5125V5.54197C13.4549 5.48303 13.4253 5.39464 13.3957 5.30624C13.3957 4.98 13.3957 4.65588 13.4549 4.30018V4.27071C13.4549 4.21178 13.4845 4.15284 13.4845 4.09391C13.5142 3.97605 13.5142 3.85818 13.5438 3.73821V3.55721C13.5734 3.26044 13.3364 2.96578 13.0381 2.93631C12.8603 2.90684 12.6805 2.99524 12.5324 3.14257C12.4139 3.26044 12.3546 3.40777 12.3546 3.55721V3.70454C12.3546 3.8224 12.3843 3.94027 12.4139 4.06024C12.4435 4.11917 12.4435 4.1781 12.4435 4.23703V4.2665C12.5028 4.59273 12.5028 4.91686 12.5028 5.27256C12.4731 5.36096 12.4435 5.44936 12.3546 5.50829V5.56722L12.325 5.80295C11.9971 5.83242 11.6712 5.89135 11.3136 5.95029C9.91715 6.24705 8.63704 6.98581 7.65738 8.02134L7.47965 7.90348H7.45003C7.4204 7.90348 7.39078 7.93294 7.33154 7.93294C7.27229 7.93294 7.21305 7.90348 7.1538 7.87401C6.8872 7.66775 6.61848 7.42991 6.41113 7.19418C6.3815 7.13525 6.32226 7.10578 6.29264 7.07632C6.20377 6.98792 6.14452 6.89952 6.05566 6.81112C6.02603 6.78165 5.99641 6.78165 5.96679 6.75219C5.93717 6.72272 5.93717 6.72272 5.93717 6.72272C5.81868 6.63432 5.67057 6.57539 5.52034 6.57539C5.3426 6.57539 5.19238 6.63432 5.10351 6.78165C4.92577 7.04685 4.98502 7.40255 5.222 7.60881C5.25162 7.60881 5.25162 7.63828 5.25162 7.63828C5.25162 7.63828 5.31087 7.69721 5.34049 7.69721C5.42935 7.75615 5.54784 7.81508 5.66845 7.87401C5.72769 7.90348 5.78694 7.93294 5.84618 7.96241C6.14452 8.13921 6.44075 8.31811 6.67773 8.55384C6.73697 8.61277 6.79622 8.73064 6.76659 8.81903V8.78957L6.94433 8.96637C6.91471 9.0253 6.88508 9.05476 6.85546 9.1137C5.93294 10.5639 5.54784 12.2792 5.81445 13.9651L5.57747 14.024C5.57747 14.0535 5.54784 14.0535 5.54784 14.0535C5.51822 14.1419 5.42935 14.2008 5.34049 14.2598C5.01253 14.3482 4.68668 14.4071 4.32909 14.4366C4.26985 14.4366 4.21061 14.4366 4.15136 14.466C4.03287 14.466 3.91438 14.4955 3.79378 14.4955C3.76415 14.4955 3.73453 14.525 3.67529 14.525C3.64566 14.525 3.64566 14.525 3.61604 14.5544C3.28808 14.6134 3.08072 14.9101 3.13997 15.2343C3.19921 15.4995 3.46793 15.6784 3.73453 15.6489C3.79378 15.6489 3.8234 15.6489 3.88264 15.6194C3.91227 15.6194 3.91227 15.6194 3.91227 15.59C3.91227 15.5605 4.00113 15.59 4.03075 15.59C4.14924 15.5605 4.26773 15.5016 4.35872 15.4721C4.41796 15.4426 4.47721 15.4132 4.53645 15.4132H4.56607C4.89404 15.2953 5.19026 15.2069 5.54784 15.148H5.57747C5.66633 15.148 5.7552 15.1774 5.81445 15.2364C5.84407 15.2364 5.84407 15.2658 5.84407 15.2658L6.11067 15.2364C6.55712 16.596 7.38866 17.8104 8.54817 18.6965C8.81477 18.9028 9.05387 19.0817 9.35009 19.229L9.20198 19.4353C9.20198 19.4648 9.2316 19.4648 9.2316 19.4648C9.29085 19.5532 9.29085 19.671 9.26122 19.7615C9.14273 20.0583 8.96288 20.353 8.78515 20.6203V20.6497C8.75553 20.7087 8.7259 20.7381 8.66666 20.7971C8.60741 20.856 8.54817 20.9739 8.4593 21.0938C8.42968 21.1233 8.42968 21.1528 8.40006 21.1822C8.40006 21.1822 8.40006 21.2117 8.37044 21.2117C8.22232 21.5085 8.34081 21.8621 8.60741 22.0094C8.66666 22.0389 8.75553 22.0683 8.81477 22.0683C9.05175 22.0683 9.26122 21.921 9.37971 21.7126C9.37971 21.7126 9.37971 21.6832 9.40934 21.6832C9.40934 21.6537 9.43896 21.6242 9.46858 21.5948C9.4982 21.4769 9.55745 21.3885 9.58707 21.2685L9.64631 21.0917C9.73518 20.7655 9.88329 20.4708 10.0335 20.1741C10.0928 20.0857 10.1816 20.0267 10.2705 19.9973C10.3001 19.9973 10.3001 19.9973 10.3001 19.9678L10.4186 19.7321C11.2502 20.0583 12.1134 20.2056 13.0042 20.2056C13.5395 20.2056 14.0749 20.1467 14.6102 19.9994C14.9381 19.9404 15.264 19.8226 15.5623 19.7342L15.6808 19.9404C15.7104 19.9404 15.7104 19.9404 15.7104 19.9699C15.7993 19.9994 15.8882 20.0583 15.9474 20.1467C16.0955 20.4435 16.2458 20.7381 16.3346 21.0644V21.0938L16.3939 21.2706C16.4235 21.3885 16.4531 21.5064 16.5124 21.5969C16.542 21.6263 16.542 21.6558 16.5716 21.6853C16.5716 21.6853 16.5716 21.7147 16.6012 21.7147C16.7197 21.921 16.9292 22.0704 17.1662 22.0704C17.255 22.0704 17.3143 22.041 17.4031 22.0115C17.5216 21.9526 17.6401 21.8347 17.6698 21.6853C17.6994 21.5379 17.6994 21.3885 17.6401 21.2412C17.6401 21.2117 17.6105 21.2117 17.6105 21.2117C17.6105 21.1822 17.5809 21.1528 17.5513 21.1233C17.492 21.0054 17.4328 20.917 17.3439 20.8265C17.3143 20.7676 17.2847 20.7381 17.2254 20.6792V20.6203C17.0181 20.3551 16.8678 20.0583 16.7493 19.7615C16.7197 19.6731 16.7197 19.5553 16.779 19.4648C16.779 19.4353 16.8086 19.4353 16.8086 19.4353L16.7197 19.1996C18.2368 18.2819 19.3963 16.8633 19.9316 15.1774L20.1686 15.2069C20.1982 15.2069 20.1982 15.1774 20.1982 15.1774C20.2575 15.1185 20.3463 15.089 20.4352 15.089H20.4648C20.7928 15.148 21.1186 15.2364 21.417 15.3542H21.4466C21.5059 15.3837 21.5651 15.4132 21.6243 15.4132C21.7428 15.4721 21.8317 15.531 21.9523 15.5605C21.9819 15.5605 22.0115 15.59 22.0708 15.59C22.1004 15.59 22.1004 15.59 22.13 15.6194C22.1893 15.6489 22.2189 15.6489 22.2781 15.6489C22.5448 15.6489 22.7838 15.4721 22.8727 15.2343C22.8473 14.9143 22.6082 14.6765 22.3416 14.6176ZM13.749 13.6999L12.9471 14.0851L12.1452 13.6999L11.9378 12.8412L12.5028 12.1319H13.3957L13.9606 12.8412L13.749 13.6999ZM18.5944 11.7783C18.7425 12.3992 18.7721 13.0201 18.7129 13.641L15.8882 12.8433C15.6216 12.7843 15.4713 12.517 15.5306 12.2519C15.5602 12.1635 15.5898 12.1045 15.6491 12.0456L17.8792 10.0335C18.2072 10.566 18.4463 11.1574 18.5944 11.7783ZM16.9884 8.939L14.5509 10.6544C14.3436 10.7722 14.0452 10.7428 13.8971 10.5365C13.8379 10.4776 13.8083 10.4186 13.8083 10.3302L13.6305 7.34362C14.9381 7.49095 16.0976 8.05291 16.9884 8.939ZM11.6077 7.42991L12.2023 7.31205L12.0542 10.2692C12.0542 10.5344 11.8172 10.7428 11.5485 10.7428C11.4596 10.7428 11.4004 10.7133 11.3115 10.6838L8.84439 8.939C9.61458 8.20024 10.5667 7.66775 11.6077 7.42991ZM7.98111 10.0335L10.1816 11.9846C10.389 12.1613 10.4186 12.4581 10.2409 12.6644C10.1816 12.7528 10.1224 12.7822 10.0039 12.8117L7.11995 13.6389C7.02896 12.3992 7.32519 11.1279 7.98111 10.0335ZM7.47542 15.0322L10.4186 14.5292C10.6556 14.5292 10.8947 14.6765 10.9243 14.9143C10.9539 15.0027 10.9539 15.1206 10.8947 15.2111L9.7648 17.9325C8.72379 17.2506 7.89013 16.2151 7.47542 15.0322ZM14.2251 18.6986C13.8083 18.787 13.3935 18.846 12.9471 18.846C12.3229 18.846 11.6691 18.7281 11.0745 18.5492L12.5324 15.9162C12.6805 15.7394 12.9196 15.6805 13.1269 15.7983C13.2158 15.8573 13.2751 15.9162 13.3639 16.0046L14.7921 18.5787C14.6102 18.6102 14.4324 18.6397 14.2251 18.6986ZM17.8517 16.1267C17.4053 16.836 16.7811 17.4569 16.068 17.901L14.9085 15.1206C14.8493 14.8849 14.9678 14.647 15.1751 14.5586C15.264 14.5292 15.3529 14.4997 15.4417 14.4997L18.4145 15.0027C18.2685 15.4153 18.0887 15.8004 17.8517 16.1267Z" fill="white" />
</svg>
