<?xml version="1.0" encoding="utf-8"?>
<!-- Generator: Adobe Illustrator 26.0.3, SVG Export Plug-In . SVG Version: 6.00 Build 0)  -->
<svg version="1.0" id="Layer_1" xmlns="http://www.w3.org/2000/svg" xmlns:xlink="http://www.w3.org/1999/xlink" x="0px" y="0px"
	 viewBox="0 0 432 332.4" style="enable-background:new 0 0 432 332.4;" xml:space="preserve">
<style type="text/css">
	.st0{fill:#F25022;}
	.st1{fill:#7FBA00;}
	.st2{fill:#00A4EF;}
	.st3{fill:#FFB900;}
</style>
<g>
	<g>
		<path d="M209.2,103.1V229h16.2V103.1H209.2L209.2,103.1z M254,103.1V229h16.2V103.1H254L254,103.1z M292,222.9
			c6.7,4.4,19.9,8.1,32.3,8.1c29.6,0,44.1-16.8,44.1-36.4c0-18.5-10.8-29-32.3-37c-17.5-6.7-24.9-12.5-24.9-24.2
			c0-8.8,6.4-18.9,23.9-18.9c11.4,0,19.9,3.7,23.9,6.1l4.4-13.1c-5.7-3-14.8-6.1-27.9-6.1c-24.6,0-40.7,14.5-40.7,34.3
			c0,17.8,12.8,28.3,33.3,35.7c17.2,6.4,23.9,13.1,23.9,24.9c0,12.8-9.8,21.6-26.3,21.6c-11.1,0-21.9-3.7-29.3-8.1L292,222.9z"/>
	</g>
	<g>
		<path class="st0" d="M63.6,101.8h60.9v60.9H63.6V101.8z"/>
		<path class="st1" d="M130.7,101.8h60.9v60.9h-60.9V101.8z"/>
		<path class="st2" d="M63.6,169.2h60.9V230H63.6V169.2z"/>
		<path class="st3" d="M130.7,169.2h60.9V230h-60.9V169.2z"/>
	</g>
</g>
</svg>
