<svg xmlns="http://www.w3.org/2000/svg" xmlns:xlink="http://www.w3.org/1999/xlink" viewBox="0 0 58 39" fill="#fff" fill-rule="evenodd" stroke="#000" stroke-linecap="round" stroke-linejoin="round"><style><![CDATA[.B{stroke:none}.C{stroke:#fff}.D{stroke-linejoin:miter}.E{fill:#0c6d9c}.F{stroke-width:.394}.G{stroke-width:.787}]]></style><use xlink:href="#A" x=".5" y=".5"/><symbol id="A" overflow="visible"><use xlink:href="#C" fill="#0e6f9c" class="B"/><use xlink:href="#C" fill="none" class="C D G"/><use xlink:href="#D" class="B E"/><use xlink:href="#D" fill="none" class="C D F"/><use xlink:href="#E" class="B E"/><use xlink:href="#E" fill="none" class="C D F"/><use xlink:href="#F" class="B E"/><use xlink:href="#F" fill="none" class="C D F"/><g class="B"><path d="M22.053 19.285l-9.843.394 1.181-4.724 1.969.787 9.843-4.724 4.331 2.362-9.843 4.725 2.362 1.181zM35.832 2.751h10.237l-1.575 4.725-1.969-1.181-9.449 4.725-4.331-2.756 9.449-4.331-2.362-1.181zM24.414 6.294l2.756 3.543-12.993.788 2.756-1.181-9.449-3.937 4.725-2.756 9.843 4.331 2.362-.788z"/><path d="M31.896 16.925L30.715 12.2l10.63.393-2.755.788 10.237 4.331-4.725 1.969-9.842-3.937-2.362 1.181zm-8.662 2.362l-10.237.393 1.575-4.724 1.969.788 9.842-4.725 3.937 2.362-9.449 4.725 2.362 1.181z"/><use xlink:href="#G" fill="#0e6f9c"/></g><use xlink:href="#G" fill="none" class="C D G"/></symbol><defs ><path id="C" d="M28.347 22.047c15.748 0 28.347-5.118 28.347-11.024C56.693 4.724 44.095 0 28.347 0S0 4.724 0 11.024c0 5.906 12.599 11.024 28.347 11.024z"/><path id="D" d="M55.906 8.661c-8.268-2.362-11.024 2.362-15.748 2.362-6.693 0-4.331-3.15-11.811-3.15-9.055 0-5.512 3.15-11.811 3.15-4.724 0-6.693-3.937-16.142-2.362C0 9.449 0 10.236 0 11.811c8.662-2.362 11.417 2.362 16.536 1.969 7.48 0 3.543-3.15 11.811-2.756 7.874.394 3.937 3.15 11.811 3.15 6.693 0 7.48-4.724 16.536-2.756 0 0 .394-1.181-.787-2.756z"/><path id="E" d="M48.819 3.149c-4.724-.787-3.543 2.362-8.661 2.362-6.693 0-3.937-3.15-11.417-3.15-9.055 0-6.299 3.15-12.599 3.15-4.331.394-5.512-1.968-9.449-1.968-1.181.787-3.15 1.968-4.331 2.756 6.693-1.575 9.449 1.969 13.78 1.969 7.48 0 3.937-3.15 12.205-2.756 7.874 0 3.937 2.756 11.811 2.756 5.118 0 5.512-4.331 12.992-2.756 0 0-1.968-1.181-4.331-2.362z"/><path id="F" d="M55.512 14.173c-8.662-2.362-8.662 2.362-14.961 2.362s-3.937-3.15-11.417-3.15c-8.661 0-5.512 2.756-12.205 3.15-4.331 0-9.449-4.331-15.748-2.362.787 1.181 3.937 3.15 3.937 3.15 3.543-1.181 6.299 1.969 11.811 1.969 7.48 0 3.937-3.15 12.205-2.756 7.874 0 3.543 2.756 11.417 2.756 5.906.394 7.087-3.937 12.205-2.756 0 0 1.575-1.181 2.756-2.362z"/><path id="G" d="M56.693 10.236c0 5.906-12.598 11.024-28.347 11.024S0 16.142 0 10.236v16.142c0 5.906 12.599 11.024 28.347 11.024s28.347-5.118 28.347-11.024z"/></defs></svg>