<!DOCTYPE svg PUBLIC "-//W3C//DTD SVG 1.1//EN" "http://www.w3.org/Graphics/SVG/1.1/DTD/svg11.dtd">
<!-- Uploaded to: SVG Repo, www.svgrepo.com, Transformed by: SVG Repo Mixer Tools -->
<svg fill="#C24231" width="64px" height="64px" viewBox="0 0 32 32" version="1.1" xmlns="http://www.w3.org/2000/svg" stroke="#C24231">
<g id="SVGRepo_bgCarrier" stroke-width="0"/>
<g id="SVGRepo_tracerCarrier" stroke-linecap="round" stroke-linejoin="round"/>
<g id="SVGRepo_iconCarrier"> <title>oracle</title> <path d="M21.272 22.141h-10.538c-3.338-0.070-6.017-2.793-6.017-6.141s2.679-6.071 6.011-6.141l0.007-0h10.538c0.003 0 0.007 0 0.011 0 3.391 0 6.141 2.749 6.141 6.141s-2.749 6.141-6.141 6.141c-0.004 0-0.008 0-0.012 0h0.001zM21.513 6.518h-11.022c-5.234 0.004-9.474 4.248-9.474 9.482 0 5.231 4.235 9.472 9.463 9.482h11.033c5.231-0.008 9.469-4.25 9.469-9.482s-4.238-9.474-9.468-9.482h-0.001z"/> </g>
</svg>