<svg version="1.2" baseProfile="tiny-ps" xmlns="http://www.w3.org/2000/svg" viewBox="0 0 1565 1559" width="1565" height="1559">
	<title>logo-blue-svg copy-svg</title>
	<defs>
		<clipPath clipPathUnits="userSpaceOnUse" id="cp1">
			<path d="M0.24 0L6893.26 0L6893.26 1558.22L0.24 1558.22L0.24 0Z" />
		</clipPath>
	</defs>
	<style>
		tspan { white-space:pre }
		.shp0 { fill: #29b5e8 } 
	</style>
	<g id="HOMEPAGE">
		<g id="Snowflake-Homepage-platform-alt-3-Copy">
			<g id="Components-/-Navigation-/-Main">
				<g id="Logo-/-Snowflake-Blue">
					<g id="Layer">
						<g id="Mask">
						</g>
						<g id="Clip-Path: Clip-Path: Fill-1" clip-path="url(#cp1)">
							<g id="Clip-Path: Fill-1">
								<path id="Fill-1" fill-rule="evenodd" class="shp0" d="M522.63 807.57C515.63 830.07 500.44 850.06 478.07 862.84L146.72 1052.69C99.92 1079.39 40.3 1063.56 13.44 1017.38C-13.59 970.94 2.32 911.86 49.08 885.08L234.26 779.17L49.08 672.98C2.32 646.24 -13.67 587.15 13.44 540.88C40.3 494.58 99.92 478.7 146.72 505.4L478.07 695.13C501.37 708.46 516.94 729.6 523.48 753.24C525.68 760.84 526.66 768.44 527.04 776.08C527.3 786.6 525.94 797.26 522.63 807.57ZM612.54 985.38C663 988.98 702.84 1030.84 702.84 1081.77L702.84 1461.36C702.84 1514.89 659.05 1558.22 605.29 1558.22C551.27 1558.22 507.65 1514.89 507.65 1461.36L507.65 1249.05L321.84 1355.29C275.25 1382.2 215.67 1366.28 188.6 1320.06C161.7 1273.75 177.61 1214.37 224.29 1187.63L555.9 998.02C573.72 987.71 593.49 983.76 612.54 985.38ZM952.17 572.85C901.59 569.15 861.83 527.22 861.83 476.33L861.83 96.69C861.83 43.34 905.37 0 959.43 0C1013.44 0 1057.07 43.34 1057.07 96.69L1057.07 309.13L1242.75 202.72C1289.43 175.98 1349.04 191.85 1375.95 238.08C1402.8 284.56 1386.98 343.68 1340.26 370.42L1008.69 560.2C990.87 570.38 971.14 574.37 952.17 572.85ZM224.29 370.42C177.61 343.68 161.7 284.56 188.6 238.08C215.67 191.85 275.25 175.98 321.84 202.72L507.65 309.13L507.65 96.69C507.65 43.34 551.27 0 605.29 0C659.05 0 702.84 43.34 702.84 96.69L702.84 476.33C702.84 527.22 663 569.15 612.54 572.85C593.49 574.37 573.72 570.38 555.9 560.2L224.29 370.42ZM819.83 952.74C815.88 956.77 808.28 960.04 802.51 960.04L761.99 960.04C756.43 960.04 748.71 956.77 744.68 952.74L606.94 816.27C603 812.41 599.81 804.68 599.81 799.25L599.81 758.97C599.81 753.41 603 745.69 606.94 741.78L744.68 605.27C748.71 601.29 756.43 598.1 761.99 598.1L802.51 598.1C808.16 598.1 815.88 601.29 819.83 605.27L957.65 741.78C961.59 745.69 964.77 753.41 964.77 758.97L964.77 799.25C964.77 804.68 961.59 812.41 957.65 816.27L819.83 952.74ZM847.49 778.37C847.49 772.85 844.14 765.17 840.19 761.09L800.26 721.7C796.36 717.8 788.6 714.57 783.04 714.57L781.47 714.57C775.91 714.57 768.19 717.8 764.32 721.7L724.4 761.09C720.41 765.17 717.35 772.85 717.35 778.37L717.35 779.94C717.35 785.37 720.41 792.97 724.4 796.96L764.32 836.43C768.23 840.34 775.91 843.56 781.47 843.56L783.04 843.56C788.6 843.56 796.36 840.34 800.26 836.43L840.19 796.96C844.14 792.97 847.49 785.37 847.49 779.94L847.49 778.37ZM1340.26 1187.63C1386.98 1214.37 1402.8 1273.75 1375.95 1320.06C1349.04 1366.28 1289.38 1382.2 1242.75 1355.29L1057.07 1249.05L1057.07 1461.36C1057.07 1514.89 1013.44 1558.22 959.43 1558.22C905.37 1558.22 861.83 1514.89 861.83 1461.36L861.83 1081.77C861.83 1030.84 901.59 988.98 952.17 985.38C971.14 983.76 990.87 987.71 1008.69 998.02L1340.26 1187.63ZM1330.37 779.17L1515.55 885.08C1562.31 911.86 1578.31 970.94 1551.28 1017.38C1524.29 1063.56 1464.59 1079.39 1418 1052.69L1086.39 862.84C1064.24 850.06 1048.92 830.07 1042.09 807.57C1038.86 797.26 1037.33 786.6 1037.72 776.08C1037.89 768.44 1039.03 760.84 1041.15 753.24C1047.77 729.6 1063.35 708.46 1086.39 695.13L1418 505.4C1464.59 478.7 1524.29 494.58 1551.28 540.88C1578.31 587.15 1562.31 646.24 1515.55 672.98L1330.37 779.17Z" />
							</g>
						</g>
					</g>
				</g>
			</g>
		</g>
	</g>
</svg>