<svg width="14" height="15" viewBox="0 0 14 15" fill="none" xmlns="http://www.w3.org/2000/svg">
<path d="M5.0714 3.13201C5.47007 1.96534 7.08207 1.93001 7.55474 3.02601L7.59474 3.13268L8.13274 4.70601C8.25603 5.06683 8.45527 5.39702 8.71702 5.67429C8.97877 5.95157 9.29694 6.16948 9.65007 6.31334L9.79474 6.36734L11.3681 6.90468C12.5347 7.30334 12.5701 8.91534 11.4747 9.38801L11.3681 9.42801L9.79474 9.96601C9.43379 10.0892 9.10348 10.2884 8.82608 10.5502C8.54869 10.8119 8.33067 11.1301 8.18674 11.4833L8.13274 11.6273L7.5954 13.2013C7.19674 14.368 5.58474 14.4033 5.11274 13.308L5.0714 13.2013L4.53407 11.628C4.41086 11.2671 4.21165 10.9368 3.9499 10.6594C3.68814 10.382 3.36993 10.1639 3.01674 10.02L2.87274 9.96601L1.2994 9.42868C0.132069 9.03001 0.0967363 7.41801 1.19274 6.94601L1.2994 6.90468L2.87274 6.36734C3.23356 6.24405 3.56374 6.04481 3.84102 5.78306C4.11829 5.52131 4.33621 5.20314 4.48007 4.85001L4.53407 4.70601L5.0714 3.13201ZM6.3334 3.56268L5.79607 5.13601C5.60833 5.68621 5.30292 6.18888 4.90109 6.60901C4.49927 7.02914 4.0107 7.35663 3.4694 7.56868L3.30274 7.62934L1.7294 8.16668L3.30274 8.70401C3.85294 8.89175 4.35561 9.19716 4.77573 9.59899C5.19586 10.0008 5.52335 10.4894 5.7354 11.0307L5.79607 11.1973L6.3334 12.7707L6.87074 11.1973C7.05848 10.6471 7.36389 10.1445 7.76571 9.72435C8.16753 9.30422 8.65611 8.97673 9.1974 8.76468L9.36407 8.70468L10.9374 8.16668L9.36407 7.62934C8.81387 7.4416 8.3112 7.13619 7.89107 6.73437C7.47094 6.33255 7.14345 5.84398 6.9314 5.30268L6.8714 5.13601L6.3334 3.56268ZM11.6667 0.833344C11.7915 0.833343 11.9137 0.868329 12.0195 0.934325C12.1253 1.00032 12.2105 1.09468 12.2654 1.20668L12.2974 1.28468L12.5307 1.96868L13.2154 2.20201C13.3404 2.24447 13.45 2.32309 13.5302 2.42789C13.6105 2.53269 13.6578 2.65896 13.6663 2.79069C13.6747 2.92243 13.6438 3.0537 13.5775 3.16787C13.5113 3.28204 13.4126 3.37397 13.2941 3.43201L13.2154 3.46401L12.5314 3.69734L12.2981 4.38201C12.2555 4.50696 12.1769 4.61648 12.072 4.69667C11.9672 4.77687 11.8409 4.82414 11.7092 4.83249C11.5774 4.84085 11.4462 4.80991 11.3321 4.7436C11.2179 4.67729 11.1261 4.57859 11.0681 4.46001L11.0361 4.38201L10.8027 3.69801L10.1181 3.46468C9.99308 3.42221 9.88351 3.3436 9.80325 3.2388C9.72299 3.134 9.67564 3.00773 9.66722 2.876C9.65879 2.74426 9.68967 2.61299 9.75592 2.49882C9.82218 2.38465 9.92084 2.29272 10.0394 2.23468L10.1181 2.20268L10.8021 1.96934L11.0354 1.28468C11.0804 1.15296 11.1654 1.03862 11.2786 0.957676C11.3918 0.876736 11.5276 0.83326 11.6667 0.833344Z" fill="#FBFBFB"/>
</svg>
