<svg width="72" height="72" viewBox="0 0 72 72" fill="none" xmlns="http://www.w3.org/2000/svg">
<rect width="72" height="72" rx="16" fill="#EFF0F8"/>
<path d="M36 17C30.9609 17 26.1282 19.0018 22.565 22.565C19.0018 26.1282 17 30.9609 17 36C17 41.0391 19.0018 45.8718 22.565 49.435C26.1282 52.9982 30.9609 55 36 55L36 36V17Z" fill="#5CA380"/>
<path d="M36 55C41.0391 55 45.8718 52.9982 49.435 49.435C52.9982 45.8718 55 41.0391 55 36C55 30.9609 52.9982 26.1282 49.435 22.565C45.8718 19.0018 41.0391 17 36 17L36 36L36 55Z" fill="#5CA380" fill-opacity="0.5"/>
</svg>
