<svg width="14" height="14" viewBox="0 0 14 14" fill="none" xmlns="http://www.w3.org/2000/svg">
	<path d="M4.6 4.6V2.92C4.6 2.24794 4.6 1.91191 4.73079 1.65521C4.84584 1.42942 5.02942 1.24584 5.25521 1.13079C5.51191 1 5.84794 1 6.52 1H11.08C11.7521 1 12.0881 1 12.3448 1.13079C12.5706 1.24584 12.7542 1.42942 12.8692 1.65521C13 1.91191 13 2.24794 13 2.92V7.48C13 8.15206 13 8.4881 12.8692 8.74479C12.7542 8.97058 12.5706 9.15416 12.3448 9.26921C12.0881 9.4 11.7521 9.4 11.08 9.4H9.4M2.92 13H7.48C8.15206 13 8.48809 13 8.74479 12.8692C8.97058 12.7542 9.15416 12.5706 9.26921 12.3448C9.4 12.0881 9.4 11.7521 9.4 11.08V6.52C9.4 5.84794 9.4 5.51191 9.26921 5.25521C9.15416 5.02942 8.97058 4.84584 8.74479 4.73079C8.48809 4.6 8.15206 4.6 7.48 4.6H2.92C2.24794 4.6 1.91191 4.6 1.65521 4.73079C1.42942 4.84584 1.24584 5.02942 1.13079 5.25521C1 5.51191 1 5.84794 1 6.52V11.08C1 11.7521 1 12.0881 1.13079 12.3448C1.24584 12.5706 1.42942 12.7542 1.65521 12.8692C1.91191 13 2.24794 13 2.92 13Z" stroke="#797A7C" stroke-linecap="round" stroke-linejoin="round" />
</svg>
	