<svg width="16" height="16" viewBox="0 0 16 16" fill="none" xmlns="http://www.w3.org/2000/svg">
<path d="M3.31 8.5H1.5C1.22 8.5 1 8.28 1 8C1 7.72 1.22 7.5 1.5 7.5H3.31C3.27 7.66 3.24 7.83 3.24 8C3.24 8.17 3.27 8.34 3.31 8.5ZM14.5 7.5H7.17C7.21 7.66 7.24 7.83 7.24 8C7.24 8.17 7.21 8.34 7.17 8.5H14.5C14.78 8.5 15 8.28 15 8C15 7.72 14.78 7.5 14.5 7.5ZM7.17 8.5C6.95 9.36 6.17 10 5.24 10C4.31 10 3.53 9.36 3.31 8.5C3.27 8.34 3.24 8.17 3.24 8C3.24 7.83 3.27 7.66 3.31 7.5C3.53 6.64 4.31 6 5.24 6C6.17 6 6.95 6.64 7.17 7.5C7.21 7.66 7.24 7.83 7.24 8C7.24 8.17 7.21 8.34 7.17 8.5ZM6.24 8C6.24 7.45 5.79 7 5.24 7C4.69 7 4.24 7.45 4.24 8C4.24 8.55 4.69 9 5.24 9C5.79 9 6.24 8.55 6.24 8Z" fill="white"/>
</svg>
