<svg xmlns="http://www.w3.org/2000/svg" viewBox="0 0 24 24" fill="#2496ED" role="img" aria-label="Docker">
  <path d="M13.983 11.078h2.119a.186.186 0 0 0 .186-.185V9.006a.186.186 0 0 0-.186-.186h-2.119a.185.185 0 0 0-.185.185v1.888c0 .102.083.185.185.185m-2.954-5.43h2.118a.186.186 0 0 0 .186-.186V3.574a.186.186 0 0 0-.186-.185h-2.118a.185.185 0 0 0-.185.185v1.888c0 .102.082.185.185.185m0 2.716h2.118a.187.187 0 0 0 .186-.186V6.29a.186.186 0 0 0-.186-.185h-2.118a.185.185 0 0 0-.185.185v1.887c0 .102.082.185.185.186m-2.93 0h2.12a.186.186 0 0 0 .184-.186V6.29a.185.185 0 0 0-.185-.185H8.1a.185.185 0 0 0-.185.185v1.887c0 .102.083.185.185.186m0 2.715h2.12a.185.185 0 0 0 .184-.185V9.006a.185.185 0 0 0-.185-.186H8.1a.185.185 0 0 0-.185.186v1.887c0 .102.083.185.185.185m-2.964 0h2.119a.186.186 0 0 0 .185-.185V9.006a.185.185 0 0 0-.185-.186H5.136a.186.186 0 0 0-.186.186v1.887c0 .102.084.185.186.185m17.272-1.949c-.063-.05-.628-.475-1.83-.475-.31 0-.62.029-.926.085-.226-1.561-1.516-2.31-1.575-2.343l-.314-.181-.206.299a4.3 4.3 0 0 0-.55 1.295c-.21.88-.083 1.708.366 2.42-.542.302-1.41.377-1.589.382H.612a.612.612 0 0 0-.612.612c0 1.034.166 2.07.516 3.043.4 1.072 1.001 1.862 1.789 2.346 1.054.65 2.768.65 2.768.65a13 13 0 0 0 6.32-1.486 18 18 0 0 0 4.93-3.987c1.323.017 2.26-.323 2.685-.866.207-.265.357-.566.45-.882l.063-.302z"/>
</svg>
