<svg width="16" height="16" viewBox="0 0 16 16" fill="none" xmlns="http://www.w3.org/2000/svg">
<path d="M2.66683 2H12.0002C12.3538 2 12.6929 2.14048 12.943 2.39052C13.193 2.64057 13.3335 2.97971 13.3335 3.33333V8.05333C12.3304 7.88414 11.3006 8.10345 10.4535 8.66667H8.00016V11.3333H8.72016C8.64683 11.7867 8.64683 12.2333 8.72016 12.6667H2.66683C2.31321 12.6667 1.97407 12.5262 1.72402 12.2761C1.47397 12.0261 1.3335 11.687 1.3335 11.3333V3.33333C1.3335 2.6 1.9335 2 2.66683 2ZM2.66683 4.66667V7.33333H6.66683V4.66667H2.66683ZM8.00016 4.66667V7.33333H12.0002V4.66667H8.00016ZM2.66683 8.66667V11.3333H6.66683V8.66667H2.66683ZM10.6268 12.3333H11.9602V9.66667H13.2935V12.3333H14.6268L12.6268 14.3333L10.6268 12.3333Z" fill="white"/>
</svg>
