<svg xmlns="http://www.w3.org/2000/svg" version="1.1" xmlns:xlink="http://www.w3.org/1999/xlink" x="0" y="0" viewBox="0 0 24 24" style="enable-background:new 0 0 512 512" xml:space="preserve"><g><path d="M19 13a.75.75 0 0 1-.75.75h-.5v.5a.75.75 0 0 1-1.5 0v-.5h-.5a.75.75 0 0 1 0-1.5h.5v-.5a.75.75 0 0 1 1.5 0v.5h.5A.75.75 0 0 1 19 13zm2.75 0A4.756 4.756 0 0 1 17 17.75a4.689 4.689 0 0 1-2.25-.593V21a.75.75 0 0 1-1.2.6l-4-3a.75.75 0 0 1-.3-.6v-4a.745.745 0 0 0-.221-.53L3.91 8.35a2.231 2.231 0 0 1-.66-1.59V4.5A2.253 2.253 0 0 1 5.5 2.25h13a2.253 2.253 0 0 1 2.25 2.25v2.26a2.235 2.235 0 0 1-.66 1.591l-.615.614A4.738 4.738 0 0 1 21.75 13zm-8.5 6.5v-3.619a4.7 4.7 0 0 1-1-2.881A4.756 4.756 0 0 1 17 8.25a4.692 4.692 0 0 1 .969.1l1.06-1.061a.745.745 0 0 0 .221-.53V4.5a.751.751 0 0 0-.75-.75h-13a.751.751 0 0 0-.75.75v2.26a.745.745 0 0 0 .221.53l5.119 5.12a2.231 2.231 0 0 1 .66 1.59v3.625zm7-6.5A3.25 3.25 0 1 0 17 16.25 3.254 3.254 0 0 0 20.25 13z" fill="currentColor" opacity="1" data-original="#000000"/></g></svg>