<svg width="48" height="48" viewBox="0 0 48 48" fill="none" xmlns="http://www.w3.org/2000/svg">
<g clip-path="url(#clip0_294_2424)">
<rect width="48" height="48" fill="white" fill-opacity="0.01"/>
<path d="M14.9398 11.999C14.715 11.9993 14.4931 12.0502 14.2906 12.1478C14.0881 12.2454 13.9101 12.3873 13.7698 12.563L4.61983 23.999H17.9998C18.3977 23.999 18.7792 24.1571 19.0605 24.4384C19.3418 24.7197 19.4998 25.1012 19.4998 25.499C19.4998 26.6925 19.9739 27.8371 20.8179 28.681C21.6618 29.5249 22.8064 29.999 23.9998 29.999C25.1933 29.999 26.3379 29.5249 27.1818 28.681C28.0257 27.8371 28.4998 26.6925 28.4998 25.499C28.4998 25.1012 28.6579 24.7197 28.9392 24.4384C29.2205 24.1571 29.602 23.999 29.9998 23.999H43.3798L34.2298 12.563C34.0895 12.3873 33.9116 12.2454 33.709 12.1478C33.5065 12.0502 33.2847 11.9993 33.0598 11.999H14.9398ZM44.8018 26.999H31.3498C31.0056 28.6945 30.0857 30.2187 28.7462 31.3136C27.4067 32.4084 25.7299 33.0065 23.9998 33.0065C22.2698 33.0065 20.593 32.4084 19.2534 31.3136C17.9139 30.2187 16.9941 28.6945 16.6498 26.999H3.19783L4.15783 34.685C4.20323 35.0483 4.37987 35.3824 4.6545 35.6244C4.92913 35.8664 5.28278 35.9997 5.64883 35.999H42.3508C42.7164 35.9989 43.0693 35.8653 43.3433 35.6234C43.6173 35.3814 43.7935 35.0477 43.8388 34.685L44.7988 26.999H44.8018ZM11.4268 10.688C11.8486 10.1607 12.3837 9.73514 12.9923 9.44276C13.601 9.15039 14.2676 8.99873 14.9428 8.99902H33.0568C33.7321 8.99873 34.3987 9.15039 35.0074 9.44276C35.616 9.73514 36.151 10.1607 36.5728 10.688L47.6728 24.563C47.7975 24.7196 47.8897 24.8995 47.9438 25.0922C47.9978 25.2849 48.0128 25.4864 47.9878 25.685L46.8178 35.057C46.6818 36.1457 46.1527 37.1472 45.3301 37.8731C44.5075 38.599 43.448 38.9994 42.3508 38.999H5.64883C4.5517 38.9994 3.49221 38.599 2.66958 37.8731C1.84696 37.1472 1.31788 36.1457 1.18183 35.057L0.0118346 25.685C-0.0127542 25.4862 0.00271582 25.2846 0.057332 25.0919C0.111948 24.8992 0.204604 24.7193 0.329835 24.563L11.4298 10.688H11.4268Z" fill="#5960B2"/>
</g>
<defs>
<clipPath id="clip0_294_2424">
<rect width="48" height="48" fill="white"/>
</clipPath>
</defs>
</svg>
