<svg width="24" height="24" viewBox="0 0 24 24" fill="white" xmlns="http://www.w3.org/2000/svg">
<path d="M2.5 12C2.5 7.522 2.5 5.282 3.891 3.891C5.282 2.5 7.521 2.5 12 2.5C16.478 2.5 18.718 2.5 20.109 3.891C21.5 5.282 21.5 7.521 21.5 12C21.5 16.478 21.5 18.718 20.109 20.109C18.718 21.5 16.479 21.5 12 21.5C7.522 21.5 5.282 21.5 3.891 20.109C2.5 18.718 2.5 16.479 2.5 12Z" stroke="white" stroke-width="1.5" stroke-linecap="round" stroke-linejoin="round"/>
<path d="M8.41519 10C8.32354 9.74076 8.16239 9.5117 7.94935 9.33786C7.73632 9.16401 7.4796 9.05206 7.20725 9.01425C6.9349 8.97644 6.65739 9.01422 6.40506 9.12345C6.15272 9.23269 5.93527 9.40919 5.77646 9.63365C5.61765 9.85812 5.52359 10.1219 5.50457 10.3962C5.48555 10.6705 5.54229 10.9448 5.6686 11.189C5.7949 11.4333 5.98591 11.6381 6.22075 11.7811C6.45559 11.9241 6.72523 11.9999 7.00019 12C7.27516 12.0001 7.54479 12.0759 7.77963 12.2189C8.01447 12.3619 8.20548 12.5667 8.33179 12.811C8.45809 13.0552 8.51483 13.3295 8.49581 13.6038C8.47679 13.8781 8.38273 14.1419 8.22392 14.3663C8.06511 14.5908 7.84766 14.7673 7.59532 14.8765C7.34299 14.9858 7.06548 15.0236 6.79313 14.9857C6.52078 14.9479 6.26406 14.836 6.05103 14.6621C5.83799 14.4883 5.67685 14.2592 5.58519 14M12.5002 15C12.1024 15 11.7208 14.842 11.4395 14.5607C11.1582 14.2794 11.0002 13.8978 11.0002 13.5V10.5C11.0002 10.1022 11.1582 9.72064 11.4395 9.43934C11.7208 9.15804 12.1024 9 12.5002 9C12.898 9 13.2795 9.15804 13.5609 9.43934C13.8422 9.72064 14.0002 10.1022 14.0002 10.5V13.5C14.0002 13.8978 13.8422 14.2794 13.5609 14.5607C13.2795 14.842 12.898 15 12.5002 15ZM12.5002 15L14.0002 16.5M16.5002 9V13C16.5002 13.943 16.5002 14.414 16.7932 14.707C17.0862 15 17.5572 15 18.5002 15" stroke="black" stroke-width="1.5" stroke-linecap="round" stroke-linejoin="round"/>
</svg>
