<svg width="16" height="16" viewBox="0 0 16 16" fill="none" xmlns="http://www.w3.org/2000/svg">
<path d="M5.33334 5.99935C5.14445 5.99935 4.98622 5.93535 4.85867 5.80735C4.73111 5.67935 4.66711 5.52113 4.66667 5.33268C4.66622 5.14424 4.73022 4.98602 4.85867 4.85802C4.98711 4.73002 5.14534 4.66602 5.33334 4.66602H13.3333C13.5222 4.66602 13.6807 4.73002 13.8087 4.85802C13.9367 4.98602 14.0004 5.14424 14 5.33268C13.9996 5.52113 13.9356 5.67957 13.808 5.80802C13.6804 5.93646 13.5222 6.00024 13.3333 5.99935H5.33334ZM5.33334 8.66602C5.14445 8.66602 4.98622 8.60202 4.85867 8.47402C4.73111 8.34602 4.66711 8.18779 4.66667 7.99935C4.66622 7.8109 4.73022 7.65268 4.85867 7.52468C4.98711 7.39668 5.14534 7.33268 5.33334 7.33268H13.3333C13.5222 7.33268 13.6807 7.39668 13.8087 7.52468C13.9367 7.65268 14.0004 7.8109 14 7.99935C13.9996 8.18779 13.9356 8.34624 13.808 8.47468C13.6804 8.60313 13.5222 8.6669 13.3333 8.66602H5.33334ZM5.33334 11.3327C5.14445 11.3327 4.98622 11.2687 4.85867 11.1407C4.73111 11.0127 4.66711 10.8545 4.66667 10.666C4.66622 10.4776 4.73022 10.3193 4.85867 10.1913C4.98711 10.0633 5.14534 9.99935 5.33334 9.99935H13.3333C13.5222 9.99935 13.6807 10.0633 13.8087 10.1913C13.9367 10.3193 14.0004 10.4776 14 10.666C13.9996 10.8545 13.9356 11.0129 13.808 11.1413C13.6804 11.2698 13.5222 11.3336 13.3333 11.3327H5.33334ZM2.66667 5.99935C2.47778 5.99935 2.31956 5.93535 2.192 5.80735C2.06445 5.67935 2.00045 5.52113 2 5.33268C1.99956 5.14424 2.06356 4.98602 2.192 4.85802C2.32045 4.73002 2.47867 4.66602 2.66667 4.66602C2.85467 4.66602 3.01311 4.73002 3.142 4.85802C3.27089 4.98602 3.33467 5.14424 3.33334 5.33268C3.332 5.52113 3.268 5.67957 3.14134 5.80802C3.01467 5.93646 2.85645 6.00024 2.66667 5.99935ZM2.66667 8.66602C2.47778 8.66602 2.31956 8.60202 2.192 8.47402C2.06445 8.34602 2.00045 8.18779 2 7.99935C1.99956 7.8109 2.06356 7.65268 2.192 7.52468C2.32045 7.39668 2.47867 7.33268 2.66667 7.33268C2.85467 7.33268 3.01311 7.39668 3.142 7.52468C3.27089 7.65268 3.33467 7.8109 3.33334 7.99935C3.332 8.18779 3.268 8.34624 3.14134 8.47468C3.01467 8.60313 2.85645 8.6669 2.66667 8.66602ZM2.66667 11.3327C2.47778 11.3327 2.31956 11.2687 2.192 11.1407C2.06445 11.0127 2.00045 10.8545 2 10.666C1.99956 10.4776 2.06356 10.3193 2.192 10.1913C2.32045 10.0633 2.47867 9.99935 2.66667 9.99935C2.85467 9.99935 3.01311 10.0633 3.142 10.1913C3.27089 10.3193 3.33467 10.4776 3.33334 10.666C3.332 10.8545 3.268 11.0129 3.14134 11.1413C3.01467 11.2698 2.85645 11.3336 2.66667 11.3327Z" fill="black"/>
</svg>
