<?xml version="1.0" encoding="iso-8859-1"?>
<!-- Uploaded to: SVG Repo, www.svgrepo.com, Generator: SVG Repo Mixer Tools -->
<svg version="1.1" id="Layer_1" xmlns="http://www.w3.org/2000/svg" xmlns:xlink="http://www.w3.org/1999/xlink" 
	 viewBox="0 0 512 512" xml:space="preserve">
<rect x="26.483" y="66.207" style="fill:#18BDF6;" width="459.034" height="247.172"/>
<path style="fill:#464655;" d="M494.345,39.724H17.655C7.905,39.724,0,47.628,0,57.379v317.793c0,9.75,7.905,17.655,17.655,17.655
	h476.69c9.75,0,17.655-7.905,17.655-17.655V57.379C512,47.628,504.095,39.724,494.345,39.724z M485.517,313.379H26.483V66.207
	h459.034V313.379z"/>
<path style="fill:#C7CFE2;" d="M0,339.862v35.31c0,9.751,7.904,17.655,17.655,17.655h476.69c9.751,0,17.655-7.904,17.655-17.655
	v-35.31H0z"/>
<polygon style="fill:#AFB9D2;" points="326.621,463.448 185.379,463.448 194.207,392.828 317.793,392.828 "/>
<g>
	<polygon style="fill:#959CB3;" points="320,410.483 317.793,392.828 194.207,392.828 192,410.483 	"/>
	<circle style="fill:#959CB3;" cx="256" cy="366.345" r="13.241"/>
</g>
<path style="fill:#C7CFE2;" d="M326.621,472.276H185.379c-4.875,0-8.828-3.953-8.828-8.828l0,0c0-4.875,3.953-8.828,8.828-8.828
	h141.241c4.875,0,8.828,3.953,8.828,8.828l0,0C335.448,468.323,331.496,472.276,326.621,472.276z"/>
<path style="fill:#FFFFFF;" d="M256.589,107.052c-60.557,0-113.985,27.772-146.433,70.201c-5.634,7.368-5.634,17.711,0,25.079
	c32.448,42.43,85.876,70.201,146.433,70.201s113.985-27.772,146.433-70.201c5.634-7.368,5.634-17.711,0-25.079
	C370.574,134.824,317.146,107.052,256.589,107.052z"/>
<circle style="fill:#18BDF6;" cx="256.585" cy="189.793" r="62.058"/>
<path style="fill:#00A0EB;" d="M225.562,189.793c0-28.906,19.791-53.122,46.541-60.022c-4.968-1.281-10.147-2.034-15.513-2.034
	c-34.272,0-62.056,27.783-62.056,62.056s27.783,62.056,62.056,62.056c5.367,0,10.547-0.753,15.513-2.034
	C245.353,242.915,225.562,218.699,225.562,189.793z"/>
<circle style="fill:#535463;" cx="256.585" cy="189.793" r="31.029"/>
<g>
	<circle style="fill:#FFFFFF;" cx="272.099" cy="174.279" r="15.514"/>
	<circle style="fill:#FFFFFF;" cx="235.906" cy="210.483" r="10.343"/>
</g>
</svg>