<svg width="79" height="86" viewBox="0 0 79 86" fill="none" xmlns="http://www.w3.org/2000/svg">
<g clip-path="url(#clip0_73_770)">
<path d="M88.5144 32.7182C89.9247 32.7182 91.2444 32.9861 92.4736 33.5148C93.7028 34.0471 94.7788 34.7802 95.7015 35.7142C96.6243 36.6484 97.3486 37.7375 97.8744 38.9818C98.4002 40.226 98.6614 41.5618 98.6614 42.9893C98.6614 44.4168 98.3967 45.7139 97.8744 46.9581C97.3486 48.2023 96.6243 49.2915 95.7015 50.2255C94.7788 51.1595 93.7028 51.8927 92.4736 52.4249C91.2444 52.9571 89.9247 53.2215 88.5144 53.2215C87.1041 53.2215 85.7844 52.9536 84.5552 52.4249C83.326 51.8927 82.25 51.1595 81.3273 50.2255C80.4045 49.2915 79.6802 48.2023 79.1544 46.9581C78.6286 45.7139 78.3674 44.3886 78.3674 42.9893C78.3674 41.59 78.6286 40.226 79.1544 38.9818C79.6802 37.7375 80.4045 36.6484 81.3273 35.7142C82.25 34.7802 83.326 34.0471 84.5552 33.5148C85.7844 32.9826 87.1041 32.7182 88.5144 32.7182ZM88.5144 37.3851C86.9753 37.3851 85.6695 37.9279 84.5935 39.0205C83.5175 40.1097 82.9778 41.4314 82.9778 42.9893C82.9778 44.5472 83.514 45.8302 84.5935 46.9193C85.1054 47.4657 85.7008 47.871 86.3798 48.1459C87.0589 48.4173 87.7692 48.5548 88.5144 48.5548C89.2596 48.5548 89.963 48.4173 90.6281 48.1459C91.2931 47.8745 91.8956 47.4657 92.4353 46.9193C93.5113 45.8302 94.0475 44.519 94.0475 42.9893C94.0475 41.4596 93.5113 40.1097 92.4353 39.0205C91.3071 37.9314 90.0013 37.3851 88.5144 37.3851Z" fill="#121212"/>
<path d="M58.1185 26.2328C56.4644 28.9186 52.9997 29.761 50.3254 28.1537C50.3115 28.1467 50.2976 28.1361 50.2836 28.129C50.2384 28.1008 50.1931 28.0726 50.1478 28.0444C42.0762 23.0464 31.5184 25.5454 26.4763 33.6628C28.0537 30.9594 27.2215 27.4593 24.5716 25.7886C21.8938 24.0968 18.3733 24.9145 16.688 27.6109C16.695 27.5968 16.7054 27.5862 16.7124 27.5721C25.1078 13.9527 42.797 9.78305 56.2694 18.2282C56.2764 18.2282 56.2799 18.2352 56.2868 18.2388C56.2868 18.2388 56.2903 18.2388 56.2938 18.2423C58.9751 19.9412 59.7934 23.5187 58.1185 26.2363V26.2328Z" fill="#6B76E3"/>
<path d="M24.1328 59.7419C22.4613 62.4524 23.2692 66.0159 25.933 67.7218C25.9191 67.7148 25.9087 67.7042 25.8947 67.6971C12.4955 59.2344 8.35171 41.4312 16.5661 27.8188C16.6009 27.7589 16.6357 27.699 16.674 27.6391C16.681 27.6285 16.6845 27.6179 16.6914 27.6074C18.3768 24.911 21.8972 24.0932 24.575 25.7851C27.2214 27.4558 28.0572 30.9558 26.4797 33.6592C26.4797 33.6628 26.4797 33.6663 26.4728 33.6698C26.4658 33.6839 26.4554 33.698 26.4484 33.7121C26.4205 33.7579 26.3927 33.8038 26.3648 33.8496C26.3648 33.8566 26.3579 33.8602 26.3544 33.8672C21.4341 42.0409 23.9064 52.7172 31.9293 57.8139C29.2585 56.2067 25.7938 57.0526 24.1397 59.7349L24.1328 59.7419Z" fill="#F45B49"/>
<path d="M65.5781 58.3425C65.5642 58.3637 65.5538 58.3848 65.5398 58.406C57.1792 71.969 39.5909 76.1633 26.143 67.8486C26.0838 67.8134 26.0246 67.7781 25.9654 67.7393C25.955 67.7323 25.9445 67.7288 25.9341 67.7217C23.2702 66.0158 22.4624 62.4523 24.1338 59.7418C25.7878 57.0595 29.2526 56.2136 31.9234 57.8209C31.9373 57.8279 31.9512 57.8385 31.9652 57.8455C32.0104 57.8737 32.0557 57.9019 32.101 57.9301C32.101 57.9301 32.1079 57.9301 32.1079 57.9372C40.1829 62.9281 50.7407 60.4256 55.7794 52.3012C54.1915 55.0047 55.0238 58.5152 57.6737 60.1895C60.3584 61.8848 63.8963 61.0601 65.5747 58.3425H65.5781Z" fill="#5ACA7A"/>
<path d="M65.5881 58.318C65.5881 58.318 65.5811 58.3286 65.5777 58.3356C65.5777 58.3356 65.5777 58.3391 65.5742 58.3427C63.8958 61.0567 60.3614 61.885 57.6732 60.1896C55.0233 58.5154 54.191 55.0083 55.7789 52.3013C55.7859 52.2873 55.7963 52.2732 55.8033 52.2591C55.8311 52.2132 55.859 52.1674 55.8869 52.1216C60.8245 43.9443 58.3557 33.2539 50.3224 28.1537C52.9932 29.761 56.4614 28.9186 58.1154 26.2328C59.7903 23.5152 58.9755 19.9377 56.2908 18.2388C56.3117 18.2529 56.3326 18.2635 56.3535 18.2776C69.8085 26.7756 73.9278 44.681 65.5846 58.318H65.5881Z" fill="#45A4F3"/>
<path d="M34.8201 47.6791V38.3191C34.8201 37.4917 35.1488 36.6981 35.7339 36.113C36.319 35.5279 37.1126 35.1991 37.9401 35.1991C38.7675 35.1991 39.5611 35.5279 40.1462 36.113C40.7314 36.6981 41.0601 37.4917 41.0601 38.3191V47.6791M34.8201 42.9991H41.0601M47.3001 35.1991V47.6791" stroke="black" stroke-width="2.08" stroke-linecap="round" stroke-linejoin="round"/>
</g>
<defs>
<clipPath id="clip0_73_770">
<rect width="78" height="84.24" fill="white" transform="translate(0.5 0.880005)"/>
</clipPath>
</defs>
</svg>
