<svg width="60" height="84" viewBox="0 0 60 84" fill="none" xmlns="http://www.w3.org/2000/svg">
<g clip-path="url(#clip0_36_1282)">
<path d="M47.3676 25.2808C45.6634 27.959 42.0935 28.799 39.3381 27.1963C39.3237 27.1893 39.3094 27.1787 39.295 27.1717C39.2484 27.1436 39.2017 27.1155 39.1551 27.0873C30.8386 22.1036 19.9604 24.5955 14.7653 32.6897C16.3905 29.9939 15.533 26.5039 12.8027 24.838C10.0437 23.1509 6.41643 23.9663 4.67993 26.655C4.68711 26.641 4.69787 26.6304 4.70505 26.6164C13.3552 13.0358 31.5812 8.87796 45.4624 17.299C45.4696 17.299 45.4732 17.3061 45.4804 17.3096C45.4804 17.3096 45.484 17.3096 45.4876 17.3131C48.2502 19.0072 49.0933 22.5745 47.3676 25.2843V25.2808Z" fill="#6B76E3"/>
<path d="M12.3502 58.6929C10.6281 61.3957 11.4604 64.949 14.2051 66.6501C14.1907 66.6431 14.18 66.6325 14.1656 66.6255C0.359754 58.1868 -3.90974 40.4344 4.5539 26.8608C4.58978 26.8011 4.62565 26.7413 4.66512 26.6816C4.67229 26.671 4.67588 26.6605 4.68306 26.6499C6.41956 23.9612 10.0468 23.1458 12.8059 24.8329C15.5326 26.4988 16.3937 29.9888 14.7684 32.6846C14.7684 32.6881 14.7684 32.6916 14.7612 32.6951C14.754 32.7092 14.7433 32.7232 14.7361 32.7373C14.7074 32.783 14.6787 32.8287 14.65 32.8744C14.65 32.8814 14.6428 32.8849 14.6392 32.8919C9.56965 41.0424 12.117 51.6883 20.3833 56.7704C17.6314 55.1678 14.0616 56.0113 12.3574 58.6859L12.3502 58.6929Z" fill="#F45B49"/>
<path d="M55.0521 57.2985C55.0377 57.3196 55.027 57.3407 55.0126 57.3618C46.3983 70.8861 28.2763 75.0686 14.4203 66.7775C14.3594 66.7424 14.2984 66.7072 14.2374 66.6686C14.2266 66.6615 14.2158 66.658 14.2051 66.651C11.4604 64.9499 10.628 61.3966 12.3502 58.6938C14.0544 56.0192 17.6243 55.1757 20.3761 56.7783C20.3905 56.7854 20.4048 56.7959 20.4192 56.8029C20.4658 56.8311 20.5124 56.8592 20.5591 56.8873C20.5591 56.8873 20.5663 56.8873 20.5663 56.8943C28.8862 61.8711 39.7645 59.3757 44.956 51.2744C43.32 53.9701 44.1775 57.4707 46.9078 59.1402C49.674 60.8307 53.3192 60.0083 55.0485 57.2985H55.0521Z" fill="#5ACA7A"/>
<path d="M55.0632 57.2746C55.0632 57.2746 55.056 57.2851 55.0524 57.2922C55.0524 57.2922 55.0524 57.2957 55.0488 57.2992C53.3195 60.0055 49.6779 60.8314 46.9081 59.1409C44.1778 57.4714 43.3203 53.9743 44.9563 51.2751C44.9635 51.261 44.9743 51.247 44.9814 51.2329C45.0101 51.1872 45.0388 51.1415 45.0675 51.0959C50.155 42.9419 47.6113 32.282 39.3342 27.1963C42.0861 28.7989 45.6595 27.9589 47.3637 25.2808C49.0895 22.571 48.2499 19.0036 45.4837 17.3096C45.5053 17.3236 45.5268 17.3342 45.5483 17.3482C59.4116 25.822 63.656 43.6764 55.0596 57.2746H55.0632Z" fill="#45A4F3"/>
<path d="M32.1478 54.937L26.9204 38.5587L23.7452 50.2133L20.4767 43.5917C20.4229 43.4792 20.3045 43.4089 20.179 43.4089H13.8572C13.215 43.4089 12.6804 42.9134 12.6661 42.2842C12.6661 42.2702 12.6661 42.2526 12.6661 42.2385C12.6589 41.5989 13.2043 41.0857 13.8572 41.0857H20.179C21.2158 41.0857 22.1594 41.6657 22.6115 42.5795L23.103 43.5741L26.741 30.2148L32.1442 47.1415L36.1948 34.3938L38.8821 40.5621C38.9503 40.7202 39.1117 40.8257 39.2875 40.8257H46.0398C46.682 40.8257 47.2202 41.3283 47.2166 41.9574C47.2166 41.9785 47.2166 41.9995 47.2166 42.0206C47.2094 42.6462 46.6784 43.1488 46.0362 43.1488H38.8319C37.978 43.1488 37.2102 42.6498 36.8729 41.8836L36.5357 41.1139L32.1406 54.937H32.1478Z" fill="#333333"/>
</g>
<defs>
<clipPath id="clip0_36_1282">
<rect width="60" height="84" fill="white"/>
</clipPath>
</defs>
</svg>
