<svg width="893" height="239" viewBox="0 0 893 239" fill="none" xmlns="http://www.w3.org/2000/svg">
<path d="M252.76 90.3296C256.81 90.3296 260.6 91.0896 264.13 92.5896C267.66 94.0996 270.75 96.1796 273.4 98.8296C276.05 101.48 278.13 104.57 279.64 108.1C281.15 111.63 281.9 115.42 281.9 119.47C281.9 123.52 281.14 127.2 279.64 130.73C278.13 134.26 276.05 137.35 273.4 140C270.75 142.65 267.66 144.73 264.13 146.24C260.6 147.75 256.81 148.5 252.76 148.5C248.71 148.5 244.92 147.74 241.39 146.24C237.86 144.73 234.77 142.65 232.12 140C229.47 137.35 227.39 134.26 225.88 130.73C224.37 127.2 223.62 123.44 223.62 119.47C223.62 115.5 224.37 111.63 225.88 108.1C227.39 104.57 229.47 101.48 232.12 98.8296C234.77 96.1796 237.86 94.0996 241.39 92.5896C244.92 91.0796 248.71 90.3296 252.76 90.3296ZM252.76 103.57C248.34 103.57 244.59 105.11 241.5 108.21C238.41 111.3 236.86 115.05 236.86 119.47C236.86 123.89 238.4 127.53 241.5 130.62C242.97 132.17 244.68 133.32 246.63 134.1C248.58 134.87 250.62 135.26 252.76 135.26C254.9 135.26 256.92 134.87 258.83 134.1C260.74 133.33 262.47 132.17 264.02 130.62C267.11 127.53 268.65 123.81 268.65 119.47C268.65 115.13 267.11 111.3 264.02 108.21C260.78 105.12 257.03 103.57 252.76 103.57Z" fill="#121212"/>
<path d="M295.75 135.25H317.12C319.25 135.25 321.28 134.86 323.19 134.09C325.1 133.32 326.83 132.16 328.38 130.61C331.47 127.52 333.02 123.8 333.02 119.46C333.02 115.12 331.47 111.29 328.38 108.2C325.14 105.11 321.39 103.56 317.12 103.56C312.85 103.56 308.95 105.1 305.86 108.2C302.77 111.29 301.22 115.04 301.22 119.46V169.13H287.97V91.7496H301.22V96.1596C303.35 94.4696 305.82 93.0696 308.62 91.9696C311.42 90.8696 314.62 90.3096 318.22 90.3096C322.27 90.3096 326 91.0696 329.42 92.5696C332.84 94.0796 335.8 96.1596 338.31 98.8096C340.81 101.46 342.76 104.55 344.16 108.08C345.56 111.61 346.26 115.4 346.26 119.45C346.26 123.5 345.56 127.18 344.16 130.71C342.76 134.24 340.81 137.33 338.31 139.98C335.81 142.63 332.85 144.71 329.42 146.22C326 147.73 322.26 148.48 318.22 148.48H295.75V135.23V135.25Z" fill="#121212"/>
<path d="M394.27 126.09H365.35C366.08 127.78 367.15 129.29 368.55 130.62C370.09 132.17 371.82 133.32 373.74 134.1C375.65 134.87 377.67 135.26 379.81 135.26C382.83 135.26 385.51 134.56 387.87 133.16L401.67 138.68C399.02 141.77 395.82 144.18 392.07 145.91C388.32 147.64 384.23 148.5 379.82 148.5C375.77 148.5 371.98 147.74 368.45 146.24C364.92 144.73 361.83 142.65 359.18 140C356.53 137.35 354.45 134.26 352.94 130.73C351.43 127.2 350.68 123.44 350.68 119.47C350.68 115.5 351.43 111.63 352.94 108.1C354.45 104.57 356.53 101.48 359.18 98.8296C361.83 96.1796 364.92 94.0996 368.45 92.5896C371.98 91.0796 375.77 90.3296 379.82 90.3296C383.87 90.3296 387.66 91.0896 391.19 92.5896C394.72 94.0996 397.81 96.1796 400.46 98.8296C403.11 101.48 405.19 104.57 406.7 108.1C408.21 111.63 408.96 115.42 408.96 119.47C408.96 121.83 408.7 124.03 408.19 126.09H394.28H394.27ZM379.81 103.57C375.54 103.57 371.79 105.11 368.55 108.21C367.15 109.61 366.08 111.15 365.35 112.85H394.27C393.53 111.16 392.47 109.61 391.07 108.21C387.98 105.12 384.23 103.57 379.81 103.57Z" fill="#121212"/>
<path d="M442.83 90.3296C446.43 90.3296 449.71 91.0096 452.65 92.3696C455.59 93.7296 458.11 95.6096 460.21 97.9996C462.31 100.39 463.93 103.17 465.07 106.33C466.21 109.49 466.78 112.88 466.78 116.49V147.07H453.53V116.49C453.53 112.81 452.24 109.76 449.67 107.33C447.17 104.83 444.15 103.58 440.62 103.58C437.09 103.58 433.96 104.83 431.46 107.33C428.96 109.83 427.71 112.89 427.71 116.49V147.07H414.46V91.8796H427.71V96.0796C429.7 94.3896 431.94 93.0096 434.44 91.9396C436.94 90.8696 439.74 90.3396 442.83 90.3396V90.3296Z" fill="#121212"/>
<path d="M500.89 90.3296C504.94 90.3296 508.73 91.0896 512.26 92.5896C515.79 94.0996 518.88 96.1796 521.53 98.8296C524.18 101.48 526.26 104.57 527.77 108.1C529.28 111.63 530.03 115.42 530.03 119.47C530.03 123.52 529.27 127.2 527.77 130.73C526.26 134.26 524.18 137.35 521.53 140C518.88 142.65 515.79 144.73 512.26 146.24C508.73 147.75 504.94 148.5 500.89 148.5C496.84 148.5 493.05 147.74 489.52 146.24C485.99 144.73 482.9 142.65 480.25 140C477.6 137.35 475.52 134.26 474.01 130.73C472.5 127.2 471.75 123.44 471.75 119.47C471.75 115.5 472.5 111.63 474.01 108.1C475.52 104.57 477.6 101.48 480.25 98.8296C482.9 96.1796 485.99 94.0996 489.52 92.5896C493.05 91.0796 496.84 90.3296 500.89 90.3296ZM500.89 103.57C496.47 103.57 492.72 105.11 489.63 108.21C486.54 111.3 484.99 115.05 484.99 119.47C484.99 123.89 486.53 127.53 489.63 130.62C491.1 132.17 492.81 133.32 494.76 134.1C496.71 134.87 498.75 135.26 500.89 135.26C503.03 135.26 505.05 134.87 506.96 134.1C508.87 133.33 510.6 132.17 512.15 130.62C515.24 127.53 516.78 123.81 516.78 119.47C516.78 115.13 515.24 111.3 512.15 108.21C508.91 105.12 505.16 103.57 500.89 103.57Z" fill="#121212"/>
<path d="M536.1 134.26L565.24 134.37C569.73 134.37 573.48 132.82 576.5 129.73C579.59 126.64 581.14 122.92 581.14 118.58C581.14 114.24 579.59 110.41 576.5 107.32C573.41 104.23 569.66 102.68 565.24 102.68C560.82 102.68 557.22 104.23 553.98 107.32C550.89 110.41 549.34 114.16 549.34 118.58V146.18H536.09V68.7998H549.34V95.2898C551.47 93.5998 553.94 92.1998 556.74 91.0998C559.54 89.9998 562.74 89.4398 566.34 89.4398C570.39 89.4398 574.12 90.1998 577.54 91.6998C580.96 93.2098 583.92 95.2898 586.43 97.9398C588.93 100.59 590.88 103.68 592.28 107.21C593.68 110.74 594.38 114.53 594.38 118.58C594.38 122.63 593.68 126.31 592.28 129.84C590.88 133.37 588.93 136.46 586.43 139.11C583.93 141.76 580.97 143.84 577.54 145.35C574.12 146.86 570.38 147.61 566.34 147.61H536.1" fill="#121212"/>
<path d="M620.21 112.84C621.09 113.06 622.56 113.58 624.63 114.38C626.69 115.19 628.81 116.31 630.98 117.75C633.15 119.18 635.05 120.97 636.66 123.1C638.28 125.23 639.09 127.77 639.09 130.72C639.09 133.3 638.67 135.65 637.82 137.78C636.97 139.91 635.74 141.79 634.12 143.41C632.5 145.03 630.51 146.28 628.16 147.16C625.8 148.04 623.15 148.48 620.21 148.48C615.72 148.48 611.55 147.67 607.68 146.05C603.82 144.43 600.71 142.45 598.35 140.09L607.51 130.93C609.42 133.21 611.47 134.68 613.64 135.35C615.81 136.01 617.63 136.34 619.1 136.34C621.38 136.34 623.07 135.9 624.18 135.02C625.28 134.14 625.84 133.07 625.84 131.82C625.84 130.94 625.47 130.16 624.74 129.5C624 128.84 623.14 128.29 622.15 127.84C621.16 127.4 620.14 127.05 619.11 126.79C618.08 126.53 617.23 126.29 616.57 126.07C615.69 125.78 614.2 125.26 612.1 124.52C610 123.79 607.87 122.72 605.7 121.32C603.53 119.92 601.63 118.16 600.01 116.02C598.39 113.89 597.58 111.31 597.58 108.29C597.58 105.27 598.11 102.53 599.18 100.29C600.25 98.0497 601.66 96.1897 603.43 94.7197C605.2 93.2497 607.22 92.1597 609.5 91.4597C611.78 90.7597 614.14 90.4097 616.56 90.4097C620.31 90.4097 623.49 90.8497 626.11 91.7397C628.72 92.6197 630.87 93.5797 632.57 94.6097C634.48 95.8597 636.1 97.2597 637.43 98.7997L628.16 108.07C626.69 106.16 625.07 104.76 623.3 103.88C621.53 103 619.66 102.55 617.67 102.55C616.12 102.55 614.6 102.92 613.09 103.65C611.58 104.39 610.83 105.56 610.83 107.18C610.83 108.06 611.16 108.82 611.82 109.44C612.48 110.07 613.29 110.58 614.25 110.99C615.21 111.39 616.22 111.75 617.28 112.04C618.35 112.34 619.32 112.59 620.21 112.81V112.84Z" fill="#121212"/>
<path d="M685.34 126.09H656.42C657.15 127.78 658.22 129.29 659.62 130.62C661.16 132.17 662.89 133.32 664.81 134.1C666.72 134.87 668.74 135.26 670.88 135.26C673.9 135.26 676.58 134.56 678.94 133.16L692.74 138.68C690.09 141.77 686.89 144.18 683.14 145.91C679.39 147.64 675.3 148.5 670.89 148.5C666.84 148.5 663.05 147.74 659.52 146.24C655.99 144.73 652.9 142.65 650.25 140C647.6 137.35 645.52 134.26 644.01 130.73C642.5 127.2 641.75 123.44 641.75 119.47C641.75 115.5 642.5 111.63 644.01 108.1C645.52 104.57 647.6 101.48 650.25 98.8296C652.9 96.1796 655.99 94.0996 659.52 92.5896C663.05 91.0796 666.84 90.3296 670.89 90.3296C674.94 90.3296 678.73 91.0896 682.26 92.5896C685.79 94.0996 688.88 96.1796 691.53 98.8296C694.18 101.48 696.26 104.57 697.77 108.1C699.28 111.63 700.03 115.42 700.03 119.47C700.03 121.83 699.77 124.03 699.26 126.09H685.35H685.34ZM670.88 103.57C666.61 103.57 662.86 105.11 659.62 108.21C658.22 109.61 657.15 111.15 656.42 112.85H685.34C684.6 111.16 683.54 109.61 682.14 108.21C679.05 105.12 675.3 103.57 670.88 103.57Z" fill="#121212"/>
<path d="M726.34 91.87C728.95 90.77 731.91 90.21 735.23 90.21V103.46C730.81 103.46 727.06 105.01 723.97 108.1C720.88 111.34 719.33 115.09 719.33 119.36V147.07H706.08V91.77H719.33V96.07C721.39 94.38 723.73 92.98 726.34 91.87Z" fill="#121212"/>
<path d="M803.771 91.8696L778.16 147.06H763.591L737.98 91.8696H752.55L770.87 131.39L789.19 91.8696H803.76H803.771Z" fill="#121212"/>
<path d="M844.28 126.09H815.36C816.09 127.78 817.16 129.29 818.56 130.62C820.11 132.17 821.83 133.32 823.75 134.1C825.66 134.87 827.69 135.26 829.82 135.26C832.84 135.26 835.52 134.56 837.88 133.16L851.68 138.68C849.03 141.77 845.83 144.18 842.08 145.91C838.33 147.64 834.24 148.5 829.83 148.5C825.78 148.5 821.99 147.74 818.46 146.24C814.93 144.73 811.84 142.65 809.19 140C806.54 137.35 804.46 134.26 802.95 130.73C801.44 127.2 800.69 123.44 800.69 119.47C800.69 115.5 801.44 111.63 802.95 108.1C804.46 104.57 806.54 101.48 809.19 98.8296C811.84 96.1796 814.93 94.0996 818.46 92.5896C821.99 91.0796 825.78 90.3296 829.83 90.3296C833.88 90.3296 837.67 91.0896 841.2 92.5896C844.73 94.0996 847.82 96.1796 850.47 98.8296C853.12 101.48 855.2 104.57 856.71 108.1C858.22 111.63 858.97 115.42 858.97 119.47C858.97 121.83 858.71 124.03 858.2 126.09H844.29H844.28ZM829.82 103.57C825.55 103.57 821.8 105.11 818.56 108.21C817.16 109.61 816.09 111.15 815.36 112.85H844.28C843.54 111.16 842.48 109.61 841.08 108.21C837.99 105.12 834.24 103.57 829.82 103.57Z" fill="#121212"/>
<path d="M165.47 71.9298C160.72 79.5498 150.77 81.9398 143.09 77.3798C143.05 77.3598 143.01 77.3298 142.97 77.3098C142.84 77.2298 142.71 77.1498 142.58 77.0698C119.4 62.8898 89.0802 69.9798 74.6002 93.0098C79.1302 85.3398 76.7402 75.4098 69.1302 70.6698C61.4402 65.8698 51.3302 68.1898 46.4902 75.8398C46.5102 75.7998 46.5402 75.7698 46.5602 75.7298C70.6702 37.0898 121.47 25.2598 160.16 49.2198C160.18 49.2198 160.19 49.2398 160.21 49.2498C160.21 49.2498 160.22 49.2498 160.23 49.2598C167.93 54.0798 170.28 64.2298 165.47 71.9398V71.9298Z" fill="#6B76E3"/>
<path d="M67.8698 167C63.0698 174.69 65.3898 184.8 73.0398 189.64C72.9998 189.62 72.9698 189.59 72.9298 189.57C34.4498 165.56 22.5498 115.05 46.1398 76.43C46.2398 76.26 46.3398 76.09 46.4498 75.92C46.4698 75.89 46.4798 75.86 46.4998 75.83C51.3398 68.18 61.4498 65.86 69.1398 70.66C76.7398 75.4 79.1398 85.33 74.6098 93C74.6098 93.01 74.6098 93.02 74.5898 93.03C74.5698 93.07 74.5398 93.11 74.5198 93.15C74.4398 93.28 74.3598 93.41 74.2798 93.54C74.2798 93.56 74.2598 93.57 74.2498 93.59C60.1198 116.78 67.2198 147.07 90.2598 161.53C82.5898 156.97 72.6398 159.37 67.8898 166.98L67.8698 167Z" fill="#F45B49"/>
<path d="M186.889 163.03C186.849 163.09 186.819 163.15 186.779 163.21C162.769 201.69 112.259 213.59 73.6394 190C73.4694 189.9 73.2994 189.8 73.1294 189.69C73.0994 189.67 73.0694 189.66 73.0394 189.64C65.3894 184.8 63.0694 174.69 67.8694 167C72.6194 159.39 82.5694 156.99 90.2394 161.55C90.2794 161.57 90.3194 161.6 90.3594 161.62C90.4894 161.7 90.6194 161.78 90.7494 161.86C90.7494 161.86 90.7694 161.86 90.7694 161.88C113.959 176.04 144.279 168.94 158.749 145.89C154.189 153.56 156.579 163.52 164.189 168.27C171.899 173.08 182.059 170.74 186.879 163.03H186.889Z" fill="#5ACA7A"/>
<path d="M186.92 162.96C186.92 162.96 186.9 162.99 186.89 163.01C186.89 163.01 186.89 163.02 186.88 163.03C182.06 170.73 171.91 173.08 164.19 168.27C156.58 163.52 154.19 153.57 158.75 145.89C158.77 145.85 158.8 145.81 158.82 145.77C158.9 145.64 158.98 145.51 159.06 145.38C173.24 122.18 166.15 91.85 143.08 77.38C150.75 81.94 160.71 79.55 165.46 71.93C170.27 64.22 167.93 54.07 160.22 49.25C160.28 49.29 160.34 49.32 160.4 49.36C199.04 73.47 210.87 124.27 186.91 162.96H186.92Z" fill="#45A4F3"/>
<path d="M123.05 156.31L108.48 109.71L99.6302 142.87L90.5202 124.03C90.3702 123.71 90.0402 123.51 89.6902 123.51H72.0702C70.2802 123.51 68.7902 122.1 68.7502 120.31C68.7502 120.27 68.7502 120.22 68.7502 120.18C68.7302 118.36 70.2502 116.9 72.0702 116.9H89.6902C92.5802 116.9 95.2102 118.55 96.4702 121.15L97.8402 123.98L107.98 85.9697L123.04 134.13L134.33 97.8597L141.82 115.41C142.01 115.86 142.46 116.16 142.95 116.16H161.77C163.56 116.16 165.06 117.59 165.05 119.38C165.05 119.44 165.05 119.5 165.05 119.56C165.03 121.34 163.55 122.77 161.76 122.77H141.68C139.3 122.77 137.16 121.35 136.22 119.17L135.28 116.98L123.03 156.31H123.05Z" fill="#121212"/>
</svg>
