<svg width="1291" height="265" viewBox="0 0 1291 265" fill="none" xmlns="http://www.w3.org/2000/svg">
<g clip-path="url(#clip0_424_3759)">
<path d="M218.808 133.494C218.808 136.163 218.675 138.809 218.447 141.43H169.169L165.407 133.795L138.641 187.242L116.489 123.346L101.393 173.234L81.2134 141.43H46.4543C46.226 138.809 46.0938 136.163 46.0938 133.494C46.0938 130.825 46.226 128.167 46.4543 125.546H89.9753L96.2733 135.478L115.528 71.9424L141.309 146.492L165.527 98.0949L178.989 125.546H218.411C218.651 128.167 218.808 130.861 218.808 133.494Z" fill="#444444"/>
<path d="M147.282 22.3428C147.205 26.8972 145.745 31.3205 143.096 35.0252C140.447 38.7299 136.734 41.5407 132.45 43.0845C120.58 43.0845 108.826 45.4237 97.8591 49.9685C86.8925 54.5134 76.9282 61.1749 68.5351 69.5726C60.1421 77.9702 53.4848 87.9396 48.9433 98.9115C44.4018 109.883 42.0651 121.643 42.0667 133.518C40.5298 129.166 37.6816 125.397 33.9147 122.732C30.1477 120.066 25.6473 118.635 21.0334 118.635C16.4194 118.635 11.919 120.066 8.15204 122.732C4.38508 125.397 1.53696 129.166 4.90991e-06 133.518C-0.00473185 116.115 3.41786 98.8819 10.0723 82.8027C16.7267 66.7235 26.4825 52.1135 38.7824 39.8073C51.0823 27.5011 65.6853 17.7398 81.7571 11.0811C97.8289 4.42245 115.055 0.996843 132.45 1C136.83 2.57884 140.61 5.48136 143.268 9.30541C145.925 13.1295 147.328 17.6857 147.282 22.3428Z" fill="url(#paint0_linear_424_3759)"/>
<path d="M264.875 133.494C263.338 137.846 260.49 141.615 256.723 144.28C252.956 146.945 248.456 148.377 243.842 148.377C239.228 148.377 234.728 146.945 230.961 144.28C227.194 141.615 224.345 137.846 222.809 133.494C222.802 109.52 213.281 86.5294 196.337 69.5761C179.393 52.6227 156.413 43.094 132.449 43.0845C136.8 41.5469 140.566 38.6975 143.231 34.929C145.895 31.1605 147.326 26.6581 147.326 22.0422C147.326 17.4263 145.895 12.924 143.231 9.15547C140.566 5.38693 136.8 2.5376 132.449 1C149.841 1 167.062 4.42714 183.129 11.0857C199.197 17.7443 213.796 27.5039 226.093 39.8073C238.39 52.1107 248.144 66.7168 254.798 82.7916C261.453 98.8664 264.877 116.095 264.875 133.494Z" fill="url(#paint1_linear_424_3759)"/>
<path d="M264.875 133.494C264.876 150.892 261.452 168.12 254.798 184.194C248.143 200.268 238.389 214.874 226.092 227.176C213.794 239.479 199.195 249.237 183.128 255.894C167.061 262.552 149.84 265.977 132.449 265.976C128.098 264.438 124.332 261.589 121.667 257.82C119.003 254.052 117.572 249.549 117.572 244.933C117.572 240.318 119.003 235.815 121.667 232.047C124.332 228.278 128.098 225.429 132.449 223.891C144.319 223.893 156.074 221.555 167.041 217.012C178.008 212.468 187.973 205.808 196.367 197.412C204.761 189.015 211.42 179.047 215.963 168.075C220.506 157.104 222.844 145.345 222.844 133.47C224.381 137.822 227.229 141.59 230.996 144.256C234.763 146.921 239.264 148.353 243.878 148.353C248.491 148.353 252.992 146.921 256.759 144.256C260.526 141.59 263.374 137.822 264.911 133.47L264.875 133.494Z" fill="url(#paint2_linear_424_3759)"/>
<path d="M132.449 265.976C97.3279 265.976 63.6448 252.018 38.8101 227.173C13.9754 202.328 0.0234375 168.631 0.0234375 133.494C1.56039 129.142 4.40851 125.373 8.17547 122.708C11.9424 120.043 16.4428 118.611 21.0568 118.611C25.6707 118.611 30.1712 120.043 33.9381 122.708C37.7051 125.373 40.5532 129.142 42.0901 133.494C42.0901 157.475 51.6126 180.474 68.5628 197.432C76.9557 205.828 86.9195 212.489 97.8853 217.033C108.851 221.577 120.604 223.916 132.473 223.916C128.123 225.453 124.356 228.303 121.692 232.071C119.028 235.84 117.597 240.342 117.597 244.958C117.597 249.574 119.028 254.076 121.692 257.845C124.356 261.613 128.123 264.463 132.473 266L132.449 265.976Z" fill="url(#paint3_linear_424_3759)"/>
<path fill-rule="evenodd" clip-rule="evenodd" d="M332.348 89.6643C321.881 90.9745 312.253 96.0634 305.272 103.975C298.292 111.886 294.439 122.076 294.439 132.628C294.439 143.181 298.292 153.37 305.272 161.281C312.253 169.193 321.881 174.282 332.348 175.592C335.907 176.039 339.507 176.039 343.066 175.592C353.532 174.282 363.161 169.193 370.141 161.281C377.122 153.37 380.974 143.181 380.974 132.628C380.974 122.076 377.122 111.886 370.141 103.975C363.161 96.0634 353.532 90.9745 343.066 89.6643C339.507 89.2174 335.907 89.2174 332.348 89.6643ZM342.344 106.907C348.431 107.969 353.945 111.156 357.906 115.9C361.866 120.645 364.018 126.64 363.978 132.821C363.937 139.003 361.708 144.97 357.686 149.662C353.664 154.355 348.11 157.47 342.009 158.453C339.161 158.935 336.252 158.935 333.404 158.453H333.044C326.93 157.421 321.384 154.245 317.398 149.494C313.412 144.743 311.247 138.728 311.29 132.526C311.333 126.324 313.582 120.34 317.635 115.645C321.687 110.951 327.277 107.853 333.404 106.907C336.252 106.424 339.161 106.424 342.009 106.907H342.344Z" fill="#444444"/>
<path fill-rule="evenodd" clip-rule="evenodd" d="M631.462 109.665C635.625 110.61 639.343 112.939 642.011 116.273C644.678 119.606 646.137 123.746 646.147 128.016V175.052C646.147 175.284 646.24 175.507 646.404 175.671C646.568 175.836 646.791 175.928 647.023 175.928H662.481C662.714 175.928 662.936 175.836 663.101 175.671C663.265 175.507 663.357 175.284 663.357 175.052V128.016C663.338 119.429 660.259 111.13 654.673 104.611C649.086 98.0919 641.359 93.7794 632.879 92.4485C631.062 92.1831 629.228 92.0453 627.392 92.0361C625.563 92.0442 623.738 92.182 621.93 92.4485C613.445 93.7739 605.712 98.084 600.12 104.604C594.529 111.123 591.446 119.425 591.426 128.016V175.052C591.426 175.284 591.518 175.507 591.682 175.671C591.847 175.836 592.069 175.928 592.302 175.928H607.76C607.992 175.928 608.215 175.836 608.379 175.671C608.543 175.507 608.636 175.284 608.636 175.052V128.016C608.648 123.749 610.107 119.613 612.775 116.284C615.442 112.955 619.161 110.63 623.321 109.691C624.665 109.382 626.039 109.227 627.417 109.227C628.794 109.23 630.167 109.376 631.514 109.665H631.462Z" fill="#444444"/>
<path fill-rule="evenodd" clip-rule="evenodd" d="M431.383 89.6647C420.911 90.9662 411.276 96.0521 404.291 103.965C397.306 111.878 393.454 122.072 393.459 132.629V197.938C393.459 198.05 393.481 198.16 393.524 198.263C393.566 198.367 393.629 198.46 393.708 198.539C393.787 198.618 393.881 198.681 393.984 198.724C394.087 198.766 394.198 198.788 394.309 198.788H409.767C409.995 198.788 410.214 198.7 410.378 198.541C410.541 198.382 410.636 198.166 410.643 197.938V132.629C410.644 126.444 412.837 120.461 416.833 115.742C420.828 111.023 426.367 107.874 432.465 106.855C435.313 106.373 438.222 106.373 441.07 106.855H441.405C447.492 107.918 453.006 111.104 456.966 115.849C460.927 120.594 463.078 126.589 463.038 132.77C462.998 138.952 460.769 144.919 456.747 149.611C452.725 154.304 447.17 157.419 441.07 158.402C438.222 158.884 435.313 158.884 432.465 158.402H432.104C428.068 157.685 424.261 156.015 421 153.531C420.861 153.444 420.7 153.398 420.536 153.398C420.372 153.398 420.212 153.444 420.073 153.531C419.924 153.597 419.798 153.706 419.711 153.843C419.624 153.981 419.579 154.141 419.583 154.304V171.984C419.585 172.156 419.638 172.323 419.734 172.465C419.83 172.607 419.966 172.718 420.124 172.783C423.732 174.283 427.529 175.281 431.409 175.747C434.967 176.194 438.568 176.194 442.126 175.747C452.593 174.437 462.221 169.348 469.202 161.437C476.182 153.525 480.035 143.336 480.035 132.783C480.035 122.231 476.182 112.041 469.202 104.13C462.221 96.2185 452.593 91.1296 442.126 89.8193C438.568 89.3727 434.967 89.3727 431.409 89.8193L431.383 89.6647Z" fill="#444444"/>
<path fill-rule="evenodd" clip-rule="evenodd" d="M891.131 114.742C891.289 115.414 891.606 116.038 892.054 116.562C892.502 117.087 893.069 117.497 893.708 117.757L930.704 134.484C933.215 135.618 935.488 137.219 937.402 139.201C941.001 142.63 943.189 147.282 943.534 152.242C943.643 154.448 943.453 156.659 942.967 158.814C942.549 160.669 941.872 162.456 940.958 164.123C939.072 167.601 936.307 170.521 932.939 172.593C929.57 174.665 925.716 175.815 921.764 175.928H878.327C878.094 175.928 877.872 175.835 877.707 175.671C877.543 175.507 877.451 175.284 877.451 175.051V159.587C877.451 159.355 877.543 159.132 877.707 158.968C877.872 158.803 878.094 158.711 878.327 158.711H921.712C922.735 158.746 923.735 158.41 924.53 157.766C925.325 157.122 925.861 156.213 926.041 155.206C926.182 154.569 926.182 153.91 926.041 153.273C925.884 152.598 925.569 151.969 925.121 151.44C924.673 150.911 924.105 150.497 923.464 150.232L886.468 133.505C883.963 132.371 881.692 130.78 879.77 128.814C876.176 125.373 873.998 120.712 873.664 115.747C873.535 113.542 873.717 111.33 874.205 109.175C874.625 107.317 875.31 105.529 876.24 103.866C878.117 100.387 880.877 97.4646 884.242 95.3924C887.607 93.3202 891.458 92.1714 895.408 92.0616H938.691C938.923 92.0616 939.146 92.1539 939.31 92.3183C939.474 92.4826 939.566 92.7055 939.566 92.9379V108.402C939.566 108.517 939.544 108.631 939.5 108.737C939.456 108.843 939.391 108.94 939.31 109.021C939.229 109.103 939.132 109.167 939.026 109.211C938.919 109.255 938.806 109.278 938.691 109.278H895.408C894.389 109.243 893.392 109.575 892.597 110.213C891.803 110.852 891.264 111.755 891.08 112.758C890.938 113.403 890.938 114.071 891.08 114.716L891.131 114.742ZM1158.25 149.484L1132.92 92.4998C1132.85 92.3441 1132.74 92.2118 1132.6 92.12C1132.46 92.0281 1132.29 91.9809 1132.12 91.9843H1115.14C1114.99 91.9811 1114.85 92.0175 1114.72 92.0899C1114.58 92.1624 1114.47 92.2682 1114.4 92.3967C1114.33 92.5229 1114.29 92.6648 1114.29 92.809C1114.29 92.9533 1114.33 93.0952 1114.4 93.2214L1151.11 175.412C1151.18 175.568 1151.29 175.7 1151.43 175.792C1151.57 175.884 1151.74 175.931 1151.91 175.928H1166.36C1166.53 175.931 1166.7 175.884 1166.84 175.792C1166.98 175.7 1167.09 175.568 1167.16 175.412L1204.39 93.273C1204.46 93.1468 1204.5 93.0049 1204.5 92.8606C1204.5 92.7163 1204.46 92.5744 1204.39 92.4482C1204.31 92.3178 1204.2 92.2105 1204.07 92.1378C1203.94 92.0651 1203.79 92.0299 1203.64 92.0358H1186.66C1186.49 92.0324 1186.33 92.0797 1186.19 92.1715C1186.04 92.2633 1185.93 92.3956 1185.86 92.5513L1160.1 149.484C1160.02 149.665 1159.89 149.818 1159.73 149.923C1159.56 150.029 1159.37 150.083 1159.17 150.077C1158.98 150.076 1158.79 150.02 1158.62 149.915C1158.46 149.81 1158.33 149.661 1158.25 149.484ZM1054.88 175C1054.88 175.232 1054.98 175.455 1055.14 175.619C1055.3 175.784 1055.53 175.876 1055.76 175.876H1071.22C1071.45 175.876 1071.67 175.784 1071.84 175.619C1072 175.455 1072.09 175.232 1072.09 175V135.077C1072.1 133.635 1072.22 132.196 1072.45 130.773C1073.48 124.675 1076.63 119.137 1081.34 115.141C1086.06 111.145 1092.04 108.949 1098.22 108.943H1101.03C1101.25 108.943 1101.47 108.853 1101.63 108.694C1101.79 108.534 1101.88 108.318 1101.88 108.093V92.7833C1101.88 92.5553 1101.79 92.3362 1101.63 92.1726C1101.47 92.009 1101.25 91.9137 1101.03 91.907H1098.22C1087.66 91.9012 1077.47 95.7541 1069.55 102.741C1061.64 109.728 1056.55 119.367 1055.24 129.845C1055.03 131.624 1054.92 133.414 1054.91 135.206V175.051L1054.88 175ZM713.647 89.6647C717.214 89.2181 720.823 89.2181 724.39 89.6647C734.857 90.9749 744.485 96.0639 751.466 103.975C758.446 111.887 762.299 122.076 762.299 132.629C762.299 143.181 758.446 153.37 751.466 161.282C744.485 169.193 734.857 174.282 724.39 175.593C720.823 176.039 717.214 176.039 713.647 175.593C703.18 174.282 693.552 169.193 686.571 161.282C679.591 153.37 675.738 143.181 675.738 132.629C675.738 122.076 679.591 111.887 686.571 103.975C693.552 96.0639 703.18 90.9749 713.647 89.6647ZM723.669 106.907H723.334C721.912 106.671 720.473 106.55 719.031 106.546C717.581 106.551 716.134 106.672 714.703 106.907C708.602 107.887 703.046 110.999 699.021 115.69C694.997 120.38 692.765 126.346 692.721 132.528C692.678 138.709 694.827 144.705 698.785 149.452C702.744 154.199 708.256 157.388 714.342 158.453H714.703C716.134 158.689 717.581 158.809 719.031 158.814C720.473 158.81 721.912 158.69 723.334 158.453C729.434 157.47 734.989 154.356 739.011 149.663C743.033 144.97 745.262 139.003 745.302 132.822C745.342 126.641 743.191 120.645 739.23 115.901C735.27 111.156 729.756 107.969 723.669 106.907ZM812.63 89.6647C808.76 90.1344 804.971 91.1316 801.371 92.6286C801.213 92.6942 801.077 92.8049 800.981 92.9469C800.885 93.0889 800.832 93.2561 800.83 93.4276V111.108C800.833 111.269 800.879 111.425 800.964 111.561C801.05 111.697 801.171 111.807 801.314 111.879C801.458 111.951 801.619 111.982 801.779 111.969C801.938 111.955 802.092 111.898 802.222 111.804C805.587 109.252 809.521 107.554 813.686 106.855C815.108 106.619 816.547 106.498 817.989 106.495C819.439 106.5 820.886 106.62 822.317 106.855H822.652C828.739 107.918 834.253 111.104 838.213 115.849C842.174 120.594 844.325 126.589 844.285 132.77C844.245 138.952 842.016 144.919 837.994 149.611C833.972 154.304 828.417 157.419 822.317 158.402C820.886 158.637 819.439 158.758 817.989 158.763C816.547 158.759 815.108 158.638 813.686 158.402H813.326C807.294 157.311 801.84 154.13 797.92 149.417C794 144.704 791.865 138.76 791.89 132.629V67.0101C791.89 66.7777 791.798 66.5548 791.634 66.3905C791.47 66.2261 791.247 66.1338 791.014 66.1338H775.556C775.324 66.1338 775.101 66.2261 774.937 66.3905C774.773 66.5548 774.68 66.7777 774.68 67.0101V132.629C774.681 143.183 778.535 153.375 785.519 161.286C792.503 169.198 802.135 174.286 812.604 175.593C816.171 176.039 819.78 176.039 823.348 175.593C833.814 174.282 843.443 169.193 850.423 161.282C857.404 153.37 861.256 143.181 861.256 132.629C861.256 122.076 857.404 111.887 850.423 103.975C843.443 96.0639 833.814 90.9749 823.348 89.6647C819.78 89.2181 816.171 89.2181 812.604 89.6647H812.63ZM1017.66 151.108C1014.85 153.919 1011.44 156.052 1007.69 157.345H1007.45C1003.33 158.722 998.92 159.044 994.637 158.284C990.353 157.523 986.328 155.703 982.926 152.989C979.527 150.255 976.869 146.71 975.197 142.68C972.622 136.334 972.622 129.233 975.197 122.886C976.859 118.851 979.519 115.303 982.926 112.577C986.086 110.044 989.791 108.279 993.748 107.422C997.706 106.565 1001.81 106.64 1005.73 107.639C1009.66 108.639 1013.29 110.536 1016.36 113.182C1019.43 115.828 1021.84 119.15 1023.4 122.886C1023.58 123.325 1023.74 123.763 1023.89 124.201H982.153C980.23 129.761 980.23 135.806 982.153 141.366H1041C1041.21 141.367 1041.41 141.292 1041.56 141.154C1041.72 141.016 1041.82 140.826 1041.85 140.618L1042.16 138.041C1042.6 134.481 1042.6 130.879 1042.16 127.319C1040.87 116.827 1035.79 107.169 1027.88 100.164C1019.96 93.1593 1009.76 89.2925 999.196 89.2925C988.629 89.2925 978.428 93.1593 970.514 100.164C962.601 107.169 957.522 116.827 956.235 127.319C955.789 130.879 955.789 134.481 956.235 138.041C957.244 146.085 960.489 153.685 965.6 159.976C970.712 166.267 977.485 170.997 985.151 173.628C992.816 176.259 1001.07 176.686 1008.96 174.86C1016.86 173.034 1024.08 169.029 1029.82 163.299L1031.8 161.314C1031.96 161.15 1032.06 160.928 1032.06 160.696C1032.06 160.464 1031.96 160.241 1031.8 160.077L1020.88 149.175C1020.8 149.095 1020.7 149.031 1020.6 148.988C1020.49 148.944 1020.38 148.922 1020.27 148.922C1020.16 148.922 1020.05 148.944 1019.94 148.988C1019.84 149.031 1019.74 149.095 1019.66 149.175L1017.66 151.16V151.108ZM1265.55 151.108C1262.74 153.913 1259.33 156.045 1255.58 157.345H1255.35C1252.68 158.226 1249.89 158.678 1247.08 158.685C1241.91 158.676 1236.87 157.139 1232.57 154.269C1228.28 151.398 1224.92 147.322 1222.94 142.551C1220.36 136.205 1220.36 129.104 1222.94 122.758C1224.62 118.73 1227.27 115.186 1230.67 112.448C1235.3 108.727 1241.07 106.7 1247.01 106.7C1252.96 106.7 1258.72 108.727 1263.36 112.448C1266.75 115.193 1269.41 118.735 1271.09 122.758C1271.27 123.196 1271.43 123.634 1271.58 124.072H1230.05C1228.09 129.626 1228.09 135.683 1230.05 141.237H1288.89C1289.1 141.238 1289.3 141.163 1289.46 141.025C1289.62 140.887 1289.72 140.697 1289.74 140.489L1290.05 137.912C1290.5 134.352 1290.5 130.75 1290.05 127.19C1288.77 116.699 1283.69 107.04 1275.77 100.035C1267.86 93.0304 1257.66 89.1636 1247.09 89.1636C1236.53 89.1636 1226.32 93.0304 1218.41 100.035C1210.5 107.04 1205.42 116.699 1204.13 127.19C1203.68 130.75 1203.68 134.352 1204.13 137.912C1205.13 145.956 1208.37 153.557 1213.48 159.85C1218.59 166.142 1225.36 170.874 1233.03 173.506C1240.69 176.138 1248.94 176.564 1256.84 174.737C1264.73 172.91 1271.96 168.902 1277.69 163.17L1279.67 161.185C1279.75 161.106 1279.82 161.01 1279.87 160.904C1279.91 160.797 1279.94 160.683 1279.94 160.567C1279.94 160.451 1279.91 160.336 1279.87 160.23C1279.82 160.124 1279.75 160.028 1279.67 159.948L1268.77 149.046C1268.61 148.882 1268.39 148.791 1268.15 148.791C1267.92 148.791 1267.7 148.882 1267.54 149.046L1265.55 151.031V151.108Z" fill="url(#paint4_linear_424_3759)"/>
<path fill-rule="evenodd" clip-rule="evenodd" d="M554.197 151.109C551.382 153.908 547.975 156.039 544.226 157.346H543.969C539.842 158.722 535.436 159.045 531.152 158.284C526.869 157.523 522.843 155.703 519.442 152.99C515.996 150.271 513.292 146.725 511.584 142.681C509.009 136.334 509.009 129.233 511.584 122.887C513.259 118.858 515.916 115.314 519.313 112.578C522.473 110.044 526.177 108.28 530.135 107.423C534.093 106.566 538.195 106.64 542.119 107.64C546.043 108.639 549.682 110.537 552.748 113.182C555.814 115.828 558.224 119.15 559.788 122.887C559.968 123.325 560.122 123.763 560.277 124.201H518.669C516.745 129.761 516.745 135.806 518.669 141.366H577.513C577.721 141.368 577.923 141.292 578.08 141.155C578.237 141.017 578.338 140.826 578.363 140.619L578.672 138.041C579.119 134.482 579.119 130.88 578.672 127.32C577.386 116.828 572.307 107.169 564.393 100.165C556.48 93.1598 546.278 89.293 535.712 89.293C525.145 89.293 514.943 93.1598 507.03 100.165C499.116 107.169 494.038 116.828 492.751 127.32C492.304 130.88 492.304 134.482 492.751 138.041C493.76 146.086 497.004 153.685 502.116 159.976C507.228 166.267 514.001 170.997 521.666 173.629C529.332 176.26 537.581 176.687 545.477 174.861C553.373 173.035 560.598 169.029 566.331 163.299L568.315 161.315C568.479 161.15 568.571 160.928 568.571 160.696C568.571 160.464 568.479 160.242 568.315 160.078L557.392 149.176C557.312 149.095 557.218 149.032 557.114 148.988C557.01 148.945 556.899 148.922 556.786 148.922C556.673 148.922 556.562 148.945 556.458 148.988C556.354 149.032 556.26 149.095 556.181 149.176L554.197 151.16V151.109Z" fill="#444444"/>
<path d="M281.62 89.3301H278.967V175.954H281.62V89.3301Z" fill="#C4C4C4"/>
</g>
<defs>
<linearGradient id="paint0_linear_424_3759" x1="0.024043" y1="67.2409" x2="147.282" y2="67.2409" gradientUnits="userSpaceOnUse">
<stop stop-color="#D1C6E0"/>
<stop offset="0.35" stop-color="#9274B2"/>
<stop offset="0.71" stop-color="#652F8D"/>
<stop offset="1" stop-color="#2B1143"/>
</linearGradient>
<linearGradient id="paint1_linear_424_3759" x1="132.449" y1="74.6598" x2="264.875" y2="74.6598" gradientUnits="userSpaceOnUse">
<stop offset="0.01" stop-color="#82C2DF"/>
<stop offset="0.3" stop-color="#3CAFD9"/>
<stop offset="0.59" stop-color="#0379B8"/>
<stop offset="0.7" stop-color="#006DAC"/>
<stop offset="0.73" stop-color="#006AA9"/>
<stop offset="0.91" stop-color="#334C84"/>
<stop offset="1" stop-color="#3A447A"/>
</linearGradient>
<linearGradient id="paint2_linear_424_3759" x1="127.629" y1="249.304" x2="309.441" y2="114.035" gradientUnits="userSpaceOnUse">
<stop stop-color="#0C6237"/>
<stop offset="0.406444" stop-color="#31BB77"/>
<stop offset="0.752196" stop-color="#5BC792"/>
<stop offset="0.98" stop-color="#B1E9CD"/>
</linearGradient>
<linearGradient id="paint3_linear_424_3759" x1="0.0234375" y1="192.316" x2="132.449" y2="192.316" gradientUnits="userSpaceOnUse">
<stop stop-color="#931B1E"/>
<stop offset="0.32" stop-color="#ED4725"/>
<stop offset="0.38" stop-color="#EE5F26"/>
<stop offset="0.53" stop-color="#F08F27"/>
<stop offset="0.74" stop-color="#F5C321"/>
<stop offset="0.88" stop-color="#F8D718"/>
<stop offset="1" stop-color="#F6DF65"/>
</linearGradient>
<linearGradient id="paint4_linear_424_3759" x1="333.353" y1="121.056" x2="1481.5" y2="121.056" gradientUnits="userSpaceOnUse">
<stop stop-color="#F6DF65"/>
<stop offset="0.12" stop-color="#F8D718"/>
<stop offset="0.26" stop-color="#F5C321"/>
<stop offset="0.47" stop-color="#F08F27"/>
<stop offset="0.62" stop-color="#EE5F26"/>
<stop offset="0.68" stop-color="#ED4725"/>
<stop offset="1" stop-color="#931B1E"/>
</linearGradient>
<clipPath id="clip0_424_3759">
<rect width="1290.39" height="265" fill="white"/>
</clipPath>
</defs>
</svg>
