<svg xmlns="http://www.w3.org/2000/svg" xmlns:xlink="http://www.w3.org/1999/xlink" viewBox="0 0 500.86 102.82"><defs><style>.cls-1,.cls-6{fill:#444;}.cls-2{fill:url(#linear-gradient);}.cls-3{fill:url(#linear-gradient-2);}.cls-4{fill:url(#linear-gradient-3);}.cls-5{fill:url(#linear-gradient-4);}.cls-6,.cls-7{fill-rule:evenodd;}.cls-7{fill:url(#linear-gradient-5);}.cls-8{fill:#c4c4c4;}</style><linearGradient id="linear-gradient" y1="25.7" x2="57.16" y2="25.7" gradientUnits="userSpaceOnUse"><stop offset="0" stop-color="#d1c6e0"/><stop offset="0.35" stop-color="#9274b2"/><stop offset="0.71" stop-color="#652f8d"/><stop offset="1" stop-color="#2b1143"/></linearGradient><linearGradient id="linear-gradient-2" x1="51.41" y1="28.58" x2="102.82" y2="28.58" gradientUnits="userSpaceOnUse"><stop offset="0.01" stop-color="#82c2df"/><stop offset="0.3" stop-color="#3cafd9"/><stop offset="0.59" stop-color="#0379b8"/><stop offset="0.7" stop-color="#006dac"/><stop offset="0.73" stop-color="#006aa9"/><stop offset="0.91" stop-color="#334c84"/><stop offset="1" stop-color="#3a447a"/></linearGradient><linearGradient id="linear-gradient-3" x1="45.65" y1="77.11" x2="102.82" y2="77.11" gradientUnits="userSpaceOnUse"><stop offset="0" stop-color="#712c71"/><stop offset="0.12" stop-color="#8f286e"/><stop offset="0.38" stop-color="#db1d65"/><stop offset="0.43" stop-color="#ea1b63"/><stop offset="0.98" stop-color="#f79e1e"/></linearGradient><linearGradient id="linear-gradient-4" y1="74.23" x2="51.41" y2="74.23" gradientUnits="userSpaceOnUse"><stop offset="0" stop-color="#931b1e"/><stop offset="0.32" stop-color="#ed4725"/><stop offset="0.38" stop-color="#ee5f26"/><stop offset="0.53" stop-color="#f08f27"/><stop offset="0.74" stop-color="#f5c321"/><stop offset="0.88" stop-color="#f8d718"/><stop offset="1" stop-color="#f6df65"/></linearGradient><linearGradient id="linear-gradient-5" x1="129.39" y1="46.97" x2="575.04" y2="46.97" gradientUnits="userSpaceOnUse"><stop offset="0" stop-color="#f6df65"/><stop offset="0.12" stop-color="#f8d718"/><stop offset="0.26" stop-color="#f5c321"/><stop offset="0.47" stop-color="#f08f27"/><stop offset="0.62" stop-color="#ee5f26"/><stop offset="0.68" stop-color="#ed4725"/><stop offset="1" stop-color="#931b1e"/></linearGradient></defs><g id="Layer_2" data-name="Layer 2"><g id="Layer_1-2" data-name="Layer 1"><path class="cls-1" d="M84.93,51.41c0,1-.05,2.06-.14,3.08H65.66l-1.46-3L53.81,72.27l-8.58-24.8L39.36,66.83,31.53,54.49H18c-.1-1-.14-2-.14-3.08s0-2.07.14-3.08H34.92l2.44,3.85L44.84,27.5l10,28.93,9.4-18.76,5.24,10.66h15.3C84.88,49.34,84.93,50.37,84.93,51.41Z"/><path class="cls-2" d="M57.16,8.28a8.69,8.69,0,0,1-5.75,8A35.09,35.09,0,0,0,16.32,51.41,8.66,8.66,0,0,0,0,51.41,51.41,51.41,0,0,1,51.41,0,8.7,8.7,0,0,1,57.16,8.28Z"/><path class="cls-3" d="M102.82,51.41a8.66,8.66,0,0,1-16.32,0A35.09,35.09,0,0,0,51.41,16.32,8.66,8.66,0,0,0,51.41,0,51.41,51.41,0,0,1,102.82,51.41Z"/><path class="cls-4" d="M102.82,51.41a51.41,51.41,0,0,1-51.41,51.41,8.67,8.67,0,0,1,0-16.33A35.08,35.08,0,0,0,86.5,51.41a8.66,8.66,0,0,0,16.32,0Z"/><path class="cls-5" d="M51.41,102.82A51.41,51.41,0,0,1,0,51.41a8.66,8.66,0,0,1,16.32,0A35.08,35.08,0,0,0,51.41,86.49a8.67,8.67,0,0,0,0,16.33Z"/><path class="cls-6" d="M129,34.79a16.8,16.8,0,0,0,0,33.34,16.7,16.7,0,0,0,4.16,0,16.8,16.8,0,0,0,0-33.34,16.7,16.7,0,0,0-4.16,0Zm3.88,6.69a10.14,10.14,0,0,1-.13,20,10,10,0,0,1-3.34,0l-.14,0a10.13,10.13,0,0,1,.14-20,10,10,0,0,1,3.34,0l.13,0Z"/><path class="cls-6" d="M245.1,42.55a7.32,7.32,0,0,1,5.7,7.12V67.92a.34.34,0,0,0,.34.34h6a.34.34,0,0,0,.34-.34V49.67a14,14,0,0,0-11.83-13.8,15.27,15.27,0,0,0-2.13-.16,15,15,0,0,0-2.12.16,14,14,0,0,0-11.84,13.8V67.92a.34.34,0,0,0,.34.34h6a.34.34,0,0,0,.34-.34V49.67a7.31,7.31,0,0,1,5.7-7.11,7.11,7.11,0,0,1,1.59-.18,7.66,7.66,0,0,1,1.59.17Z"/><path class="cls-6" d="M167.44,34.79a16.79,16.79,0,0,0-14.72,16.67V76.8a.33.33,0,0,0,.33.33h6a.34.34,0,0,0,.34-.33V51.46a10.14,10.14,0,0,1,8.47-10,10,10,0,0,1,3.34,0l.13,0a10.14,10.14,0,0,1-.13,20,10,10,0,0,1-3.34,0l-.14,0a10,10,0,0,1-4.31-1.89.34.34,0,0,0-.36,0,.32.32,0,0,0-.19.3v6.86a.34.34,0,0,0,.21.31,16.56,16.56,0,0,0,4.38,1.15,16.71,16.71,0,0,0,4.16,0,16.8,16.8,0,0,0,0-33.34,16.71,16.71,0,0,0-4.16,0Z"/><path class="cls-7" d="M345.89,44.52a1.68,1.68,0,0,0,1,1.17l14.36,6.49a8.45,8.45,0,0,1,2.6,1.83,7.73,7.73,0,0,1,2.38,5.06,9.47,9.47,0,0,1-.22,2.55,7.89,7.89,0,0,1-.78,2.06,8.76,8.76,0,0,1-7.45,4.58H340.92a.34.34,0,0,1-.34-.34v-6a.34.34,0,0,1,.34-.34h16.84a1.65,1.65,0,0,0,1.68-1.36,1.73,1.73,0,0,0,0-.75,1.69,1.69,0,0,0-1-1.18l-14.36-6.49a8.59,8.59,0,0,1-2.6-1.82,7.74,7.74,0,0,1-2.37-5.07,9.14,9.14,0,0,1,.21-2.55,7.7,7.7,0,0,1,.79-2.06,8.73,8.73,0,0,1,7.44-4.58h16.8a.34.34,0,0,1,.34.34v6a.34.34,0,0,1-.34.34h-16.8a1.65,1.65,0,0,0-1.68,1.35,1.77,1.77,0,0,0,0,.76ZM449.57,58l-9.83-22.11a.33.33,0,0,0-.31-.2h-6.59a.33.33,0,0,0-.29.16.33.33,0,0,0,0,.32L446.8,68.06a.33.33,0,0,0,.31.2h5.61a.33.33,0,0,0,.31-.2l14.45-31.87a.33.33,0,0,0,0-.32.32.32,0,0,0-.29-.16h-6.59a.33.33,0,0,0-.31.2L450.29,58a.38.38,0,0,1-.36.23.4.4,0,0,1-.36-.23Zm-40.12,9.9a.34.34,0,0,0,.34.34h6a.34.34,0,0,0,.34-.34V52.41a10.36,10.36,0,0,1,.14-1.67,10.15,10.15,0,0,1,10-8.47h1.09a.33.33,0,0,0,.33-.33V36a.34.34,0,0,0-.33-.34h-1.09a16.8,16.8,0,0,0-16.68,14.72,18.15,18.15,0,0,0-.13,2.08V67.92ZM277,34.79a16.79,16.79,0,0,1,4.17,0,16.8,16.8,0,0,1,0,33.34,16.79,16.79,0,0,1-4.17,0,16.8,16.8,0,0,1,0-33.34Zm3.89,6.69-.13,0a10.36,10.36,0,0,0-1.67-.14,10.58,10.58,0,0,0-1.68.14,10.14,10.14,0,0,0-.14,20l.14,0a10.58,10.58,0,0,0,1.68.14,10.36,10.36,0,0,0,1.67-.14,10.14,10.14,0,0,0,.13-20Zm34.53-6.69a16.59,16.59,0,0,0-4.37,1.15.34.34,0,0,0-.21.31v6.86a.34.34,0,0,0,.54.27,10.14,10.14,0,0,1,4.45-1.92,10.36,10.36,0,0,1,1.67-.14,10.58,10.58,0,0,1,1.68.14l.13,0a10.14,10.14,0,0,1-.13,20,10.58,10.58,0,0,1-1.68.14,10.36,10.36,0,0,1-1.67-.14l-.14,0a10.12,10.12,0,0,1-8.32-10V26a.34.34,0,0,0-.34-.34h-6a.34.34,0,0,0-.34.34V51.46a16.8,16.8,0,0,0,14.72,16.67,16.79,16.79,0,0,0,4.17,0,16.8,16.8,0,0,0,0-33.34,16.79,16.79,0,0,0-4.17,0ZM395,58.63a10.13,10.13,0,0,1-3.87,2.42l-.09,0a10.13,10.13,0,0,1-9.52-1.69,10.1,10.1,0,0,1-3-4l0,0a10.21,10.21,0,0,1,0-7.68l0,0a10,10,0,0,1,3-4h0a10.15,10.15,0,0,1,15.71,4s0,0,0,0c.07.17.13.34.19.51H381.22a10.18,10.18,0,0,0,0,6.66h22.84a.33.33,0,0,0,.33-.29l.12-1a16.71,16.71,0,0,0,0-4.16,16.8,16.8,0,0,0-33.35,0,16.7,16.7,0,0,0,0,4.16,16.81,16.81,0,0,0,28.56,9.8l.77-.77a.34.34,0,0,0,0-.48l-4.24-4.23a.33.33,0,0,0-.47,0l-.78.77Zm96.22,0a10.21,10.21,0,0,1-3.87,2.42l-.09,0a10.33,10.33,0,0,1-3.21.52,10.17,10.17,0,0,1-9.37-6.26s0,0,0,0a10.21,10.21,0,0,1,0-7.68s0,0,0,0a10.15,10.15,0,0,1,3-4h0a10.14,10.14,0,0,1,12.69,0,10.24,10.24,0,0,1,3,4s0,0,0,0c.07.17.13.34.19.51H477.44a10,10,0,0,0,0,6.66h22.84a.33.33,0,0,0,.33-.29l.12-1a16.71,16.71,0,0,0,0-4.16,16.8,16.8,0,0,0-33.35,0,16.7,16.7,0,0,0,0,4.16,16.8,16.8,0,0,0,28.55,9.8l.77-.77a.33.33,0,0,0,0-.48l-4.23-4.23a.34.34,0,0,0-.48,0l-.77.77Z"/><path class="cls-6" d="M215.11,58.63a10.29,10.29,0,0,1-3.87,2.42l-.1,0a10.13,10.13,0,0,1-9.52-1.69,10.1,10.1,0,0,1-3.05-4l0,0a10.21,10.21,0,0,1,0-7.68s0,0,0,0a10.13,10.13,0,0,1,3-4h0a10.15,10.15,0,0,1,15.71,4s0,0,0,0c.07.17.13.34.19.51H201.32a10.18,10.18,0,0,0,0,6.66h22.84a.33.33,0,0,0,.33-.29l.12-1a16.71,16.71,0,0,0,0-4.16,16.8,16.8,0,0,0-33.35,0,16.7,16.7,0,0,0,0,4.16,16.81,16.81,0,0,0,28.56,9.8l.77-.77a.34.34,0,0,0,0-.48l-4.24-4.23a.33.33,0,0,0-.47,0l-.77.77Z"/><rect class="cls-8" x="108.28" y="34.66" width="1.03" height="33.61"/></g></g></svg>