<svg width="100%" height="100%" viewBox="0 0 146 40" fill="none" xmlns="http://www.w3.org/2000/svg">
<path d="M51.071 15.4027H46.1441V27.5462H42.8038V15.4027H37.877V12.3877H51.071V15.4027Z" fill="currentColor">
</path>
<path d="M56.0791 12.4688H59.4194V20.9274C59.4194 23.3561 60.7555 24.9473 62.9267 24.9473C65.0978 24.9473 66.4339 23.3561 66.4339 20.9274V12.4688H69.7742V20.9274C69.7742 25.1986 67.0185 27.9623 62.8432 27.9623C58.6678 27.9623 55.9121 25.1986 55.9121 20.9274V12.4688H56.0791Z" fill="currentColor">
</path>
<path d="M84.7301 27.5435L81.8074 22.7699H79.1352V27.5435H75.7949V12.4688H81.8909C85.7322 12.4688 87.9869 14.4787 87.9869 17.6612C87.9869 19.7549 86.9848 21.3461 85.2312 22.1836L88.7385 27.6273H84.7301V27.5435ZM79.0517 19.8386H81.6404C83.394 19.8386 84.4796 19.0849 84.4796 17.6612C84.4796 16.2374 83.394 15.4837 81.6404 15.4837H79.0517V19.8386Z" fill="currentColor">
</path>
<path d="M96.8285 12.4688V27.6273H93.4883V12.4688H96.8285Z" fill="currentColor">
</path>
<path d="M102.848 12.4693H105.687L113.202 21.5979V12.3018H116.543V27.4603H113.704L106.188 18.3317V27.6278H102.848V12.4693Z" fill="currentColor">
</path>
<path d="M137.668 17.1589H133.993C133.325 16.0702 131.906 15.2327 130.068 15.2327C127.313 15.2327 125.309 17.2427 125.309 20.0901C125.309 22.9376 127.313 25.0313 130.068 25.0313C132.407 25.0313 134.077 23.6076 134.411 22.1001H129.818V19.2526H138.002V20.1739C138.002 24.78 134.578 28.13 129.985 28.13C125.309 28.13 121.885 24.78 121.885 20.1739C121.885 15.5677 125.309 12.2177 129.985 12.2177C133.993 12.0502 136.832 14.3114 137.668 17.1589Z" fill="currentColor">
</path>
<path d="M28.5967 12.9753L23.8368 17.749C23.6698 17.9165 23.5863 18.2515 23.6698 18.419C24.4214 20.1777 23.9204 22.2714 22.1667 23.4439C20.8306 24.3652 18.9935 24.3652 17.6574 23.5277C15.3192 22.0202 15.1522 18.9215 16.9893 17.079C18.2419 15.8228 19.9955 15.5715 21.4987 16.1578C21.7492 16.2415 21.9997 16.2415 22.2502 16.074L27.0101 11.3003C27.3441 10.9653 27.2606 10.5466 26.9266 10.2954C22.2502 6.86165 15.5697 7.2804 11.3944 11.5516C6.96851 16.074 6.885 23.3602 11.0603 28.0501C15.6532 33.1588 23.5863 33.3263 28.3462 28.4688C32.5215 24.2814 32.9391 17.749 29.6823 13.0591C29.3483 12.8078 28.8472 12.7241 28.5967 12.9753Z" fill="currentColor">
</path>
</svg>