<svg width="23" height="22" viewBox="0 0 23 22" fill="none" xmlns="http://www.w3.org/2000/svg">
<path d="M18.2989 10.9913C18.2989 11.2128 18.2878 11.4324 18.2687 11.65H14.1444L13.8296 11.0163L11.5894 15.4521L9.73542 10.1491L8.47197 14.2895L6.78306 11.65H3.87392C3.85481 11.4324 3.84375 11.2128 3.84375 10.9913C3.84375 10.7698 3.85481 10.5492 3.87392 10.3317H7.51638L8.04348 11.156L9.65499 5.88281L11.8127 12.0701L13.8396 8.05335L14.9663 10.3317H18.2657C18.2858 10.5492 18.2989 10.7728 18.2989 10.9913Z" fill="#444444"/>
<path d="M12.3266 1.77135C12.3202 2.14934 12.198 2.51646 11.9763 2.82393C11.7546 3.1314 11.4438 3.36469 11.0853 3.49281C10.0918 3.49281 9.10811 3.68696 8.19024 4.06415C7.2724 4.44136 6.43844 4.99423 5.73599 5.6912C5.03355 6.38816 4.47637 7.21557 4.09627 8.12619C3.71617 9.03677 3.52061 10.0128 3.52074 10.9984C3.39211 10.6372 3.15373 10.3244 2.83846 10.1032C2.52319 9.88191 2.14653 9.76315 1.76037 9.76315C1.37421 9.76315 0.997551 9.88191 0.682278 10.1032C0.367006 10.3244 0.128635 10.6372 4.10931e-07 10.9984C-0.000396028 9.554 0.286055 8.12373 0.842993 6.78923C1.39993 5.45474 2.21643 4.24218 3.24586 3.22082C4.27529 2.19947 5.49748 1.38932 6.8426 0.836684C8.18771 0.284047 9.62944 -0.000261835 11.0853 1.80938e-07C11.4519 0.131036 11.7682 0.371932 11.9907 0.68931C12.2131 1.00669 12.3305 1.38483 12.3266 1.77135Z" fill="url(#paint0_linear_1486_5492)"/>
<path d="M22.1692 10.9964C22.0406 11.3576 21.8022 11.6704 21.4869 11.8916C21.1717 12.1127 20.795 12.2316 20.4089 12.2316C20.0227 12.2316 19.6461 12.1127 19.3308 11.8916C19.0155 11.6704 18.7771 11.3576 18.6485 10.9964C18.648 9.00664 17.8511 7.09853 16.433 5.69149C15.0149 4.28444 13.0916 3.4936 11.0859 3.49281C11.4501 3.3652 11.7653 3.12871 11.9883 2.81595C12.2113 2.50318 12.3311 2.1295 12.3311 1.7464C12.3311 1.3633 12.2113 0.989635 11.9883 0.676865C11.7653 0.364094 11.4501 0.127613 11.0859 0C12.5415 0 13.9828 0.284436 15.3276 0.837065C16.6724 1.3897 17.8942 2.1997 18.9234 3.22082C19.9526 4.24194 20.7689 5.45418 21.3258 6.78831C21.8828 8.12245 22.1694 9.55234 22.1692 10.9964Z" fill="url(#paint1_linear_1486_5492)"/>
<path d="M22.1643 10.9981C22.1644 12.442 21.8779 13.8719 21.321 15.2059C20.764 16.54 19.9476 17.7522 18.9184 18.7732C17.8892 19.7943 16.6673 20.6042 15.3226 21.1567C13.9779 21.7093 12.5366 21.9935 11.0811 21.9935C10.7169 21.8658 10.4017 21.6294 10.1787 21.3166C9.9557 21.0038 9.83594 20.6301 9.83594 20.247C9.83594 19.864 9.9557 19.4902 10.1787 19.1775C10.4017 18.8647 10.7169 18.6283 11.0811 18.5006C12.0745 18.5008 13.0583 18.3067 13.9762 17.9297C14.8941 17.5526 15.7281 16.9998 16.4306 16.303C17.1332 15.6061 17.6905 14.7788 18.0707 13.8681C18.4509 12.9576 18.6466 11.9817 18.6466 10.9961C18.7752 11.3573 19.0136 11.67 19.3289 11.8913C19.6441 12.1125 20.0209 12.2313 20.407 12.2313C20.7931 12.2313 21.1698 12.1125 21.4851 11.8913C21.8004 11.67 22.0387 11.3573 22.1674 10.9961L22.1643 10.9981Z" fill="url(#paint2_linear_1486_5492)"/>
<path d="M11.0911 22.0001C8.15163 22.0001 5.33255 20.8417 3.25403 18.7797C1.17551 16.7176 0.0078125 13.921 0.0078125 11.0047C0.136447 10.6436 0.374818 10.3307 0.69009 10.1096C1.00536 9.88838 1.38202 9.76953 1.76818 9.76953C2.15434 9.76953 2.53101 9.88838 2.84627 10.1096C3.16155 10.3307 3.39992 10.6436 3.52855 11.0047C3.52855 12.9951 4.32553 14.9039 5.74416 16.3113C6.4466 17.0081 7.28051 17.561 8.19828 17.9381C9.11605 18.3152 10.0997 18.5093 11.0931 18.5093C10.729 18.6369 10.4137 18.8734 10.1908 19.1862C9.96781 19.499 9.84804 19.8726 9.84804 20.2557C9.84804 20.6388 9.96781 21.0125 10.1908 21.3253C10.4137 21.638 10.729 21.8746 11.0931 22.0021L11.0911 22.0001Z" fill="url(#paint3_linear_1486_5492)"/>
<defs>
<linearGradient id="paint0_linear_1486_5492" x1="0.00201226" y1="5.49768" x2="12.3266" y2="5.49768" gradientUnits="userSpaceOnUse">
<stop stop-color="#D1C6E0"/>
<stop offset="0.35" stop-color="#9274B2"/>
<stop offset="0.71" stop-color="#652F8D"/>
<stop offset="1" stop-color="#2B1143"/>
</linearGradient>
<linearGradient id="paint1_linear_1486_5492" x1="11.0859" y1="6.11341" x2="22.1692" y2="6.11341" gradientUnits="userSpaceOnUse">
<stop offset="0.01" stop-color="#82C2DF"/>
<stop offset="0.3" stop-color="#3CAFD9"/>
<stop offset="0.59" stop-color="#0379B8"/>
<stop offset="0.7" stop-color="#006DAC"/>
<stop offset="0.73" stop-color="#006AA9"/>
<stop offset="0.91" stop-color="#334C84"/>
<stop offset="1" stop-color="#3A447A"/>
</linearGradient>
<linearGradient id="paint2_linear_1486_5492" x1="10.6777" y1="20.6098" x2="25.8031" y2="9.26158" gradientUnits="userSpaceOnUse">
<stop stop-color="#0C6237"/>
<stop offset="0.406444" stop-color="#31BB77"/>
<stop offset="0.752196" stop-color="#5BC792"/>
<stop offset="0.98" stop-color="#B1E9CD"/>
</linearGradient>
<linearGradient id="paint3_linear_1486_5492" x1="0.0078125" y1="15.8867" x2="11.0911" y2="15.8867" gradientUnits="userSpaceOnUse">
<stop stop-color="#931B1E"/>
<stop offset="0.32" stop-color="#ED4725"/>
<stop offset="0.38" stop-color="#EE5F26"/>
<stop offset="0.53" stop-color="#F08F27"/>
<stop offset="0.74" stop-color="#F5C321"/>
<stop offset="0.88" stop-color="#F8D718"/>
<stop offset="1" stop-color="#F6DF65"/>
</linearGradient>
</defs>
</svg>
