<svg width="180" height="50" viewBox="0 0 267 75" fill="none" xmlns="http://www.w3.org/2000/svg">
<g clip-path="url(#clip0_36_1189)">
<path d="M69.4591 28.3467C70.7483 28.3467 71.9548 28.5852 73.0785 29.0559C74.2021 29.5297 75.1858 30.1825 76.0293 31.014C76.8729 31.8458 77.535 32.8154 78.0156 33.9232C78.4963 35.0309 78.7351 36.2202 78.7351 37.4912C78.7351 38.7621 78.4931 39.9169 78.0156 41.0246C77.535 42.1324 76.8729 43.102 76.0293 43.9336C75.1858 44.7652 74.2021 45.4179 73.0785 45.8918C71.9548 46.3656 70.7483 46.601 69.4591 46.601C68.1699 46.601 66.9635 46.3625 65.8398 45.8918C64.7161 45.4179 63.7325 44.7652 62.889 43.9336C62.0454 43.102 61.3833 42.1324 60.9026 41.0246C60.422 39.9169 60.1832 38.737 60.1832 37.4912C60.1832 36.2453 60.422 35.0309 60.9026 33.9232C61.3833 32.8154 62.0454 31.8458 62.889 31.014C63.7325 30.1825 64.7161 29.5297 65.8398 29.0559C66.9635 28.582 68.1699 28.3467 69.4591 28.3467ZM69.4591 32.5016C68.0522 32.5016 66.8584 32.9849 65.8748 33.9577C64.8912 34.9274 64.3978 36.1041 64.3978 37.4912C64.3978 38.8782 64.888 40.0204 65.8748 40.9901C66.3428 41.4765 66.8871 41.8374 67.5078 42.0822C68.1286 42.3238 68.7779 42.4462 69.4591 42.4462C70.1404 42.4462 70.7834 42.3238 71.3914 42.0822C71.9993 41.8405 72.55 41.4765 73.0434 40.9901C74.0271 40.0204 74.5173 38.8531 74.5173 37.4912C74.5173 36.1292 74.0271 34.9274 73.0434 33.9577C72.0121 32.988 70.8184 32.5016 69.4591 32.5016Z" fill="white"/>
<path d="M83.1439 42.4425H89.9465C90.6245 42.4425 91.2707 42.3201 91.8787 42.0785C92.4867 41.8368 93.0374 41.4728 93.5308 40.9864C94.5144 40.0167 95.0078 38.8494 95.0078 37.4875C95.0078 36.1255 94.5144 34.9237 93.5308 33.954C92.4994 32.9843 91.3057 32.4979 89.9465 32.4979C88.5872 32.4979 87.3458 32.9812 86.3621 33.954C85.3785 34.9237 84.8851 36.1004 84.8851 37.4875V53.0743H80.6674V28.7917H84.8851V30.1756C85.5632 29.6453 86.3494 29.206 87.2407 28.8608C88.132 28.5156 89.1506 28.3398 90.2966 28.3398C91.5858 28.3398 92.7732 28.5783 93.8618 29.049C94.9505 29.5229 95.8927 30.1756 96.6917 31.0072C97.4875 31.8389 98.1082 32.8086 98.5539 33.9163C98.9995 35.0241 99.2224 36.2134 99.2224 37.4843C99.2224 38.7552 98.9995 39.9101 98.5539 41.0178C98.1082 42.1255 97.4875 43.0952 96.6917 43.9268C95.8959 44.7584 94.9537 45.4111 93.8618 45.8849C92.7732 46.3588 91.5826 46.5942 90.2966 46.5942H83.1439V42.4362V42.4425Z" fill="white"/>
<path d="M114.505 39.5686H105.299C105.531 40.0989 105.872 40.5727 106.318 40.9901C106.808 41.4765 107.358 41.8374 107.97 42.0822C108.578 42.3238 109.221 42.4462 109.902 42.4462C110.863 42.4462 111.716 42.2265 112.468 41.7872L116.86 43.5194C116.017 44.4891 114.998 45.2453 113.805 45.7882C112.611 46.3311 111.309 46.601 109.905 46.601C108.616 46.601 107.409 46.3625 106.286 45.8918C105.162 45.4179 104.178 44.7652 103.335 43.9336C102.491 43.102 101.829 42.1324 101.349 41.0246C100.868 39.9169 100.629 38.737 100.629 37.4912C100.629 36.2453 100.868 35.0309 101.349 33.9232C101.829 32.8154 102.491 31.8458 103.335 31.014C104.178 30.1825 105.162 29.5297 106.286 29.0559C107.409 28.582 108.616 28.3467 109.905 28.3467C111.194 28.3467 112.401 28.5852 113.524 29.0559C114.648 29.5297 115.632 30.1825 116.475 31.014C117.319 31.8458 117.981 32.8154 118.462 33.9232C118.942 35.0309 119.181 36.2202 119.181 37.4912C119.181 38.2317 119.098 38.9221 118.936 39.5686H114.508H114.505ZM109.902 32.5016C108.543 32.5016 107.349 32.9849 106.318 33.9577C105.872 34.397 105.531 34.8803 105.299 35.4138H114.505C114.269 34.8834 113.932 34.397 113.486 33.9577C112.503 32.988 111.309 32.5016 109.902 32.5016Z" fill="white"/>
<path d="M129.963 28.3467C131.109 28.3467 132.153 28.5601 133.089 28.9868C134.024 29.4136 134.827 30.0036 135.495 30.7536C136.164 31.5037 136.679 32.3761 137.042 33.3677C137.405 34.3594 137.587 35.4232 137.587 36.556V46.1522H133.369V36.556C133.369 35.4012 132.958 34.4441 132.14 33.6815C131.344 32.897 130.383 32.5048 129.259 32.5048C128.136 32.5048 127.139 32.897 126.343 33.6815C125.548 34.4661 125.15 35.4263 125.15 36.556V46.1522H120.932V28.8331H125.15V30.1511C125.783 29.6207 126.496 29.1877 127.292 28.8519C128.088 28.5161 128.979 28.3498 129.963 28.3498V28.3467Z" fill="white"/>
<path d="M148.444 28.3467C149.734 28.3467 150.94 28.5852 152.064 29.0559C153.187 29.5297 154.171 30.1825 155.015 31.014C155.858 31.8458 156.52 32.8154 157.001 33.9232C157.482 35.0309 157.72 36.2202 157.72 37.4912C157.72 38.7621 157.478 39.9169 157.001 41.0246C156.52 42.1324 155.858 43.102 155.015 43.9336C154.171 44.7652 153.187 45.4179 152.064 45.8918C150.94 46.3656 149.734 46.601 148.444 46.601C147.155 46.601 145.949 46.3625 144.825 45.8918C143.701 45.4179 142.718 44.7652 141.874 43.9336C141.031 43.102 140.369 42.1324 139.888 41.0246C139.407 39.9169 139.169 38.737 139.169 37.4912C139.169 36.2453 139.407 35.0309 139.888 33.9232C140.369 32.8154 141.031 31.8458 141.874 31.014C142.718 30.1825 143.701 29.5297 144.825 29.0559C145.949 28.582 147.155 28.3467 148.444 28.3467ZM148.444 32.5016C147.038 32.5016 145.844 32.9849 144.86 33.9577C143.877 34.9274 143.383 36.1041 143.383 37.4912C143.383 38.8782 143.873 40.0204 144.86 40.9901C145.328 41.4765 145.872 41.8374 146.493 42.0822C147.114 42.3238 147.763 42.4462 148.444 42.4462C149.126 42.4462 149.769 42.3238 150.377 42.0822C150.985 41.8405 151.535 41.4765 152.029 40.9901C153.012 40.0204 153.503 38.8531 153.503 37.4912C153.503 36.1292 153.012 34.9274 152.029 33.9577C150.997 32.988 149.804 32.5016 148.444 32.5016Z" fill="white"/>
<path d="M159.653 42.1308L168.929 42.1653C170.358 42.1653 171.552 41.6789 172.513 40.7092C173.497 39.7396 173.99 38.5722 173.99 37.2103C173.99 35.8483 173.497 34.6465 172.513 33.6768C171.529 32.7071 170.336 32.2207 168.929 32.2207C167.522 32.2207 166.376 32.7071 165.344 33.6768C164.361 34.6465 163.867 35.8232 163.867 37.2103V45.8714H159.65V21.5889H163.867V29.9016C164.545 29.3713 165.332 28.932 166.223 28.5868C167.114 28.2416 168.133 28.0659 169.279 28.0659C170.568 28.0659 171.755 28.3043 172.844 28.7751C173.933 29.2489 174.875 29.9016 175.674 30.7332C176.47 31.5649 177.09 32.5345 177.536 33.6423C177.982 34.75 178.205 35.9393 178.205 37.2103C178.205 38.4812 177.982 39.636 177.536 40.7437C177.09 41.8515 176.47 42.8211 175.674 43.6527C174.878 44.4843 173.936 45.137 172.844 45.6109C171.755 46.0847 170.565 46.3201 169.279 46.3201H159.653" fill="white"/>
<path d="M186.427 35.4099C186.707 35.4789 187.175 35.6421 187.834 35.8932C188.489 36.1473 189.164 36.4988 189.855 36.9507C190.546 37.3994 191.151 37.9611 191.663 38.6296C192.179 39.298 192.437 40.095 192.437 41.0208C192.437 41.8304 192.303 42.5678 192.032 43.2362C191.762 43.9047 191.37 44.4946 190.855 45.003C190.339 45.5114 189.705 45.9036 188.957 46.1798C188.206 46.4559 187.363 46.594 186.427 46.594C184.997 46.594 183.67 46.3398 182.438 45.8314C181.209 45.3231 180.219 44.7017 179.468 43.9611L182.384 41.0867C182.992 41.8021 183.645 42.2634 184.335 42.4737C185.026 42.6808 185.605 42.7844 186.073 42.7844C186.799 42.7844 187.337 42.6463 187.69 42.3701C188.041 42.094 188.219 41.7582 188.219 41.366C188.219 41.0898 188.101 40.845 187.869 40.6379C187.633 40.4308 187.359 40.2582 187.044 40.117C186.729 39.9789 186.404 39.8691 186.076 39.7875C185.749 39.7059 185.478 39.6306 185.268 39.5616C184.988 39.4706 184.514 39.3074 183.845 39.0752C183.177 38.8461 182.499 38.5103 181.808 38.071C181.117 37.6316 180.512 37.0793 179.997 36.4078C179.481 35.7394 179.223 34.9298 179.223 33.9821C179.223 33.0344 179.392 32.1745 179.732 31.4716C180.073 30.7686 180.522 30.1849 181.085 29.7236C181.649 29.2623 182.292 28.9203 183.017 28.7006C183.743 28.4809 184.494 28.3711 185.265 28.3711C186.458 28.3711 187.471 28.5092 188.305 28.7885C189.136 29.0646 189.82 29.3659 190.361 29.6891C190.969 30.0813 191.485 30.5207 191.908 31.0039L188.957 33.913C188.489 33.3137 187.974 32.8743 187.41 32.5982C186.847 32.322 186.252 32.1808 185.618 32.1808C185.125 32.1808 184.641 32.2969 184.16 32.526C183.68 32.7582 183.441 33.1254 183.441 33.6337C183.441 33.9099 183.546 34.1484 183.756 34.3429C183.966 34.5406 184.224 34.7007 184.529 34.8293C184.835 34.9549 185.157 35.0678 185.494 35.1588C185.835 35.253 186.143 35.3314 186.427 35.4005V35.4099Z" fill="white"/>
<path d="M207.159 39.5686H197.953C198.185 40.0989 198.526 40.5727 198.972 40.9901C199.462 41.4765 200.013 41.8374 200.624 42.0822C201.232 42.3238 201.875 42.4462 202.556 42.4462C203.517 42.4462 204.37 42.2265 205.122 41.7872L209.515 43.5194C208.671 44.4891 207.652 45.2453 206.459 45.7882C205.265 46.3311 203.963 46.601 202.559 46.601C201.27 46.601 200.064 46.3625 198.94 45.8918C197.816 45.4179 196.833 44.7652 195.989 43.9336C195.146 43.102 194.483 42.1324 194.003 41.0246C193.522 39.9169 193.283 38.737 193.283 37.4912C193.283 36.2453 193.522 35.0309 194.003 33.9232C194.483 32.8154 195.146 31.8458 195.989 31.014C196.833 30.1825 197.816 29.5297 198.94 29.0559C200.064 28.582 201.27 28.3467 202.559 28.3467C203.848 28.3467 205.055 28.5852 206.179 29.0559C207.302 29.5297 208.286 30.1825 209.129 31.014C209.973 31.8458 210.635 32.8154 211.116 33.9232C211.596 35.0309 211.835 36.2202 211.835 37.4912C211.835 38.2317 211.752 38.9221 211.59 39.5686H207.162H207.159ZM202.556 32.5016C201.197 32.5016 200.003 32.9849 198.972 33.9577C198.526 34.397 198.185 34.8803 197.953 35.4138H207.159C206.923 34.8834 206.586 34.397 206.14 33.9577C205.157 32.988 203.963 32.5016 202.556 32.5016Z" fill="white"/>
<path d="M220.21 28.8295C221.041 28.4843 221.983 28.3086 223.04 28.3086V32.4665C221.633 32.4665 220.439 32.9529 219.456 33.9226C218.472 34.9393 217.979 36.1161 217.979 37.4561V46.1517H213.761V28.7981H217.979V30.1475C218.635 29.6172 219.379 29.1778 220.21 28.8295Z" fill="white"/>
<path d="M244.858 28.8291L236.706 46.1483H232.068L223.915 28.8291H228.553L234.385 41.2309L240.217 28.8291H244.855H244.858Z" fill="white"/>
<path d="M257.753 39.5686H248.547C248.78 40.0989 249.12 40.5727 249.566 40.9901C250.059 41.4765 250.607 41.8374 251.218 42.0822C251.826 42.3238 252.472 42.4462 253.15 42.4462C254.112 42.4462 254.965 42.2265 255.716 41.7872L260.109 43.5194C259.265 44.4891 258.247 45.2453 257.053 45.7882C255.859 46.3311 254.557 46.601 253.153 46.601C251.864 46.601 250.658 46.3625 249.534 45.8918C248.41 45.4179 247.427 44.7652 246.583 43.9336C245.74 43.102 245.078 42.1324 244.597 41.0246C244.116 39.9169 243.877 38.737 243.877 37.4912C243.877 36.2453 244.116 35.0309 244.597 33.9232C245.078 32.8154 245.74 31.8458 246.583 31.014C247.427 30.1825 248.41 29.5297 249.534 29.0559C250.658 28.582 251.864 28.3467 253.153 28.3467C254.443 28.3467 255.649 28.5852 256.773 29.0559C257.896 29.5297 258.88 30.1825 259.724 31.014C260.567 31.8458 261.229 32.8154 261.71 33.9232C262.191 35.0309 262.429 36.2202 262.429 37.4912C262.429 38.2317 262.347 38.9221 262.184 39.5686H257.756H257.753ZM253.15 32.5016C251.791 32.5016 250.597 32.9849 249.566 33.9577C249.12 34.397 248.78 34.8803 248.547 35.4138H257.753C257.518 34.8834 257.18 34.397 256.734 33.9577C255.751 32.988 254.557 32.5016 253.15 32.5016Z" fill="white"/>
<path d="M41.6729 22.5713C40.1608 24.9626 36.9935 25.7126 34.5488 24.2816C34.5361 24.2753 34.5234 24.2659 34.5106 24.2596C34.4692 24.2345 34.4279 24.2094 34.3865 24.1843C27.0078 19.7345 17.3563 21.9594 12.747 29.1864C14.189 26.7795 13.4282 23.6634 11.0058 22.176C8.55787 20.6697 5.33963 21.3977 3.79895 23.7983C3.80532 23.7858 3.81487 23.7764 3.82123 23.7638C11.496 11.6383 27.6667 7.92595 39.9826 15.4448C39.989 15.4448 39.9921 15.4511 39.9985 15.4542C39.9985 15.4542 40.0017 15.4542 40.0049 15.4573C42.4559 16.9699 43.204 20.155 41.6729 22.5745V22.5713Z" fill="#6B76E3"/>
<path d="M10.6045 52.4055C9.07658 54.8187 9.81509 57.9913 12.2503 59.5101C12.2375 59.5038 12.228 59.4944 12.2152 59.4881C-0.0338069 51.9536 -3.82184 36.1032 3.68738 23.984C3.71921 23.9306 3.75104 23.8773 3.78606 23.8239C3.79243 23.8145 3.79561 23.8051 3.80198 23.7957C5.34266 21.395 8.56089 20.667 11.0088 22.1733C13.428 23.6607 14.192 26.7768 12.75 29.1837C12.75 29.1869 12.75 29.19 12.7436 29.1932C12.7373 29.2057 12.7277 29.2183 12.7214 29.2308C12.6959 29.2716 12.6704 29.3124 12.645 29.3532C12.645 29.3595 12.6386 29.3626 12.6354 29.3689C8.13753 36.6461 10.3976 46.1513 17.7318 50.689C15.2902 49.258 12.1229 50.0111 10.6109 52.3992L10.6045 52.4055Z" fill="#F45B49"/>
<path d="M48.491 51.1599C48.4782 51.1787 48.4687 51.1976 48.4559 51.2164C40.813 63.2917 24.7346 67.026 12.4411 59.6233C12.387 59.5919 12.3329 59.5605 12.2787 59.526C12.2692 59.5197 12.2596 59.5166 12.2501 59.5103C9.81493 57.9915 9.07642 54.8189 10.6044 52.4057C12.1164 50.0177 15.2837 49.2645 17.7252 50.6955C17.738 50.7018 17.7507 50.7112 17.7634 50.7174C17.8048 50.7425 17.8462 50.7677 17.8876 50.7928C17.8876 50.7928 17.894 50.7928 17.894 50.799C25.2757 55.2425 34.9272 53.0145 39.5334 45.7812C38.0818 48.1882 38.8426 51.3137 41.265 52.8043C43.7193 54.3137 46.9535 53.5794 48.4878 51.1599H48.491Z" fill="#5ACA7A"/>
<path d="M48.5007 51.1391C48.5007 51.1391 48.4943 51.1485 48.4911 51.1548C48.4911 51.1548 48.4911 51.1579 48.4879 51.1611C46.9536 53.5774 43.7226 54.3148 41.2652 52.8054C38.8428 51.3148 38.082 48.1925 39.5335 45.7824C39.5399 45.7699 39.5494 45.7573 39.5558 45.7448C39.5813 45.704 39.6067 45.6632 39.6322 45.6224C44.146 38.342 41.8891 28.8243 34.5454 24.2835C36.9869 25.7144 40.1574 24.9644 41.6695 22.5732C43.2006 20.1538 42.4557 16.9686 40.0015 15.4561C40.0206 15.4686 40.0397 15.478 40.0587 15.4906C52.3587 23.0565 56.1245 38.9979 48.4975 51.1391H48.5007Z" fill="#45A4F3"/>
<path d="M28.1695 49.0509L23.5316 34.4274L20.7145 44.8333L17.8146 38.9211C17.7668 38.8207 17.6618 38.758 17.5504 38.758H11.9415C11.3717 38.758 10.8974 38.3155 10.8847 37.7538C10.8847 37.7412 10.8847 37.7255 10.8847 37.713C10.8783 37.1419 11.3622 36.6837 11.9415 36.6837H17.5504C18.4703 36.6837 19.3075 37.2015 19.7086 38.0174L20.1447 38.9055L23.3724 26.9775L28.1664 42.0906L31.7602 30.7087L34.1445 36.2161C34.2049 36.3573 34.3482 36.4515 34.5042 36.4515H40.495C41.0648 36.4515 41.5423 36.9002 41.5391 37.4619C41.5391 37.4808 41.5391 37.4996 41.5391 37.5184C41.5327 38.077 41.0616 38.5257 40.4918 38.5257H34.0999C33.3423 38.5257 32.6611 38.0801 32.3618 37.396L32.0626 36.7088L28.1632 49.0509H28.1695Z" fill="white"/>
</g>
<defs>
<clipPath id="clip0_36_1189">
<rect width="267" height="75" fill="white"/>
</clipPath>
</defs>
</svg>
