<svg width="1291" height="265" viewBox="0 0 1291 265" fill="none" xmlns="http://www.w3.org/2000/svg">
<g clip-path="url(#clip0_438_3252)">
<path d="M218.807 133.494C218.807 136.163 218.674 138.809 218.446 141.43H169.168L165.406 133.795L138.64 187.242L116.488 123.346L101.392 173.234L81.2125 141.43H46.4533C46.225 138.809 46.0928 136.163 46.0928 133.494C46.0928 130.825 46.225 128.167 46.4533 125.546H89.9744L96.2723 135.478L115.527 71.9424L141.308 146.492L165.526 98.0949L178.988 125.546H218.41C218.65 128.167 218.807 130.861 218.807 133.494Z" fill="white"/>
<path d="M147.282 22.3428C147.205 26.8972 145.745 31.3205 143.096 35.0252C140.447 38.7299 136.734 41.5407 132.45 43.0845C120.58 43.0845 108.826 45.4237 97.8591 49.9685C86.8925 54.5134 76.9282 61.1749 68.5351 69.5726C60.1421 77.9702 53.4848 87.9396 48.9433 98.9115C44.4018 109.883 42.0651 121.643 42.0667 133.518C40.5298 129.166 37.6816 125.397 33.9147 122.732C30.1477 120.066 25.6473 118.635 21.0334 118.635C16.4194 118.635 11.919 120.066 8.15204 122.732C4.38508 125.397 1.53696 129.166 4.90991e-06 133.518C-0.00473185 116.115 3.41786 98.8819 10.0723 82.8027C16.7267 66.7235 26.4825 52.1135 38.7824 39.8073C51.0823 27.5011 65.6853 17.7398 81.7571 11.0811C97.8289 4.42245 115.055 0.996843 132.45 1C136.83 2.57884 140.61 5.48136 143.268 9.30541C145.925 13.1295 147.328 17.6857 147.282 22.3428Z" fill="url(#paint0_linear_438_3252)"/>
<path d="M264.875 133.494C263.338 137.846 260.49 141.615 256.723 144.28C252.956 146.945 248.456 148.377 243.842 148.377C239.228 148.377 234.728 146.945 230.961 144.28C227.194 141.615 224.345 137.846 222.809 133.494C222.802 109.52 213.281 86.5294 196.337 69.5761C179.393 52.6227 156.413 43.094 132.449 43.0845C136.8 41.5469 140.566 38.6975 143.231 34.929C145.895 31.1605 147.326 26.6581 147.326 22.0422C147.326 17.4263 145.895 12.924 143.231 9.15547C140.566 5.38693 136.8 2.5376 132.449 1C149.841 1 167.062 4.42714 183.129 11.0857C199.197 17.7443 213.796 27.5039 226.093 39.8073C238.39 52.1107 248.144 66.7168 254.798 82.7916C261.453 98.8664 264.877 116.095 264.875 133.494Z" fill="url(#paint1_linear_438_3252)"/>
<path d="M264.875 133.494C264.876 150.892 261.452 168.12 254.798 184.194C248.143 200.268 238.389 214.874 226.092 227.176C213.794 239.479 199.195 249.237 183.128 255.894C167.061 262.552 149.84 265.977 132.449 265.976C128.098 264.438 124.332 261.589 121.667 257.82C119.003 254.052 117.572 249.549 117.572 244.933C117.572 240.318 119.003 235.815 121.667 232.047C124.332 228.278 128.098 225.429 132.449 223.891C144.319 223.893 156.074 221.555 167.041 217.012C178.008 212.468 187.973 205.808 196.367 197.412C204.761 189.015 211.42 179.047 215.963 168.075C220.506 157.104 222.844 145.345 222.844 133.47C224.381 137.822 227.229 141.59 230.996 144.256C234.763 146.921 239.264 148.353 243.878 148.353C248.491 148.353 252.992 146.921 256.759 144.256C260.526 141.59 263.374 137.822 264.911 133.47L264.875 133.494Z" fill="url(#paint2_linear_438_3252)"/>
<path d="M132.449 265.976C97.3279 265.976 63.6448 252.018 38.8101 227.173C13.9754 202.328 0.0234375 168.631 0.0234375 133.494C1.56039 129.142 4.40851 125.373 8.17547 122.708C11.9424 120.043 16.4428 118.611 21.0568 118.611C25.6707 118.611 30.1712 120.043 33.9381 122.708C37.7051 125.373 40.5532 129.142 42.0901 133.494C42.0901 157.475 51.6126 180.474 68.5628 197.432C76.9557 205.828 86.9195 212.489 97.8853 217.033C108.851 221.577 120.604 223.916 132.473 223.916C128.123 225.453 124.356 228.303 121.692 232.071C119.028 235.84 117.597 240.342 117.597 244.958C117.597 249.574 119.028 254.076 121.692 257.845C124.356 261.613 128.123 264.463 132.473 266L132.449 265.976Z" fill="url(#paint3_linear_438_3252)"/>
<path fill-rule="evenodd" clip-rule="evenodd" d="M332.349 89.6643C321.882 90.9745 312.254 96.0634 305.273 103.975C298.293 111.886 294.44 122.076 294.44 132.628C294.44 143.181 298.293 153.37 305.273 161.281C312.254 169.193 321.882 174.282 332.349 175.592C335.908 176.039 339.508 176.039 343.067 175.592C353.533 174.282 363.162 169.193 370.142 161.281C377.123 153.37 380.975 143.181 380.975 132.628C380.975 122.076 377.123 111.886 370.142 103.975C363.162 96.0634 353.533 90.9745 343.067 89.6643C339.508 89.2174 335.908 89.2174 332.349 89.6643ZM342.345 106.907C348.432 107.969 353.946 111.156 357.907 115.9C361.867 120.645 364.019 126.64 363.979 132.821C363.938 139.003 361.709 144.97 357.687 149.662C353.665 154.355 348.111 157.47 342.01 158.453C339.162 158.935 336.253 158.935 333.405 158.453H333.045C326.931 157.421 321.385 154.245 317.399 149.494C313.413 144.743 311.247 138.728 311.291 132.526C311.334 126.324 313.583 120.34 317.636 115.645C321.688 110.951 327.278 107.853 333.405 106.907C336.253 106.424 339.162 106.424 342.01 106.907H342.345Z" fill="white"/>
<path fill-rule="evenodd" clip-rule="evenodd" d="M631.462 109.665C635.625 110.61 639.343 112.939 642.011 116.273C644.678 119.606 646.137 123.746 646.147 128.016V175.052C646.147 175.284 646.24 175.507 646.404 175.671C646.568 175.836 646.791 175.928 647.023 175.928H662.481C662.714 175.928 662.936 175.836 663.101 175.671C663.265 175.507 663.357 175.284 663.357 175.052V128.016C663.338 119.429 660.259 111.13 654.673 104.611C649.086 98.0919 641.359 93.7794 632.879 92.4485C631.062 92.1831 629.228 92.0453 627.392 92.0361C625.563 92.0442 623.738 92.182 621.93 92.4485C613.445 93.7739 605.712 98.084 600.12 104.604C594.529 111.123 591.446 119.425 591.426 128.016V175.052C591.426 175.284 591.518 175.507 591.682 175.671C591.847 175.836 592.069 175.928 592.302 175.928H607.76C607.992 175.928 608.215 175.836 608.379 175.671C608.543 175.507 608.636 175.284 608.636 175.052V128.016C608.648 123.749 610.107 119.613 612.775 116.284C615.442 112.955 619.161 110.63 623.321 109.691C624.665 109.382 626.039 109.227 627.417 109.227C628.794 109.23 630.167 109.376 631.514 109.665H631.462Z" fill="white"/>
<path fill-rule="evenodd" clip-rule="evenodd" d="M431.384 89.6647C420.912 90.9662 411.277 96.0521 404.292 103.965C397.307 111.878 393.455 122.072 393.46 132.629V197.938C393.46 198.05 393.482 198.16 393.525 198.263C393.567 198.367 393.63 198.46 393.709 198.539C393.788 198.618 393.882 198.681 393.985 198.724C394.088 198.766 394.199 198.788 394.31 198.788H409.768C409.996 198.788 410.215 198.7 410.379 198.541C410.542 198.382 410.637 198.166 410.644 197.938V132.629C410.645 126.444 412.838 120.461 416.834 115.742C420.829 111.023 426.368 107.874 432.466 106.855C435.314 106.373 438.223 106.373 441.071 106.855H441.406C447.493 107.918 453.006 111.104 456.967 115.849C460.928 120.594 463.079 126.589 463.039 132.77C462.999 138.952 460.77 144.919 456.748 149.611C452.726 154.304 447.171 157.419 441.071 158.402C438.223 158.884 435.314 158.884 432.466 158.402H432.105C428.069 157.685 424.262 156.015 421.001 153.531C420.862 153.444 420.701 153.398 420.537 153.398C420.373 153.398 420.213 153.444 420.074 153.531C419.925 153.597 419.799 153.706 419.712 153.843C419.625 153.981 419.58 154.141 419.584 154.304V171.984C419.586 172.156 419.639 172.323 419.735 172.465C419.831 172.607 419.967 172.718 420.125 172.783C423.733 174.283 427.53 175.281 431.41 175.747C434.968 176.194 438.569 176.194 442.127 175.747C452.594 174.437 462.222 169.348 469.203 161.437C476.183 153.525 480.036 143.336 480.036 132.783C480.036 122.231 476.183 112.041 469.203 104.13C462.222 96.2185 452.594 91.1296 442.127 89.8193C438.569 89.3727 434.968 89.3727 431.41 89.8193L431.384 89.6647Z" fill="white"/>
<path fill-rule="evenodd" clip-rule="evenodd" d="M891.132 114.742C891.29 115.414 891.607 116.038 892.055 116.562C892.503 117.087 893.07 117.497 893.709 117.757L930.705 134.484C933.216 135.618 935.489 137.219 937.403 139.201C941.002 142.63 943.19 147.282 943.535 152.242C943.644 154.448 943.454 156.659 942.968 158.814C942.55 160.669 941.873 162.456 940.959 164.123C939.073 167.601 936.308 170.521 932.94 172.593C929.571 174.665 925.717 175.815 921.765 175.928H878.328C878.095 175.928 877.873 175.835 877.708 175.671C877.544 175.507 877.452 175.284 877.452 175.051V159.587C877.452 159.355 877.544 159.132 877.708 158.968C877.873 158.803 878.095 158.711 878.328 158.711H921.713C922.736 158.746 923.736 158.41 924.531 157.766C925.326 157.122 925.862 156.213 926.042 155.206C926.183 154.569 926.183 153.91 926.042 153.273C925.885 152.598 925.57 151.969 925.122 151.44C924.674 150.911 924.106 150.497 923.465 150.232L886.469 133.505C883.964 132.371 881.693 130.78 879.771 128.814C876.177 125.373 873.999 120.712 873.664 115.747C873.536 113.542 873.718 111.33 874.206 109.175C874.626 107.317 875.311 105.529 876.241 103.866C878.118 100.387 880.878 97.4646 884.243 95.3924C887.608 93.3202 891.459 92.1714 895.409 92.0616H938.691C938.924 92.0616 939.147 92.1539 939.311 92.3183C939.475 92.4826 939.567 92.7055 939.567 92.9379V108.402C939.567 108.517 939.545 108.631 939.501 108.737C939.457 108.843 939.392 108.94 939.311 109.021C939.23 109.103 939.133 109.167 939.027 109.211C938.92 109.255 938.807 109.278 938.691 109.278H895.409C894.39 109.243 893.393 109.575 892.598 110.213C891.804 110.852 891.265 111.755 891.081 112.758C890.939 113.403 890.939 114.071 891.081 114.716L891.132 114.742ZM1158.25 149.484L1132.92 92.4998C1132.86 92.3441 1132.74 92.2118 1132.6 92.12C1132.46 92.0281 1132.29 91.9809 1132.12 91.9843H1115.15C1115 91.9811 1114.85 92.0175 1114.72 92.0899C1114.59 92.1624 1114.48 92.2682 1114.4 92.3967C1114.33 92.5229 1114.29 92.6648 1114.29 92.809C1114.29 92.9533 1114.33 93.0952 1114.4 93.2214L1151.11 175.412C1151.18 175.568 1151.29 175.7 1151.43 175.792C1151.57 175.884 1151.74 175.931 1151.91 175.928H1166.36C1166.53 175.931 1166.7 175.884 1166.84 175.792C1166.98 175.7 1167.09 175.568 1167.16 175.412L1204.39 93.273C1204.46 93.1468 1204.5 93.0049 1204.5 92.8606C1204.5 92.7163 1204.46 92.5744 1204.39 92.4482C1204.31 92.3178 1204.21 92.2105 1204.07 92.1378C1203.94 92.0651 1203.79 92.0299 1203.64 92.0358H1186.66C1186.5 92.0324 1186.33 92.0797 1186.19 92.1715C1186.04 92.2633 1185.93 92.3956 1185.87 92.5513L1160.1 149.484C1160.03 149.665 1159.9 149.818 1159.73 149.923C1159.56 150.029 1159.37 150.083 1159.17 150.077C1158.98 150.076 1158.79 150.02 1158.63 149.915C1158.46 149.81 1158.33 149.661 1158.25 149.484ZM1054.88 175C1054.88 175.232 1054.98 175.455 1055.14 175.619C1055.31 175.784 1055.53 175.876 1055.76 175.876H1071.22C1071.45 175.876 1071.67 175.784 1071.84 175.619C1072 175.455 1072.09 175.232 1072.09 175V135.077C1072.1 133.635 1072.22 132.196 1072.46 130.773C1073.48 124.675 1076.63 119.137 1081.34 115.141C1086.06 111.145 1092.04 108.949 1098.22 108.943H1101.03C1101.25 108.943 1101.47 108.853 1101.63 108.694C1101.79 108.534 1101.88 108.318 1101.88 108.093V92.7833C1101.88 92.5553 1101.79 92.3362 1101.63 92.1726C1101.47 92.009 1101.25 91.9137 1101.03 91.907H1098.22C1087.66 91.9012 1077.47 95.7541 1069.56 102.741C1061.64 109.728 1056.55 119.367 1055.25 129.845C1055.03 131.624 1054.92 133.414 1054.91 135.206V175.051L1054.88 175ZM713.648 89.6647C717.215 89.2181 720.824 89.2181 724.391 89.6647C734.858 90.9749 744.486 96.0639 751.467 103.975C758.447 111.887 762.3 122.076 762.3 132.629C762.3 143.181 758.447 153.37 751.467 161.282C744.486 169.193 734.858 174.282 724.391 175.593C720.824 176.039 717.215 176.039 713.648 175.593C703.181 174.282 693.553 169.193 686.572 161.282C679.592 153.37 675.739 143.181 675.739 132.629C675.739 122.076 679.592 111.887 686.572 103.975C693.553 96.0639 703.181 90.9749 713.648 89.6647ZM723.67 106.907H723.335C721.913 106.671 720.474 106.55 719.032 106.546C717.582 106.551 716.135 106.672 714.704 106.907C708.603 107.887 703.047 110.999 699.022 115.69C694.998 120.38 692.766 126.346 692.722 132.528C692.679 138.709 694.828 144.705 698.786 149.452C702.745 154.199 708.257 157.388 714.343 158.453H714.704C716.135 158.689 717.582 158.809 719.032 158.814C720.474 158.81 721.913 158.69 723.335 158.453C729.435 157.47 734.99 154.356 739.012 149.663C743.034 144.97 745.263 139.003 745.303 132.822C745.343 126.641 743.192 120.645 739.231 115.901C735.271 111.156 729.757 107.969 723.67 106.907ZM812.631 89.6647C808.761 90.1344 804.972 91.1316 801.372 92.6286C801.214 92.6942 801.078 92.8049 800.982 92.9469C800.886 93.0889 800.833 93.2561 800.831 93.4276V111.108C800.834 111.269 800.88 111.425 800.965 111.561C801.051 111.697 801.172 111.807 801.315 111.879C801.459 111.951 801.62 111.982 801.779 111.969C801.939 111.955 802.093 111.898 802.223 111.804C805.588 109.252 809.522 107.554 813.687 106.855C815.109 106.619 816.548 106.498 817.99 106.495C819.44 106.5 820.887 106.62 822.318 106.855H822.653C828.74 107.918 834.254 111.104 838.214 115.849C842.175 120.594 844.326 126.589 844.286 132.77C844.246 138.952 842.017 144.919 837.995 149.611C833.973 154.304 828.418 157.419 822.318 158.402C820.887 158.637 819.44 158.758 817.99 158.763C816.548 158.759 815.109 158.638 813.687 158.402H813.327C807.295 157.311 801.841 154.13 797.921 149.417C794.001 144.704 791.866 138.76 791.891 132.629V67.0101C791.891 66.7777 791.799 66.5548 791.635 66.3905C791.471 66.2261 791.248 66.1338 791.015 66.1338H775.557C775.325 66.1338 775.102 66.2261 774.938 66.3905C774.774 66.5548 774.681 66.7777 774.681 67.0101V132.629C774.682 143.183 778.536 153.375 785.52 161.286C792.503 169.198 802.136 174.286 812.605 175.593C816.172 176.039 819.781 176.039 823.348 175.593C833.815 174.282 843.444 169.193 850.424 161.282C857.405 153.37 861.257 143.181 861.257 132.629C861.257 122.076 857.405 111.887 850.424 103.975C843.444 96.0639 833.815 90.9749 823.348 89.6647C819.781 89.2181 816.172 89.2181 812.605 89.6647H812.631ZM1017.66 151.108C1014.85 153.919 1011.44 156.052 1007.69 157.345H1007.45C1003.33 158.722 998.921 159.044 994.638 158.284C990.354 157.523 986.329 155.703 982.927 152.989C979.528 150.255 976.87 146.71 975.198 142.68C972.623 136.334 972.623 129.233 975.198 122.886C976.86 118.851 979.52 115.303 982.927 112.577C986.087 110.044 989.792 108.279 993.749 107.422C997.707 106.565 1001.81 106.64 1005.73 107.639C1009.66 108.639 1013.3 110.536 1016.36 113.182C1019.43 115.828 1021.84 119.15 1023.4 122.886C1023.58 123.325 1023.74 123.763 1023.89 124.201H982.154C980.231 129.761 980.231 135.806 982.154 141.366H1041C1041.21 141.367 1041.41 141.292 1041.57 141.154C1041.72 141.016 1041.82 140.826 1041.85 140.618L1042.16 138.041C1042.6 134.481 1042.6 130.879 1042.16 127.319C1040.87 116.827 1035.79 107.169 1027.88 100.164C1019.97 93.1593 1009.76 89.2925 999.197 89.2925C988.63 89.2925 978.429 93.1593 970.515 100.164C962.602 107.169 957.523 116.827 956.236 127.319C955.79 130.879 955.79 134.481 956.236 138.041C957.245 146.085 960.49 153.685 965.601 159.976C970.713 166.267 977.486 170.997 985.152 173.628C992.817 176.259 1001.07 176.686 1008.96 174.86C1016.86 173.034 1024.08 169.029 1029.82 163.299L1031.8 161.314C1031.96 161.15 1032.06 160.928 1032.06 160.696C1032.06 160.464 1031.96 160.241 1031.8 160.077L1020.88 149.175C1020.8 149.095 1020.7 149.031 1020.6 148.988C1020.5 148.944 1020.38 148.922 1020.27 148.922C1020.16 148.922 1020.05 148.944 1019.94 148.988C1019.84 149.031 1019.75 149.095 1019.67 149.175L1017.66 151.16V151.108ZM1265.55 151.108C1262.74 153.913 1259.33 156.045 1255.58 157.345H1255.35C1252.68 158.226 1249.89 158.678 1247.08 158.685C1241.91 158.676 1236.87 157.139 1232.57 154.269C1228.28 151.398 1224.93 147.322 1222.94 142.551C1220.36 136.205 1220.36 129.104 1222.94 122.758C1224.62 118.73 1227.27 115.186 1230.67 112.448C1235.31 108.727 1241.07 106.7 1247.02 106.7C1252.96 106.7 1258.73 108.727 1263.36 112.448C1266.75 115.193 1269.41 118.735 1271.09 122.758C1271.27 123.196 1271.43 123.634 1271.58 124.072H1230.05C1228.09 129.626 1228.09 135.683 1230.05 141.237H1288.89C1289.1 141.238 1289.3 141.163 1289.46 141.025C1289.62 140.887 1289.72 140.697 1289.74 140.489L1290.05 137.912C1290.5 134.352 1290.5 130.75 1290.05 127.19C1288.77 116.699 1283.69 107.04 1275.77 100.035C1267.86 93.0304 1257.66 89.1636 1247.09 89.1636C1236.53 89.1636 1226.32 93.0304 1218.41 100.035C1210.5 107.04 1205.42 116.699 1204.13 127.19C1203.69 130.75 1203.69 134.352 1204.13 137.912C1205.14 145.956 1208.38 153.557 1213.48 159.85C1218.59 166.142 1225.37 170.874 1233.03 173.506C1240.69 176.138 1248.94 176.564 1256.84 174.737C1264.73 172.91 1271.96 168.902 1277.69 163.17L1279.67 161.185C1279.75 161.106 1279.82 161.01 1279.87 160.904C1279.91 160.797 1279.94 160.683 1279.94 160.567C1279.94 160.451 1279.91 160.336 1279.87 160.23C1279.82 160.124 1279.75 160.028 1279.67 159.948L1268.77 149.046C1268.61 148.882 1268.39 148.791 1268.15 148.791C1267.92 148.791 1267.7 148.882 1267.54 149.046L1265.55 151.031V151.108Z" fill="url(#paint4_linear_438_3252)"/>
<path fill-rule="evenodd" clip-rule="evenodd" d="M554.198 151.109C551.383 153.908 547.976 156.039 544.227 157.346H543.97C539.843 158.722 535.437 159.045 531.153 158.284C526.87 157.523 522.844 155.703 519.443 152.99C515.996 150.271 513.293 146.725 511.585 142.681C509.01 136.334 509.01 129.233 511.585 122.887C513.26 118.858 515.917 115.314 519.314 112.578C522.474 110.044 526.178 108.28 530.136 107.423C534.094 106.566 538.196 106.64 542.12 107.64C546.044 108.639 549.683 110.537 552.749 113.182C555.815 115.828 558.225 119.15 559.789 122.887C559.969 123.325 560.123 123.763 560.278 124.201H518.67C516.746 129.761 516.746 135.806 518.67 141.366H577.514C577.722 141.368 577.924 141.292 578.081 141.155C578.238 141.017 578.339 140.826 578.364 140.619L578.673 138.041C579.12 134.482 579.12 130.88 578.673 127.32C577.387 116.828 572.308 107.169 564.394 100.165C556.481 93.1598 546.279 89.293 535.713 89.293C525.146 89.293 514.944 93.1598 507.031 100.165C499.117 107.169 494.039 116.828 492.752 127.32C492.305 130.88 492.305 134.482 492.752 138.041C493.761 146.086 497.005 153.685 502.117 159.976C507.229 166.267 514.002 170.997 521.667 173.629C529.333 176.26 537.582 176.687 545.478 174.861C553.374 173.035 560.599 169.029 566.332 163.299L568.316 161.315C568.48 161.15 568.572 160.928 568.572 160.696C568.572 160.464 568.48 160.242 568.316 160.078L557.393 149.176C557.313 149.095 557.219 149.032 557.115 148.988C557.011 148.945 556.9 148.922 556.787 148.922C556.674 148.922 556.563 148.945 556.459 148.988C556.355 149.032 556.261 149.095 556.182 149.176L554.198 151.16V151.109Z" fill="white"/>
<path d="M281.62 89.3301H278.967V175.954H281.62V89.3301Z" fill="#C4C4C4"/>
</g>
<defs>
<linearGradient id="paint0_linear_438_3252" x1="0.024043" y1="67.2409" x2="147.282" y2="67.2409" gradientUnits="userSpaceOnUse">
<stop stop-color="#D1C6E0"/>
<stop offset="0.35" stop-color="#9274B2"/>
<stop offset="0.71" stop-color="#652F8D"/>
<stop offset="1" stop-color="#2B1143"/>
</linearGradient>
<linearGradient id="paint1_linear_438_3252" x1="132.449" y1="74.6598" x2="264.875" y2="74.6598" gradientUnits="userSpaceOnUse">
<stop offset="0.01" stop-color="#82C2DF"/>
<stop offset="0.3" stop-color="#3CAFD9"/>
<stop offset="0.59" stop-color="#0379B8"/>
<stop offset="0.7" stop-color="#006DAC"/>
<stop offset="0.73" stop-color="#006AA9"/>
<stop offset="0.91" stop-color="#334C84"/>
<stop offset="1" stop-color="#3A447A"/>
</linearGradient>
<linearGradient id="paint2_linear_438_3252" x1="127.629" y1="249.304" x2="309.441" y2="114.035" gradientUnits="userSpaceOnUse">
<stop stop-color="#0C6237"/>
<stop offset="0.406444" stop-color="#31BB77"/>
<stop offset="0.752196" stop-color="#5BC792"/>
<stop offset="0.98" stop-color="#B1E9CD"/>
</linearGradient>
<linearGradient id="paint3_linear_438_3252" x1="0.0234375" y1="192.316" x2="132.449" y2="192.316" gradientUnits="userSpaceOnUse">
<stop stop-color="#931B1E"/>
<stop offset="0.32" stop-color="#ED4725"/>
<stop offset="0.38" stop-color="#EE5F26"/>
<stop offset="0.53" stop-color="#F08F27"/>
<stop offset="0.74" stop-color="#F5C321"/>
<stop offset="0.88" stop-color="#F8D718"/>
<stop offset="1" stop-color="#F6DF65"/>
</linearGradient>
<linearGradient id="paint4_linear_438_3252" x1="333.354" y1="121.056" x2="1481.5" y2="121.056" gradientUnits="userSpaceOnUse">
<stop stop-color="#F6DF65"/>
<stop offset="0.12" stop-color="#F8D718"/>
<stop offset="0.26" stop-color="#F5C321"/>
<stop offset="0.47" stop-color="#F08F27"/>
<stop offset="0.62" stop-color="#EE5F26"/>
<stop offset="0.68" stop-color="#ED4725"/>
<stop offset="1" stop-color="#931B1E"/>
</linearGradient>
<clipPath id="clip0_438_3252">
<rect width="1290.39" height="265" fill="white"/>
</clipPath>
</defs>
</svg>
