<svg width="16" height="16" viewBox="0 0 16 16" fill="none" xmlns="http://www.w3.org/2000/svg">
<path d="M8 4.53867H9.075V7.56211L11.5945 9.07383L11.057 9.94727L8 8.09961V4.53867ZM4.13672 2.82539C5.41328 1.57122 6.9362 0.94414 8.70547 0.94414C10.4747 0.94414 11.9865 1.57122 13.2406 2.82539C14.5172 4.07956 15.1555 5.60247 15.1555 7.39414C15.1555 9.18581 14.5172 10.7087 13.2406 11.9629C11.9865 13.2171 10.4747 13.8441 8.70547 13.8441C7.96641 13.8441 7.14896 13.665 6.25312 13.3066C5.37969 12.9259 4.68542 12.478 4.17031 11.9629L5.17812 10.9215C6.16354 11.9069 7.33932 12.3996 8.70547 12.3996C10.094 12.3996 11.281 11.9181 12.2664 10.9551C13.2518 9.96966 13.7445 8.78268 13.7445 7.39414C13.7445 6.0056 13.2518 4.82982 12.2664 3.8668C11.281 2.88138 10.094 2.38867 8.70547 2.38867C7.31693 2.38867 6.12995 2.88138 5.14453 3.8668C4.18151 4.82982 3.7 6.0056 3.7 7.39414H5.85L2.96094 10.2832L2.89375 10.1824L0.105468 7.39414H2.25547C2.25547 5.60247 2.88255 4.07956 4.13672 2.82539Z" fill="black"/>
</svg>
