<svg width="201" height="205" viewBox="0 0 201 205" fill="none" xmlns="http://www.w3.org/2000/svg">
<path d="M100.5 200.58C155.728 200.58 200.5 155.809 200.5 100.58C200.5 45.3516 155.728 0.580078 100.5 0.580078C45.2715 0.580078 0.5 45.3516 0.5 100.58C0.5 155.809 45.2715 200.58 100.5 200.58Z" fill="url(#paint0_linear_13_1605)"/>
<g filter="url(#filter0_d_13_1605)">
<mask id="mask0_13_1605" style="mask-type:alpha" maskUnits="userSpaceOnUse" x="0" y="0" width="201" height="201">
<path d="M100.5 200.58C155.728 200.58 200.5 155.809 200.5 100.58C200.5 45.3516 155.728 0.580078 100.5 0.580078C45.2715 0.580078 0.5 45.3516 0.5 100.58C0.5 155.809 45.2715 200.58 100.5 200.58Z" fill="url(#paint1_linear_13_1605)"/>
</mask>
<g mask="url(#mask0_13_1605)">
<path d="M157.833 57.9136H43.1667C39.4848 57.9136 36.5 60.8983 36.5 64.5802V204.58C36.5 208.262 39.4848 211.247 43.1667 211.247H157.833C161.515 211.247 164.5 208.262 164.5 204.58V64.5802C164.5 60.8983 161.515 57.9136 157.833 57.9136Z" fill="white"/>
</g>
</g>
<path d="M88.5002 71.2466H53.8335C51.6244 71.2466 49.8335 73.0374 49.8335 75.2466C49.8335 77.4557 51.6244 79.2466 53.8335 79.2466H88.5002C90.7093 79.2466 92.5002 77.4557 92.5002 75.2466C92.5002 73.0374 90.7093 71.2466 88.5002 71.2466Z" fill="#E1E3FA"/>
<path d="M88.5002 127.247H53.8335C51.6244 127.247 49.8335 129.037 49.8335 131.247C49.8335 133.456 51.6244 135.247 53.8335 135.247H88.5002C90.7093 135.247 92.5002 133.456 92.5002 131.247C92.5002 129.037 90.7093 127.247 88.5002 127.247Z" fill="#E1E3FA"/>
<path d="M144.5 91.2461H56.5003C53.5548 91.2461 51.167 93.6339 51.167 96.5794V109.913C51.167 112.858 53.5548 115.246 56.5003 115.246H144.5C147.446 115.246 149.834 112.858 149.834 109.913V96.5794C149.834 93.6339 147.446 91.2461 144.5 91.2461Z" stroke="#5960B2" stroke-width="2.66667"/>
<path d="M144.5 145.914H56.5002C52.8183 145.914 49.8335 148.898 49.8335 152.58V163.247C49.8335 166.929 52.8183 169.914 56.5002 169.914H144.5C148.182 169.914 151.167 166.929 151.167 163.247V152.58C151.167 148.898 148.182 145.914 144.5 145.914Z" fill="#DFE1FB"/>
<path d="M71.1668 43.2467C74.1123 43.2467 76.5002 40.8589 76.5002 37.9134C76.5002 34.9679 74.1123 32.5801 71.1668 32.5801C68.2213 32.5801 65.8335 34.9679 65.8335 37.9134C65.8335 40.8589 68.2213 43.2467 71.1668 43.2467Z" fill="white"/>
<path d="M100.5 43.2467C103.446 43.2467 105.834 40.8589 105.834 37.9134C105.834 34.9679 103.446 32.5801 100.5 32.5801C97.5548 32.5801 95.167 34.9679 95.167 37.9134C95.167 40.8589 97.5548 43.2467 100.5 43.2467Z" fill="#5960B2"/>
<path d="M129.833 43.2467C132.779 43.2467 135.167 40.8589 135.167 37.9134C135.167 34.9679 132.779 32.5801 129.833 32.5801C126.888 32.5801 124.5 34.9679 124.5 37.9134C124.5 40.8589 126.888 43.2467 129.833 43.2467Z" fill="white"/>
<path d="M115.167 117.913C118.849 117.913 121.833 114.929 121.833 111.247C121.833 107.565 118.849 104.58 115.167 104.58C111.485 104.58 108.5 107.565 108.5 111.247C108.5 114.929 111.485 117.913 115.167 117.913Z" fill="#DFE1FB"/>
<path d="M120.376 139.74C119.309 139.74 118.313 139.74 117.407 139.683C116.29 139.608 115.216 139.225 114.302 138.579C113.388 137.932 112.671 137.046 112.228 136.018L106.603 124.9C106.19 124.42 105.984 123.796 106.03 123.164C106.075 122.533 106.368 121.945 106.845 121.528C107.236 121.214 107.724 121.045 108.225 121.05C108.595 121.06 108.957 121.151 109.288 121.316C109.619 121.48 109.91 121.714 110.141 122.002L112.696 125.488L112.735 125.534V112.287C112.735 111.63 112.996 111 113.461 110.535C113.925 110.07 114.556 109.809 115.213 109.809C115.87 109.809 116.5 110.07 116.965 110.535C117.43 111 117.691 111.63 117.691 112.287V120.954C117.662 120.635 117.7 120.313 117.802 120.01C117.905 119.707 118.069 119.428 118.285 119.191C118.501 118.955 118.764 118.766 119.057 118.637C119.35 118.508 119.667 118.441 119.987 118.441C120.307 118.441 120.624 118.508 120.917 118.637C121.21 118.766 121.473 118.955 121.689 119.191C121.905 119.428 122.069 119.707 122.171 120.01C122.274 120.313 122.312 120.635 122.283 120.954V122.76C122.254 122.442 122.292 122.12 122.394 121.817C122.497 121.513 122.661 121.234 122.877 120.998C123.093 120.762 123.356 120.573 123.649 120.444C123.942 120.315 124.259 120.248 124.579 120.248C124.899 120.248 125.216 120.315 125.509 120.444C125.802 120.573 126.065 120.762 126.281 120.998C126.497 121.234 126.661 121.513 126.763 121.817C126.866 122.12 126.904 122.442 126.875 122.76V124.152C126.846 123.834 126.884 123.512 126.986 123.209C127.089 122.905 127.253 122.626 127.469 122.39C127.685 122.154 127.948 121.965 128.241 121.836C128.534 121.707 128.851 121.64 129.171 121.64C129.491 121.64 129.808 121.707 130.101 121.836C130.394 121.965 130.657 122.154 130.873 122.39C131.089 122.626 131.253 122.905 131.355 123.209C131.458 123.512 131.496 123.834 131.467 124.152V132.602C131.421 135.2 130.247 139.582 126.115 139.582C125.815 139.595 123.273 139.742 120.381 139.742L120.376 139.74Z" fill="#5960B2" stroke="white" stroke-width="1.33333"/>
<defs>
<filter id="filter0_d_13_1605" x="28.5" y="45.9136" width="144" height="158.667" filterUnits="userSpaceOnUse" color-interpolation-filters="sRGB">
<feFlood flood-opacity="0" result="BackgroundImageFix"/>
<feColorMatrix in="SourceAlpha" type="matrix" values="0 0 0 0 0 0 0 0 0 0 0 0 0 0 0 0 0 0 127 0" result="hardAlpha"/>
<feOffset dy="-4"/>
<feGaussianBlur stdDeviation="4"/>
<feColorMatrix type="matrix" values="0 0 0 0 0.788235 0 0 0 0 0.803922 0 0 0 0 0.85098 0 0 0 0.349 0"/>
<feBlend mode="normal" in2="BackgroundImageFix" result="effect1_dropShadow_13_1605"/>
<feBlend mode="normal" in="SourceGraphic" in2="effect1_dropShadow_13_1605" result="shape"/>
</filter>
<linearGradient id="paint0_linear_13_1605" x1="100.5" y1="0.580078" x2="100.5" y2="200.58" gradientUnits="userSpaceOnUse">
<stop stop-color="#E3ECFA"/>
<stop offset="1" stop-color="#DADDFF"/>
</linearGradient>
<linearGradient id="paint1_linear_13_1605" x1="100.5" y1="0.580078" x2="100.5" y2="200.58" gradientUnits="userSpaceOnUse">
<stop stop-color="#E3ECFA"/>
<stop offset="1" stop-color="#DAE7FF"/>
</linearGradient>
</defs>
</svg>
