<svg xmlns="http://www.w3.org/2000/svg" xmlns:xlink="http://www.w3.org/1999/xlink" viewBox="0,0,256,256" width="50px" height="50px"><g fill="#ffffff" fill-rule="nonzero" stroke="none" stroke-width="1" stroke-linecap="butt" stroke-linejoin="miter" stroke-miterlimit="10" stroke-dasharray="" stroke-dashoffset="0" font-family="none" font-weight="none" font-size="none" text-anchor="none" style="mix-blend-mode: normal"><g transform="scale(5.12,5.12)"><path d="M29,8.53125c-5.215,0 -9.629,3.12125 -11.75,7.53125c-1.129,-0.777 -2.43825,-1.34375 -3.90625,-1.34375c-3.727,0 -6.69925,2.949 -6.90625,6.625c-3.727,1.345 -6.4375,4.82 -6.4375,9c0,5.328 4.32825,9.65625 9.65625,9.65625h31.4375c4.906,0 8.90625,-4.00025 8.90625,-8.90625c0,-4.551 -3.49225,-8.1675 -7.90625,-8.6875c0.016,-0.242 0.0625,-0.46875 0.0625,-0.71875c0,-7.249 -5.90625,-13.15625 -13.15625,-13.15625zM29,10.53125c6.172,0 11.15625,4.98825 11.15625,11.15625c0,0.457 -0.03475,0.906 -0.09375,1.375l-0.15625,1.125h1.1875c3.824,0 6.90625,3.08225 6.90625,6.90625c0,3.824 -3.08225,6.90625 -6.90625,6.90625h-31.4375c-4.25,0 -7.65625,-3.41025 -7.65625,-7.65625c0,-3.535 2.383,-6.51225 5.625,-7.40625l0.75,-0.1875l-0.03125,-0.8125c-0.004,-0.141 0,-0.21075 0,-0.21875c0,-2.777 2.223,-5 5,-5c1.391,0 2.6565,0.55875 3.5625,1.46875l1.09375,1.125l0.53125,-1.46875c1.574,-4.249 5.65975,-7.3125 10.46875,-7.3125zM30.54688,16.20898l-6.18359,6.18164c-0.60221,-0.18504 -1.20098,-0.39062 -1.86328,-0.39062c-3.57827,0 -6.5,2.92173 -6.5,6.5c0,3.57827 2.92173,6.5 6.5,6.5c3.57827,0 6.5,-2.92173 6.5,-6.5c0,-0.67292 -0.21117,-1.28014 -0.40234,-1.89062l0.5957,-0.59375h1.53906v-1.49805h1.49805v-1.51172h1.53516v-1.53711h-0.02734l1.04297,-1.04297l-0.05078,-0.47656l-0.36523,-3.41797zM31.30273,18.2793l1.25,0.10547l0.13867,1.30273l-6.36133,6.35938l0.28125,0.62695c0.2498,0.56123 0.38867,1.17541 0.38867,1.82617c0,2.49773 -2.00227,4.5 -4.5,4.5c-2.49773,0 -4.5,-2.00227 -4.5,-4.5c0,-2.49773 2.00227,-4.5 4.5,-4.5c0.64317,0 1.24938,0.13575 1.80469,0.37891l0.625,0.27344zM21.5,28c-0.82843,0 -1.5,0.67157 -1.5,1.5c0,0.82843 0.67157,1.5 1.5,1.5c0.82843,0 1.5,-0.67157 1.5,-1.5c0,-0.82843 -0.67157,-1.5 -1.5,-1.5z"></path></g></g></svg>