<svg width="13" height="11" viewBox="0 0 13 11" fill="none" xmlns="http://www.w3.org/2000/svg">
<path d="M3 2H11M5 4.5H11M5 7H9.11111" stroke="black" stroke-linecap="round" stroke-linejoin="round"/>
<path d="M1.5 1C1.5 0.723858 1.27614 0.5 1 0.5C0.723858 0.5 0.5 0.723858 0.5 1H1.5ZM0.5 1L0.5 10.5581H1.5L1.5 1H0.5Z" fill="black"/>
<path d="M12.005 10.5572C12.2811 10.5572 12.5046 10.3334 12.5042 10.0572C12.5038 9.78106 12.2796 9.5572 12.0035 9.5572L12.005 10.5572ZM12.0035 9.5572L0.999247 9.55718L1.00072 10.5572L12.005 10.5572L12.0035 9.5572Z" fill="black"/>
</svg>
