<svg width="16" height="16" viewBox="0 0 16 16" fill="none" xmlns="http://www.w3.org/2000/svg">
<g clip-path="url(#clip0_29_100)">
<path d="M4.57156 6.85551C5.83389 6.85551 6.85722 5.83219 6.85722 4.56985C6.85722 3.30751 5.83389 2.28418 4.57156 2.28418C3.30922 2.28418 2.28589 3.30751 2.28589 4.56985C2.28589 5.83219 3.30922 6.85551 4.57156 6.85551Z" stroke="black" stroke-width="1.33333" stroke-linecap="round" stroke-linejoin="round"/>
<path d="M11.4286 13.7139C12.6909 13.7139 13.7143 12.6906 13.7143 11.4282C13.7143 10.1659 12.6909 9.14258 11.4286 9.14258C10.1663 9.14258 9.14294 10.1659 9.14294 11.4282C9.14294 12.6906 10.1663 13.7139 11.4286 13.7139Z" stroke="black" stroke-width="1.33333" stroke-linecap="round" stroke-linejoin="round"/>
<path d="M8.00028 14.6659C4.31828 14.6659 1.33362 11.6812 1.33362 7.99919L3.55595 9.11019M8.00028 1.33252C11.6823 1.33252 14.667 4.31719 14.667 7.99919L12.4446 6.88819" stroke="black" stroke-width="1.33333" stroke-linecap="round" stroke-linejoin="round"/>
</g>
<defs>
<clipPath id="clip0_29_100">
<rect width="16" height="16" fill="white"/>
</clipPath>
</defs>
</svg>
