<svg width="32" height="32" viewBox="0 0 32 32" fill="none" xmlns="http://www.w3.org/2000/svg">
<path d="M5.36062 20.2652L6.97119 21.3389L10.8364 15.5408L9.2258 14.4671L5.36062 20.2652Z" fill="#1185E0"/>
<path d="M12.6423 15.4234L18.4409 20.2559L19.68 18.769L13.8814 13.9366L12.6423 15.4234Z" fill="#1185E0"/>
<path d="M21.1123 18.415L22.8237 19.3193L26.7574 11.8746L25.046 10.9703L21.1123 18.415Z" fill="#1185E0"/>
<path d="M4.87097 27.2576C2.74192 27.2576 1 25.5156 1 23.3866C1 21.2576 2.74192 19.5156 4.87097 19.5156C7.00002 19.5156 8.74194 21.2575 8.74194 23.3866C8.74194 25.5156 7.00002 27.2576 4.87097 27.2576ZM4.87097 21.4511C3.80645 21.4511 2.93549 22.3221 2.93549 23.3866C2.93549 24.4511 3.80645 25.3221 4.87097 25.3221C5.9355 25.3221 6.80646 24.4511 6.80646 23.3866C6.80646 22.3221 5.9355 21.4511 4.87097 21.4511Z" fill="#4DCFE0"/>
<path d="M11.3226 16.2908C9.19358 16.2908 7.45166 14.5489 7.45166 12.4198C7.45166 10.2907 9.19358 8.54883 11.3226 8.54883C13.4517 8.54883 15.1936 10.2907 15.1936 12.4198C15.1936 14.5489 13.4516 16.2908 11.3226 16.2908ZM11.3226 10.4843C10.2581 10.4843 9.38715 11.3553 9.38715 12.4198C9.38715 13.4843 10.2581 14.3553 11.3226 14.3553C12.3872 14.3553 13.2581 13.4843 13.2581 12.4198C13.2581 11.3553 12.3871 10.4843 11.3226 10.4843Z" fill="#4DCFE0"/>
<path d="M20.9999 25.6453C18.8708 25.6453 17.1289 23.9033 17.1289 21.7743C17.1289 19.6452 18.8708 17.9033 20.9999 17.9033C23.1289 17.9033 24.8708 19.6452 24.8708 21.7743C24.8708 23.9033 23.1289 25.6453 20.9999 25.6453ZM20.9999 19.8388C19.9354 19.8388 19.0644 20.7098 19.0644 21.7743C19.0644 22.8388 19.9354 23.7098 20.9999 23.7098C22.0644 23.7098 22.9354 22.8388 22.9354 21.7743C22.9354 20.7098 22.0644 19.8388 20.9999 19.8388Z" fill="#4DCFE0"/>
<path d="M27.1288 12.7419C24.9997 12.7419 23.2578 11 23.2578 8.87097C23.2578 6.74192 24.9997 5 27.1288 5C29.2578 5 30.9998 6.74192 30.9998 8.87097C30.9998 11 29.2578 12.7419 27.1288 12.7419ZM27.1288 6.93549C26.0643 6.93549 25.1933 7.80645 25.1933 8.87097C25.1933 9.9355 26.0643 10.8065 27.1288 10.8065C28.1933 10.8065 29.0643 9.9355 29.0643 8.87097C29.0643 7.80645 28.1932 6.93549 27.1288 6.93549Z" fill="#4DCFE0"/>
</svg>
