<svg width="18" height="16" viewBox="0 0 18 16" fill="none" xmlns="http://www.w3.org/2000/svg">
	<path d="M12.2 3.4L14.6 5.8M14.6 5.8L17 3.4M14.6 5.8V1M12.2 14.6V13.64C12.2 12.2959 12.2 11.6238 11.9384 11.1104C11.7083 10.6588 11.3412 10.2917 10.8896 10.0616C10.3762 9.8 9.70413 9.8 8.36 9.8H4.84C3.49587 9.8 2.82381 9.8 2.31042 10.0616C1.85883 10.2917 1.49168 10.6588 1.26158 11.1104C1 11.6238 1 12.2959 1 13.64V14.6M9.4 3.8C9.4 5.3464 8.1464 6.6 6.6 6.6C5.0536 6.6 3.8 5.3464 3.8 3.8C3.8 2.2536 5.0536 1 6.6 1C8.1464 1 9.4 2.2536 9.4 3.8Z" stroke="#5CA380" stroke-width="1.3" stroke-linecap="round" stroke-linejoin="round" />
</svg>
	