<svg width="44" height="30" viewBox="0 0 44 30" fill="none" xmlns="http://www.w3.org/2000/svg">
<path d="M22.0059 23.5C24.3686 23.5 26.375 22.673 28.025 21.0191C29.675 19.3652 30.5 17.3569 30.5 14.9941C30.5 12.6314 29.673 10.625 28.0191 8.975C26.3652 7.325 24.3569 6.5 21.9941 6.5C19.6314 6.5 17.625 7.32697 15.975 8.9809C14.325 10.6348 13.5 12.6431 13.5 15.0059C13.5 17.3686 14.327 19.375 15.9809 21.025C17.6348 22.675 19.6431 23.5 22.0059 23.5ZM21.9883 20.6C20.4294 20.6 19.1083 20.0544 18.025 18.9633C16.9417 17.8721 16.4 16.5471 16.4 14.9883C16.4 13.4294 16.9456 12.1083 18.0367 11.025C19.1279 9.94167 20.4529 9.4 22.0117 9.4C23.5706 9.4 24.8917 9.94558 25.975 11.0367C27.0583 12.1279 27.6 13.4529 27.6 15.0117C27.6 16.5706 27.0544 17.8917 25.9633 18.975C24.8721 20.0583 23.5471 20.6 21.9883 20.6ZM22 30C17.1333 30 12.7333 28.6167 8.8 25.85C4.86667 23.0833 1.93333 19.4667 0 15C1.93333 10.5333 4.86667 6.91667 8.8 4.15C12.7333 1.38333 17.1333 0 22 0C26.8667 0 31.2667 1.38333 35.2 4.15C39.1333 6.91667 42.0667 10.5333 44 15C42.0667 19.4667 39.1333 23.0833 35.2 25.85C31.2667 28.6167 26.8667 30 22 30ZM21.9916 27C26.0305 27 29.7417 25.9083 33.125 23.725C36.5083 21.5417 39.0833 18.6333 40.85 15C39.0833 11.3667 36.5112 8.45833 33.1335 6.275C29.7557 4.09167 26.0474 3 22.0085 3C17.9695 3 14.2583 4.09167 10.875 6.275C7.49167 8.45833 4.9 11.3667 3.1 15C4.9 18.6333 7.48885 21.5417 10.8665 23.725C14.2443 25.9083 17.9526 27 21.9916 27Z" fill="black"/>
</svg>
