<svg width="44" height="41" viewBox="0 0 44 41" fill="none" xmlns="http://www.w3.org/2000/svg">
<path d="M29.45 23.05L27.25 20.85C28.1167 18.4833 27.6667 16.5167 25.9 14.95C24.1333 13.3833 22.2167 12.9833 20.15 13.75L17.95 11.55C18.5167 11.1833 19.15 10.9167 19.85 10.75C20.55 10.5833 21.2667 10.5 22 10.5C24.3667 10.5 26.375 11.325 28.025 12.975C29.675 14.625 30.5 16.6333 30.5 19C30.5 19.7333 30.4083 20.4583 30.225 21.175C30.0417 21.8917 29.7833 22.5167 29.45 23.05ZM35.9 29.5L33.9 27.5C35.5333 26.3 36.9583 24.9583 38.175 23.475C39.3917 21.9917 40.2833 20.5 40.85 19C39.1833 15.3 36.6833 12.375 33.35 10.225C30.0167 8.075 26.4 7 22.5 7C21.1 7 19.6667 7.13333 18.2 7.4C16.7333 7.66667 15.5833 7.98333 14.75 8.35L12.45 6C13.6167 5.46667 15.1083 5 16.925 4.6C18.7417 4.2 20.5167 4 22.25 4C27.0167 4 31.375 5.35833 35.325 8.075C39.275 10.7917 42.1667 14.4333 44 19C43.1333 21.1333 42.0167 23.0833 40.65 24.85C39.2833 26.6167 37.7 28.1667 35.9 29.5ZM38.8 40.8L30.4 32.55C29.2333 33.0167 27.9167 33.375 26.45 33.625C24.9833 33.875 23.5 34 22 34C17.1333 34 12.7167 32.6417 8.75 29.925C4.78333 27.2083 1.86667 23.5667 0 19C0.666667 17.2667 1.59167 15.575 2.775 13.925C3.95833 12.275 5.4 10.7 7.1 9.2L0.8 2.9L2.9 0.75L40.75 38.6L38.8 40.8ZM9.15 11.3C7.91667 12.2 6.725 13.3833 5.575 14.85C4.425 16.3167 3.6 17.7 3.1 19C4.8 22.7 7.35833 25.625 10.775 27.775C14.1917 29.925 18.0667 31 22.4 31C23.5 31 24.5833 30.9333 25.65 30.8C26.7167 30.6667 27.5167 30.4667 28.05 30.2L24.85 27C24.4833 27.1667 24.0333 27.2917 23.5 27.375C22.9667 27.4583 22.4667 27.5 22 27.5C19.6667 27.5 17.6667 26.6833 16 25.05C14.3333 23.4167 13.5 21.4 13.5 19C13.5 18.5 13.5417 18 13.625 17.5C13.7083 17 13.8333 16.55 14 16.15L9.15 11.3Z" fill="black"/>
</svg>
