<svg width="24" height="24" viewBox="0 0 24 24" fill="none" xmlns="http://www.w3.org/2000/svg">
<path d="M7 16C7.39782 16 7.77936 15.842 8.06066 15.5607C8.34196 15.2794 8.5 14.8978 8.5 14.5C8.50376 14.4501 8.50376 14.3999 8.5 14.35L11.29 11.56H11.75L13.36 13.17V13.25C13.36 13.6478 13.518 14.0294 13.7993 14.3107C14.0806 14.592 14.4622 14.75 14.86 14.75C15.2578 14.75 15.6394 14.592 15.9207 14.3107C16.202 14.0294 16.36 13.6478 16.36 13.25V13.17L20 9.5C20.2967 9.5 20.5867 9.41203 20.8334 9.2472C21.08 9.08238 21.2723 8.84811 21.3858 8.57403C21.4993 8.29994 21.5291 7.99834 21.4712 7.70736C21.4133 7.41639 21.2704 7.14912 21.0607 6.93934C20.8509 6.72956 20.5836 6.5867 20.2926 6.52882C20.0017 6.47094 19.7001 6.50065 19.426 6.61418C19.1519 6.72771 18.9176 6.91997 18.7528 7.16664C18.588 7.41332 18.5 7.70333 18.5 8C18.4962 8.04993 18.4962 8.10007 18.5 8.15L14.89 11.76H14.73L13 10C13 9.60218 12.842 9.22064 12.5607 8.93934C12.2794 8.65804 11.8978 8.5 11.5 8.5C11.1022 8.5 10.7206 8.65804 10.4393 8.93934C10.158 9.22064 10 9.60218 10 10L7 13C6.60218 13 6.22064 13.158 5.93934 13.4393C5.65804 13.7206 5.5 14.1022 5.5 14.5C5.5 14.8978 5.65804 15.2794 5.93934 15.5607C6.22064 15.842 6.60218 16 7 16ZM20.5 20H3.5V3C3.5 2.73478 3.39464 2.48043 3.20711 2.29289C3.01957 2.10536 2.76522 2 2.5 2C2.23478 2 1.98043 2.10536 1.79289 2.29289C1.60536 2.48043 1.5 2.73478 1.5 3V21C1.5 21.2652 1.60536 21.5196 1.79289 21.7071C1.98043 21.8946 2.23478 22 2.5 22H20.5C20.7652 22 21.0196 21.8946 21.2071 21.7071C21.3946 21.5196 21.5 21.2652 21.5 21C21.5 20.7348 21.3946 20.4804 21.2071 20.2929C21.0196 20.1054 20.7652 20 20.5 20Z" fill="black"/>
</svg>
