<?xml version="1.0" encoding="utf-8"?>

<!-- Uploaded to: SVG Repo, www.svgrepo.com, Generator: SVG Repo Mixer Tools -->
<svg version="1.1" id="Icons" xmlns="http://www.w3.org/2000/svg" xmlns:xlink="http://www.w3.org/1999/xlink" 
	 viewBox="0 0 32 32" xml:space="preserve">
<style type="text/css">
	.st0{fill:#FFFFFF;}
	.st1{fill:#3A559F;}
	.st2{fill:#F4F4F4;}
	.st3{fill:#FF0084;}
	.st4{fill:#0063DB;}
	.st5{fill:#00ACED;}
	.st6{fill:#FFEC06;}
	.st7{fill:#FF0000;}
	.st8{fill:#25D366;}
	.st9{fill:#0088FF;}
	.st10{fill:#314358;}
	.st11{fill:#EE6996;}
	.st12{fill:#01AEF3;}
	.st13{fill:#FFFEFF;}
	.st14{fill:#F06A35;}
	.st15{fill:#00ADEF;}
	.st16{fill:#1769FF;}
	.st17{fill:#1AB7EA;}
	.st18{fill:#6001D1;}
	.st19{fill:#E41214;}
	.st20{fill:#05CE78;}
	.st21{fill:#7B519C;}
	.st22{fill:#FF4500;}
	.st23{fill:#00F076;}
	.st24{fill:#FFC900;}
	.st25{fill:#00D6FF;}
	.st26{fill:#FF3A44;}
	.st27{fill:#FF6A36;}
	.st28{fill:#0061FE;}
	.st29{fill:#F7981C;}
	.st30{fill:#EE1B22;}
	.st31{fill:#EF3561;}
	.st32{fill:none;stroke:#FFFFFF;stroke-width:2;stroke-miterlimit:10;}
	.st33{fill:#0097D3;}
	.st34{fill:#01308A;}
	.st35{fill:#019CDE;}
	.st36{fill:#FFD049;}
	.st37{fill:#16A05D;}
	.st38{fill:#4486F4;}
	.st39{fill:none;}
	.st40{fill:#34A853;}
	.st41{fill:#4285F4;}
	.st42{fill:#FBBC05;}
	.st43{fill:#EA4335;}
</style>
<g>
	<g>
		<g>
			<path class="st15" d="M30,15H17c-0.6,0-1-0.4-1-1V3.3c0-0.5,0.4-0.9,0.8-1l13-2.3c0.3,0,0.6,0,0.8,0.2C30.9,0.4,31,0.7,31,1v13
				C31,14.6,30.6,15,30,15z"/>
		</g>
		<g>
			<path class="st15" d="M13,15H1c-0.6,0-1-0.4-1-1V6c0-0.5,0.4-0.9,0.8-1l12-2c0.3,0,0.6,0,0.8,0.2C13.9,3.4,14,3.7,14,4v10
				C14,14.6,13.6,15,13,15z"/>
		</g>
		<g>
			<path class="st15" d="M30,32c-0.1,0-0.1,0-0.2,0l-13-2.3c-0.5-0.1-0.8-0.5-0.8-1V18c0-0.6,0.4-1,1-1h13c0.6,0,1,0.4,1,1v13
				c0,0.3-0.1,0.6-0.4,0.8C30.5,31.9,30.2,32,30,32z"/>
		</g>
		<g>
			<path class="st15" d="M13,29c-0.1,0-0.1,0-0.2,0l-12-2C0.4,26.9,0,26.5,0,26v-8c0-0.6,0.4-1,1-1h12c0.6,0,1,0.4,1,1v10
				c0,0.3-0.1,0.6-0.4,0.8C13.5,28.9,13.2,29,13,29z"/>
		</g>
	</g>
</g>
</svg>