<svg id="Layer_1" data-name="Layer 1" xmlns="http://www.w3.org/2000/svg" viewBox="0 0 1037.82 236.13"><defs><style>.cls-1{fill:#1f1d1d;}.cls-2{fill:#5960b2;}.cls-3{fill:#5ca380;}</style></defs><path class="cls-1" d="M349,163.2V141.74L393.22,90.9V88.85H350.3V73.78h60.55V95.24l-44.2,50.84v2h44.46V163.2Z"/><path class="cls-1" d="M433.71,93.91a10.32,10.32,0,0,1-7.34-2.81,10.65,10.65,0,0,1,0-14.82,11.08,11.08,0,0,1,14.75,0,10.81,10.81,0,0,1,0,14.82A10.27,10.27,0,0,1,433.71,93.91Zm-8,69.29V99.84h16.09V163.2Z"/><path class="cls-1" d="M459.64,163.2V99.84h15.84v8.3h2.3a16.75,16.75,0,0,1,5.75-6.32q4.22-3,12.77-3a24.49,24.49,0,0,1,13,3.38,23.11,23.11,0,0,1,8.62,9.33A29.74,29.74,0,0,1,521,125.39V163.2h-16.1V126.67q0-7.15-3.51-10.74t-10-3.57q-7.41,0-11.49,4.92T475.74,131V163.2Z"/><path class="cls-1" d="M568.09,163.2a36.08,36.08,0,0,1-16.67-3.83,28.81,28.81,0,0,1-11.81-11.12q-4.35-7.27-4.35-17.63v-1.78q0-10.35,4.35-17.63a28.72,28.72,0,0,1,11.81-11.11,36,36,0,0,1,16.67-3.84,35.11,35.11,0,0,1,15.59,3.2,28,28,0,0,1,10.54,8.75,30.57,30.57,0,0,1,5.3,12.58l-15.59,3.32a18.46,18.46,0,0,0-2.3-6.9,12.86,12.86,0,0,0-5-4.85,16.72,16.72,0,0,0-8.11-1.79,18,18,0,0,0-8.75,2.11,14.87,14.87,0,0,0-6.13,6.26,21.06,21.06,0,0,0-2.24,10.15v1.28a21,21,0,0,0,2.24,10.15,14.87,14.87,0,0,0,6.13,6.26,18,18,0,0,0,8.75,2.11q7.28,0,11-3.77a17.74,17.74,0,0,0,4.79-9.9l15.58,3.71a35.09,35.09,0,0,1-5.68,12.32A27.89,27.89,0,0,1,583.68,160,35.11,35.11,0,0,1,568.09,163.2Z"/><path class="cls-1" d="M644.78,163.2a41.37,41.37,0,0,1-17.69-3.59,28,28,0,0,1-12-10.27,28.88,28.88,0,0,1-4.33-16.08V129.8h16.08v3.46q0,7.8,4.82,11.69t13.11,3.9q8.41,0,12.56-3.34a10.49,10.49,0,0,0,4.14-8.54,8.25,8.25,0,0,0-2-5.81,14.72,14.72,0,0,0-5.94-3.65,76.47,76.47,0,0,0-9.46-2.66l-2.84-.62a72.25,72.25,0,0,1-15.28-5,24,24,0,0,1-9.77-8q-3.4-4.93-3.4-12.86a23.75,23.75,0,0,1,3.77-13.55,24.23,24.23,0,0,1,10.64-8.66,39.66,39.66,0,0,1,16.14-3,41,41,0,0,1,16.51,3.16,25.53,25.53,0,0,1,11.38,9.4q4.15,6.24,4.15,15.65v3.71H659.26v-3.71a14.73,14.73,0,0,0-1.92-8,11.13,11.13,0,0,0-5.5-4.45,23.13,23.13,0,0,0-8.54-1.43q-7.42,0-10.95,2.79a9.15,9.15,0,0,0-3.52,7.6,8.79,8.79,0,0,0,1.67,5.45,12.35,12.35,0,0,0,5,3.71,43.91,43.91,0,0,0,8.53,2.59l2.85.62A80.41,80.41,0,0,1,663,115.33a26.91,26.91,0,0,1,10.7,8.16q3.84,5.07,3.83,13a24.42,24.42,0,0,1-4,13.92,26.86,26.86,0,0,1-11.38,9.4A41.2,41.2,0,0,1,644.78,163.2Z"/><path class="cls-1" d="M719.46,163.2a33.58,33.58,0,0,1-16.67-4,28.32,28.32,0,0,1-11.24-11.36,35.53,35.53,0,0,1-4-17.31V129a35.9,35.9,0,0,1,4-17.3,28,28,0,0,1,11.11-11.37,33.22,33.22,0,0,1,16.61-4,30.94,30.94,0,0,1,16.22,4.15,28.55,28.55,0,0,1,10.73,11.5A36.41,36.41,0,0,1,750,129v5.5H703.88a14.33,14.33,0,0,0,4.85,10.6A16.3,16.3,0,0,0,720,149.15q6.78,0,10-2.94a20.82,20.82,0,0,0,4.85-6.52l13.16,6.9a41,41,0,0,1-5.18,7.22,27.93,27.93,0,0,1-9,6.64Q728.15,163.2,719.46,163.2ZM704,122.45h29.63a12.61,12.61,0,0,0-4.41-8.81,15.06,15.06,0,0,0-10.15-3.33q-6.51,0-10.35,3.33A14.25,14.25,0,0,0,704,122.45Z"/><path class="cls-1" d="M784,163.2a29.75,29.75,0,0,1-12.14-2.37,19.68,19.68,0,0,1-8.49-6.89,19,19,0,0,1-3.13-11.05A18.32,18.32,0,0,1,763.34,132a19,19,0,0,1,8.69-6.65,33.77,33.77,0,0,1,12.7-2.23h17.38v-3.58a10.06,10.06,0,0,0-2.81-7.34q-2.82-2.88-8.94-2.88t-9,2.75a13,13,0,0,0-3.83,7.09l-14.82-5a25.75,25.75,0,0,1,4.92-8.88,24.44,24.44,0,0,1,9.07-6.52,34.49,34.49,0,0,1,13.86-2.49q12.52,0,19.8,6.26t7.28,18.14v23.63q0,3.84,3.58,3.84h5.11v13.28H815.65a12.64,12.64,0,0,1-7.79-2.3,7.27,7.27,0,0,1-3.07-6.13v-.13h-2.43a16.34,16.34,0,0,1-2.3,4,14.86,14.86,0,0,1-5.62,4.41Q790.62,163.2,784,163.2Zm2.81-13a16.13,16.13,0,0,0,11.05-3.77,12.7,12.7,0,0,0,4.28-10V135.1H785.88a11.43,11.43,0,0,0-7,1.91,6.32,6.32,0,0,0-2.56,5.37A6.9,6.9,0,0,0,779,148C780.78,149.45,783.37,150.17,786.78,150.17Z"/><path class="cls-1" d="M838.13,163.2V99.84H854V107h2.3a10.12,10.12,0,0,1,4.66-5.62,15.55,15.55,0,0,1,7.6-1.79h7.66v14.31h-7.92a15.38,15.38,0,0,0-10.09,3.26q-4,3.25-4,10v36Z"/><path class="cls-1" d="M916.18,163.2a36,36,0,0,1-16.67-3.83,28.9,28.9,0,0,1-11.82-11.12q-4.35-7.27-4.34-17.63v-1.78q0-10.35,4.34-17.63a28.81,28.81,0,0,1,11.82-11.11,35.93,35.93,0,0,1,16.67-3.84,35.06,35.06,0,0,1,15.58,3.2,27.9,27.9,0,0,1,10.54,8.75,30.44,30.44,0,0,1,5.3,12.58L932,124.11a18.46,18.46,0,0,0-2.3-6.9,13,13,0,0,0-5.05-4.85,16.69,16.69,0,0,0-8.11-1.79,18,18,0,0,0-8.75,2.11,14.93,14.93,0,0,0-6.13,6.26,21.18,21.18,0,0,0-2.24,10.15v1.28a21.15,21.15,0,0,0,2.24,10.15,14.93,14.93,0,0,0,6.13,6.26,18,18,0,0,0,8.75,2.11q7.28,0,11.05-3.77a17.67,17.67,0,0,0,4.79-9.9L948,138.93a34.91,34.91,0,0,1-5.68,12.32A27.81,27.81,0,0,1,931.76,160,35.06,35.06,0,0,1,916.18,163.2Z"/><path class="cls-1" d="M961.27,163.2V73.78h16.09v33.85h2.3a15,15,0,0,1,3.2-4.09,16.75,16.75,0,0,1,5.81-3.38,27.24,27.24,0,0,1,9.26-1.34,24.45,24.45,0,0,1,13,3.38,23.13,23.13,0,0,1,8.63,9.33,29.87,29.87,0,0,1,3.06,13.86V163.2h-16.09V126.67q0-7.15-3.52-10.74t-10-3.57q-7.41,0-11.5,4.92T977.36,131V163.2Z"/><path class="cls-2" d="M75.78,32.49,94.89,16H275.1l7.48,27.29L165.18,146.48l-6-73.28H63.11A40.29,40.29,0,0,1,75.78,32.49Z"/><path class="cls-3" d="M224.3,203.64l-19.12,16.49H25L17.5,192.84,134.9,89.65l6,73.28H237A40.3,40.3,0,0,1,224.3,203.64Z"/></svg>