<svg width="16" height="17" viewBox="0 0 16 17" fill="none" xmlns="http://www.w3.org/2000/svg">
<g clip-path="url(#clip0_545_4077)">
<mask id="mask0_545_4077" style="mask-type:luminance" maskUnits="userSpaceOnUse" x="0" y="0" width="16" height="17">
<path d="M0 0.5H16V16.5H0V0.5Z" fill="white"/>
</mask>
<g mask="url(#mask0_545_4077)">
<path fill-rule="evenodd" clip-rule="evenodd" d="M13.25 1.25C13.4489 1.25 13.6397 1.32902 13.7803 1.46967C13.921 1.61032 14 1.80109 14 2V2.5H14.5C14.6989 2.5 14.8897 2.57902 15.0303 2.71967C15.171 2.86032 15.25 3.05109 15.25 3.25C15.25 3.44891 15.171 3.63968 15.0303 3.78033C14.8897 3.92098 14.6989 4 14.5 4H14V9H14.5C14.6989 9 14.8897 9.07902 15.0303 9.21967C15.171 9.36032 15.25 9.55109 15.25 9.75C15.25 9.94891 15.171 10.1397 15.0303 10.2803C14.8897 10.421 14.6989 10.5 14.5 10.5H14V11C14 11.1989 13.921 11.3897 13.7803 11.5303C13.6397 11.671 13.4489 11.75 13.25 11.75C13.0511 11.75 12.8603 11.671 12.7197 11.5303C12.579 11.3897 12.5 11.1989 12.5 11V10.5H10V13H10.5C10.6989 13 10.8897 13.079 11.0303 13.2197C11.171 13.3603 11.25 13.5511 11.25 13.75C11.25 13.9489 11.171 14.1397 11.0303 14.2803C10.8897 14.421 10.6989 14.5 10.5 14.5H10V15C10 15.1989 9.92098 15.3897 9.78033 15.5303C9.63968 15.671 9.44891 15.75 9.25 15.75C9.05109 15.75 8.86032 15.671 8.71967 15.5303C8.57902 15.3897 8.5 15.1989 8.5 15V14.5H3.5V15C3.5 15.1989 3.42098 15.3897 3.28033 15.5303C3.13968 15.671 2.94891 15.75 2.75 15.75C2.55109 15.75 2.36032 15.671 2.21967 15.5303C2.07902 15.3897 2 15.1989 2 15V14.5H1.5C1.30109 14.5 1.11032 14.421 0.96967 14.2803C0.829018 14.1397 0.75 13.9489 0.75 13.75C0.75 13.5511 0.829018 13.3603 0.96967 13.2197C1.11032 13.079 1.30109 13 1.5 13H2V8H1.5C1.30109 8 1.11032 7.92098 0.96967 7.78033C0.829018 7.63968 0.75 7.44891 0.75 7.25C0.75 7.05109 0.829018 6.86032 0.96967 6.71967C1.11032 6.57902 1.30109 6.5 1.5 6.5H2V6C2 5.80109 2.07902 5.61032 2.21967 5.46967C2.36032 5.32902 2.55109 5.25 2.75 5.25C2.94891 5.25 3.13968 5.32902 3.28033 5.46967C3.42098 5.61032 3.5 5.80109 3.5 6V6.5H6V4H5.5C5.30109 4 5.11032 3.92098 4.96967 3.78033C4.82902 3.63968 4.75 3.44891 4.75 3.25C4.75 3.05109 4.82902 2.86032 4.96967 2.71967C5.11032 2.57902 5.30109 2.5 5.5 2.5H6V2C6 1.80109 6.07902 1.61032 6.21967 1.46967C6.36032 1.32902 6.55109 1.25 6.75 1.25C6.94891 1.25 7.13968 1.32902 7.28033 1.46967C7.42098 1.61032 7.5 1.80109 7.5 2V2.5H12.5V2C12.5 1.80109 12.579 1.61032 12.7197 1.46967C12.8603 1.32902 13.0511 1.25 13.25 1.25ZM7.5 6.5H8.5V6C8.5 5.80109 8.57902 5.61032 8.71967 5.46967C8.86032 5.32902 9.05109 5.25 9.25 5.25C9.44891 5.25 9.63968 5.32902 9.78033 5.46967C9.92098 5.61032 10 5.80109 10 6V6.5H10.5C10.6989 6.5 10.8897 6.57902 11.0303 6.71967C11.171 6.86032 11.25 7.05109 11.25 7.25C11.25 7.44891 11.171 7.63968 11.0303 7.78033C10.8897 7.92098 10.6989 8 10.5 8H10V9H12.5V4H7.5V6.5ZM3.5 13V8H8.5V13H3.5Z" fill="#555555"/>
</g>
</g>
<defs>
<clipPath id="clip0_545_4077">
<rect width="16" height="16" fill="white" transform="translate(0 0.5)"/>
</clipPath>
</defs>
</svg>
