<svg width="16" height="16" viewBox="0 0 16 16" fill="none" xmlns="http://www.w3.org/2000/svg">
  <path d="M5.33203 8H5.33803M7.99536 8H8.00203M10.6594 8H10.6654M11.9987 14C12.82 14 13.486 13.2327 13.486 12.286C13.486 10.7873 13.4194 9.79133 14.4474 8.606C14.738 8.27133 14.738 7.72867 14.4474 7.394C13.4194 6.20933 13.486 5.21267 13.486 3.714C13.486 2.76733 12.82 2 11.9987 2M3.9987 14C3.17736 14 2.51136 13.2327 2.51136 12.286C2.51136 10.7873 2.57803 9.79133 1.55003 8.606C1.25936 8.27133 1.25936 7.72867 1.55003 7.394C2.55536 6.23533 2.51136 5.22667 2.51136 3.71333C2.51136 2.76733 3.17736 2 3.9987 2" stroke="#333333" stroke-width="1.5" stroke-linecap="round" stroke-linejoin="round"/>
</svg>
